<svg version="1.2" xmlns="http://www.w3.org/2000/svg" viewBox="0 0 56 56" width="56" height="56"><style>.a{fill:#246dd3}.b{fill:#fff}</style><path class="a" d="m28 56c-15.5 0-28-12.5-28-28 0-15.5 12.5-28 28-28 15.5 0 28 12.5 28 28 0 15.5-12.5 28-28 28z"/><path class="b" d="m27.6 12.1c0.8-0.4 1.7 0.5 1.3 1.3-0.2 0.6-1.2 0.7-1.6 0.3-0.5-0.5-0.4-1.4 0.3-1.6q0 0 0 0zm-8.5 0.9c0.5-0.2 1.1 0.2 1.1 0.7 0 0.5-0.7 1-1.2 0.7-0.6-0.3-0.5-1.3 0.1-1.4zm17.3 1.4c-0.7-0.1-0.8-1.2-0.1-1.4 0.5-0.3 1 0.2 1.1 0.7-0.1 0.4-0.5 0.8-1 0.7zm-15.3 2c0.8-0.5 1.9 0.3 1.8 1.1-0.1 1-1.3 1.5-2 0.9-0.7-0.5-0.6-1.6 0.2-2zm12.1 0.6c0.4-0.9 1.8-1 2.2-0.1 0.4 0.7-0.1 1.5-0.8 1.7-0.9 0.2-1.8-0.8-1.4-1.6zm-6.6 1.6c0-0.8 0.7-1.4 1.4-1.4 0.5 0.1 1.1 0.3 1.3 0.8 0.4 0.6 0 1.5-0.7 1.9-0.3 0.1-0.7 0.1-1.1 0-0.5-0.2-1-0.7-0.9-1.3zm-12.6 1.1c0.7-0.4 1.7 0.3 1.4 1.1-0.1 0.7-1 0.9-1.6 0.5-0.5-0.4-0.4-1.3 0.2-1.6zm27 0c0.6-0.5 1.6 0.1 1.5 0.8 0.1 0.7-0.8 1.2-1.4 0.9-0.7-0.3-0.8-1.3-0.1-1.7zm-10.9 1.4q0.2-0.1 0.4-0.1 0.2-0.1 0.4-0.1 0.2 0 0.4 0.1 0.2 0 0.4 0.1c0.5 0.1 0.9 0.5 1.2 0.9 0.8 1.1 0.4 2.7-0.8 3.3-1.3 0.7-3.1 0.1-3.5-1.2-0.5-1.2 0.2-2.7 1.5-3zm-6 0.1c1.1-0.5 2.7-0.1 3.2 1 0.7 1.1 0.2 2.6-1 3.1-1.1 0.7-2.8 0.2-3.3-1-0.7-1.1-0.1-2.6 1.1-3.1zm-6 1.9c0.1-0.7 0.8-1.1 1.5-1.2 0.7 0.1 1.3 0.7 1.4 1.4 0 0.7-0.6 1.4-1.4 1.4-0.9 0.1-1.6-0.7-1.5-1.6zm17.7-1c0.9-0.5 2.1 0.2 2.1 1.2 0.1 1.1-1.3 1.8-2.2 1.2-0.9-0.5-0.9-2 0.1-2.4zm-14.1 3.7q0.2-0.1 0.4-0.1 0.2 0 0.4 0 0.2 0 0.4 0.1 0.2 0 0.3 0.1c0.5 0.2 1 0.5 1.2 1 0.6 0.9 0.4 2.2-0.5 2.9-1.1 1-3.2 0.6-3.8-0.8-0.7-1.2 0.1-2.9 1.6-3.2zm11.3 0c1-0.3 2.2 0.1 2.8 1 0.7 1 0.4 2.5-0.7 3.2-1.2 0.7-2.9 0.3-3.5-0.9-0.8-1.2 0-3 1.4-3.3q0 0 0 0zm-18.1 1.1c0.9-0.3 1.9 0.7 1.6 1.5-0.3 0.8-1.4 1.1-2 0.5-0.7-0.5-0.4-1.7 0.4-2zm24.5 1.3q0-0.2 0.1-0.3 0-0.1 0-0.2 0.1-0.2 0.1-0.3 0.1-0.1 0.2-0.2c0.2-0.2 0.6-0.4 0.9-0.4 0.6 0.1 1.2 0.5 1.2 1.2 0.1 0.9-1 1.4-1.8 1-0.3-0.1-0.5-0.5-0.7-0.8zm-28.9-0.9c0.5-0.2 1.2 0.3 1.1 0.8-0.1 0.7-1.1 1-1.4 0.4-0.4-0.4-0.2-0.9 0.3-1.2zm34.3 0c0.4-0.2 1 0 1.1 0.4 0.3 0.5-0.2 1.1-0.7 1-0.8 0.1-1-1-0.4-1.4zm-20.2 3.2c1.5-0.4 3 0.8 3 2.2 0.1 1.4-1.4 2.7-2.9 2.4q-0.2-0.1-0.4-0.1-0.2-0.1-0.4-0.2-0.1-0.1-0.3-0.3-0.2-0.1-0.3-0.2-0.1-0.2-0.2-0.4-0.2-0.2-0.2-0.4-0.1-0.2-0.1-0.4-0.1-0.2-0.1-0.4c0-1 0.9-2 1.9-2.2zm5.7 0c1.5-0.4 3 0.8 3 2.2 0.1 1.4-1.4 2.7-2.8 2.4-1.4-0.2-2.4-1.6-2-2.9 0.2-0.8 0.9-1.5 1.8-1.7zm-10.9 0.9c1-0.2 1.9 0.9 1.5 1.8-0.3 1-1.8 1.2-2.4 0.4-0.8-0.7-0.2-2.1 0.9-2.2zm16.6 0c0.9-0.4 2 0.4 1.9 1.3 0.1 1.1-1.3 1.8-2.2 1.2-1-0.6-0.8-2.2 0.3-2.5zm4.6 4.5c-0.3-0.6 0.3-1.5 1.1-1.4 0.3 0 0.6 0.3 0.8 0.6 0.1 0.3 0.1 0.8-0.2 1.1-0.4 0.5-1.4 0.3-1.7-0.3zm-26.6-1.2c0.7-0.4 1.6 0.2 1.5 1-0.1 0.7-1 1.1-1.5 0.7-0.7-0.4-0.6-1.4 0-1.7zm13.4 1.4c0.9-0.3 2 0.4 2 1.3 0 1.1-1.4 1.8-2.2 1.2-1-0.6-0.9-2.1 0.2-2.5zm-6.2 1.4c0.8-0.3 1.8 0.3 1.7 1.1 0 0.7-0.7 1.3-1.3 1.2-0.6 0-1-0.5-1.2-1 0-0.5 0.3-1.1 0.8-1.3zm12.6 0c0.8-0.4 1.9 0.2 1.8 1.1 0 0.9-1.2 1.5-1.9 0.9-0.7-0.5-0.6-1.6 0.1-2zm2.2 5.2c-0.3-0.4 0.1-1.1 0.6-1.2 0.5 0.1 1 0.4 0.8 0.9 0 0.7-1 0.9-1.4 0.4zm-17.4-0.5c0.2-0.4 0.5-0.8 1-0.7 0.7 0.1 0.9 1.1 0.3 1.4-0.6 0.4-1.2-0.1-1.3-0.7zm8.4 0.5c0.1-0.6 0.9-0.9 1.5-0.6 0.3 0.2 0.4 0.5 0.5 0.9l-0.1 0.4c-0.2 0.3-0.5 0.5-0.9 0.5-0.6 0.1-1.2-0.6-1-1.2z"/></svg>