<svg width="66" height="65" viewBox="0 0 66 65" fill="none" xmlns="http://www.w3.org/2000/svg">
<path d="M56.332 5.4165H65.871L46.0195 24.7743C38.8304 31.7809 27.1746 31.7809 19.9804 24.7743L0.121094 5.4165H9.66789L24.7499 20.1215C26.9474 22.2544 29.9088 23.4501 32.9941 23.4501C36.0795 23.4501 39.0409 22.2544 41.2383 20.1215L56.332 5.4165Z" fill="#23292F"/>
<path d="M9.54551 59.2448H0L19.9805 39.7676C27.1696 32.7611 38.8253 32.7611 46.0195 39.7676L66 59.2448H56.4609L41.25 44.4205C39.0526 42.2875 36.0911 41.0918 33.0058 41.0918C29.9205 41.0918 26.959 42.2875 24.7616 44.4205L9.54551 59.2448Z" fill="#23292F"/>
</svg>
