<svg version="1.2" xmlns="http://www.w3.org/2000/svg" viewBox="0 0 977 152" width="977" height="152"><style></style><path  d="m72.2 19.3h-59.8v99.7h62.5v-9.4h-51.5v-38.1h34.7v-9.4h-34.7v-33.4h48.8zm-3.7 0h-59.7v99.7h62.5v-9.4h-51.5v-38.1h34.7v-9.4h-34.7v-33.4h48.7zm34.3 0h-9.9v99.7h9.9zm-3.6 0h-10v99.7h10zm28.9 27.8v71.8h9.9v-71.8zm10-29.2h-10v11.9h10zm-13.6 29.2v71.8h9.9v-71.8zm10-29.2h-10v11.8h10zm71.8 101.1v-8.6h-39.5l39.2-56v-7.2h-48.8v8.6h35.3l-39.2 56v7.2zm-3.6 0v-8.6h-39.5l39.2-56v-7.2h-48.9v8.6h35.4l-39.3 56v7.2zm12.5-58l8.7 4.6q1.8-4.5 6.4-7.8 4.5-3.4 12-3.4 6.9 0 10.7 3.1 4.1 3.2 4.1 10v3.9q-24.1 4.2-34 10.9-10 6.6-10 18.3 0 9.4 5.8 14.7 6 5.1 14.7 5.1 7.4 0 13.4-3.2 5.9-3.3 10.3-8.2l1.1 10h10.2q-0.8-3.2-1.2-6.6-0.4-3.5-0.4-8.9v-36.1q0-5.7-2.1-9.9-2-4.1-5.6-6.7-3.5-2.6-7.9-3.7-4.4-1.3-9.3-1.3-9.5 0-16.4 4.3-6.8 4.1-10.5 10.9zm41.9 19.2v19.7q-4.5 5.1-10.7 8.6-6.2 3.3-11.4 3.3-4.5 0-8.2-3.2-3.7-3.1-3.7-7.8 0-14.7 34-20.6zm-45.5-19.2l8.7 4.6q1.8-4.5 6.3-7.8 4.6-3.4 12-3.4 6.9 0 10.8 3.1 4 3.2 4 10v3.9q-24 4.2-34 10.9-9.9 6.6-9.9 18.3 0 9.4 5.8 14.7 5.9 5.1 14.6 5.1 7.5 0 13.4-3.2 6-3.3 10.4-8.2l1.1 10h10.2q-0.8-3.2-1.2-6.6-0.4-3.5-0.4-8.9v-36.1q0-5.7-2.1-9.9-2.1-4.1-5.7-6.7-3.4-2.6-7.8-3.7-4.5-1.3-9.3-1.3-9.5 0-16.4 4.3-6.8 4.1-10.5 10.9zm41.8 19.2v19.7q-4.4 5.1-10.6 8.6-6.2 3.3-11.5 3.3-4.4 0-8.1-3.2-3.8-3.1-3.8-7.8 0-14.7 34-20.6zm41.9-60.9h-9.9v83.9q0 7.9-0.2 10.8 0 2.8-0.4 5h6.9l1.8-7.6q4.7 4.3 9.7 6.6 4.9 2.4 11 2.4 5.3 0 10.4-2 5.1-1.9 9.4-6.2 4.4-4.3 7-11.6 2.6-7.3 2.6-17.5 0-9.9-2.6-17.1-2.6-7.3-7-11.8-4.3-4.4-9.4-6.3-5-2.1-9.8-2.1-4.9 0-9.7 2.2-4.8 2.1-9.3 5.8l-0.5 0.3zm0 82.8v-37.8q4.1-4.5 9-7.2 4.8-2.7 9.1-2.7 9.4 0 14.8 7 5.5 6.9 5.5 22.2 0 13.6-5.5 20.9-5.4 7.3-14.8 7.3-4.7 0-8.7-2.2-4-2.2-9.4-7.5zm-3.6-82.8h-10v83.9q0 7.9-0.1 10.8 0 2.8-0.4 5h6.9l1.8-7.6q4.7 4.3 9.6 6.6 5 2.4 11.1 2.4 5.2 0 10.3-2 5.1-1.9 9.4-6.2 4.4-4.3 7.1-11.6 2.6-7.3 2.6-17.5 0-10-2.6-17.1-2.7-7.4-7.1-11.8-4.3-4.4-9.4-6.3-4.9-2.1-9.8-2.1-4.8 0-9.6 2.2-4.9 2.1-9.3 5.8l-0.5 0.3zm0 82.8v-37.8q4.1-4.6 8.9-7.2 4.9-2.7 9.1-2.7 9.4 0 14.8 7 5.5 6.9 5.5 22.2 0 13.6-5.5 20.9-5.4 7.3-14.8 7.3-4.7 0-8.7-2.2-4-2.2-9.3-7.5zm119.4 1.5l-7.7-4q-3.2 5.7-8.3 9-5.1 3.2-11.6 3.2-9 0-15.2-7.5-6-7.6-6-19.3h46.6v-6.6q0-16.3-7.7-24.5-7.6-8.1-19.6-8.1-13.4 0-21.4 10.1-7.9 9.9-7.9 27.2 0 9.5 2.5 16.7 2.6 7 6.9 11.6 4.4 4.5 9.9 6.7 5.7 2.3 11.9 2.3 5.8 0 10.2-1.4 4.6-1.4 7.8-3.8 3.1-2.3 5.4-5.1 2.2-2.9 4.2-6.5zm-12.1-27.2h-36.5q0.7-10.2 5.6-16.1 4.9-5.9 13.8-5.9 8 0 12.5 6 4.6 6 4.6 16zm8.5 27.2l-7.7-4q-3.2 5.7-8.3 9-5.1 3.2-11.6 3.2-9 0-15.2-7.5-6.1-7.6-6.1-19.3h46.7v-6.6q0-16.3-7.7-24.5-7.6-8.1-19.7-8.1-13.3 0-21.4 10.1-7.8 9.9-7.8 27.2 0 9.5 2.5 16.7 2.6 7 6.9 11.6 4.4 4.5 9.9 6.7 5.7 2.3 11.9 2.3 5.8 0 10.2-1.4 4.6-1.4 7.7-3.8 3.2-2.3 5.4-5.1 2.2-2.9 4.3-6.5zm-12.2-27.2h-36.4q0.7-10.2 5.5-16.1 5-5.9 13.8-5.9 8 0 12.6 6 4.5 6 4.5 16zm31.6-29.2h-11.8v8.5h11.8v52.8q0 6.7 3.4 9.4 3.6 2.5 11.9 2.5 8 0 11.6-1.2v-8.1q-4.4 0.7-8.8 0.7-8.2 0-8.2-5v-51.1h16.6v-8.5h-16.6v-23.6h-9.9zm-3.7 0h-11.7v8.5h11.7v52.8q0 6.7 3.5 9.4 3.6 2.4 11.9 2.4 8 0 11.6-1.1v-8.1q-4.5 0.7-8.9 0.7-8.1 0-8.1-5v-51.1h16.5v-8.5h-16.5v-23.6h-10zm54.5-27.9h-10v99.7h10v-53.8q4-4.2 9.6-7.5 5.8-3.4 10.9-3.4 5.7 0 8.7 2.9 3.1 2.9 3.1 9.8v52h9.9v-52.2q0-10.8-5.9-15.9-5.9-5.1-14.8-5.1-5.8 0-11.3 3-5.4 2.9-9.9 8h-0.3zm-3.7 0h-9.9v99.7h9.9v-53.7q4-4.3 9.7-7.6 5.8-3.3 10.9-3.3 5.7 0 8.7 2.9 3 2.9 3 9.8v51.9h10v-52.2q0-10.7-6-15.9-5.9-5.1-14.7-5.1-5.8 0-11.3 3.1-5.4 2.9-10 8h-0.3zm175 51.8h-33.5v9.3h22.5v8.5q0 9.6-6.1 15.8-6.1 6.3-17.8 6.3-5.8 0-10.9-2.1-5.1-2.2-9.1-7.1-3.9-4.9-6.2-13.1-2.3-8.1-2.3-19.6 0-11.4 2.3-19.6 2.3-8.1 6.3-13 4-4.9 9-7 5.1-2.2 10.9-2.2 9 0 15 5.2 6.2 5.1 9.8 16.7l10.5-2q-4.4-15.4-13.5-22.3-9.1-7-22.4-7-17.6 0-28.3 13-10.6 13-10.6 38.2 0 25.3 10.6 38.3 10.7 12.9 28.3 12.9 8.6 0 15.5-2.6 6.9-2.7 10.6-7.9h0.3v9.2h9.1zm-3.6 0h-33.6v9.4h22.5v8.4q0 9.6-6 15.8-6.1 6.3-17.9 6.3-5.8 0-10.9-2.1-5.1-2.2-9.1-7-3.8-5-6.2-13.2-2.2-8.1-2.2-19.6 0-11.4 2.2-19.6 2.4-8.1 6.4-13 4-4.9 8.9-7 5.1-2.2 10.9-2.2 9 0 15.1 5.2 6.2 5.2 9.8 16.7l10.5-2q-4.4-15.3-13.5-22.3-9.2-7-22.4-7-17.7 0-28.3 13-10.6 13-10.6 38.2 0 25.3 10.6 38.3 10.6 13 28.3 13 8.6 0 15.5-2.7 6.9-2.7 10.6-7.8h0.3v9.1h9.1zm21.1-23.9v71.8h10v-39.8q3.7-11.6 9.1-17.2 5.5-5.8 14.5-6v-9.9q-8.4 0-13.7 3.7-5.2 3.7-9.6 11.6h-0.3v-14.2zm-3.6 0v71.8h9.9v-39.8q3.7-11.6 9.1-17.2 5.5-5.8 14.5-6v-9.9q-8.4 0-13.7 3.7-5.2 3.7-9.6 11.6h-0.3v-14.2zm44.6 13.8l8.7 4.5q1.8-4.4 6.4-7.7 4.5-3.4 12-3.4 6.9 0 10.8 3.1 4 3.2 4 10v3.8q-24.1 4.3-34 11-9.9 6.6-9.9 18.3 0 9.4 5.8 14.7 5.9 5.1 14.6 5.1 7.5 0 13.4-3.2 5.9-3.3 10.3-8.2l1.2 10h10.2q-0.9-3.2-1.3-6.6-0.4-3.5-0.4-8.9v-36.2q0-5.6-2.1-9.8-2-4.1-5.6-6.7-3.5-2.6-7.9-3.8-4.4-1.2-9.2-1.2-9.6 0-16.5 4.3-6.7 4.1-10.5 10.9zm41.9 19.2v19.7q-4.4 5.1-10.7 8.6-6.2 3.3-11.4 3.3-4.4 0-8.2-3.2-3.7-3.2-3.7-7.8 0-14.7 34-20.6zm-45.5-19.2l8.7 4.5q1.8-4.4 6.3-7.7 4.6-3.4 12.1-3.4 6.9 0 10.7 3.1 4 3.2 4 10v3.8q-24 4.3-33.9 11-10 6.6-10 18.3 0 9.4 5.8 14.7 6 5.1 14.7 5.1 7.4 0 13.4-3.2 5.9-3.3 10.3-8.2l1.1 10h10.2q-0.8-3.2-1.2-6.6-0.4-3.5-0.4-8.9v-36.2q0-5.6-2.1-9.8-2.1-4.1-5.7-6.7-3.4-2.6-7.8-3.8-4.4-1.2-9.3-1.2-9.5 0-16.4 4.3-6.8 4.1-10.5 10.9zm41.8 19.2v19.7q-4.4 5.1-10.6 8.6-6.2 3.3-11.5 3.3-4.4 0-8.1-3.2-3.7-3.2-3.7-7.8 0-14.7 33.9-20.6zm42.1-33h-10v71.8h10v-53.7q4-4.3 9.6-7.6 5.8-3.3 10.9-3.3 5.7 0 8.7 2.9 3.1 2.9 3.1 9.8v51.9h9.9v-52.2q0-10.8-5.9-15.9-6-5.1-14.8-5.1-5.8 0-11.3 3-5.4 2.9-10 8h-0.2zm-3.7 0h-9.9v71.8h9.9v-53.7q4-4.2 9.7-7.6 5.8-3.3 10.9-3.3 5.6 0 8.7 2.9 3 2.9 3 9.8v51.9h10v-52.1q0-10.8-6-15.9-5.9-5.1-14.8-5.1-5.7 0-11.3 3-5.4 2.9-9.9 8h-0.3zm119.3 56.5l-7.7-4q-3.2 5.6-8.3 9-5.1 3.1-11.6 3.1-8.9 0-15.2-7.4-6-7.6-6-19.4h46.6v-6.6q0-16.3-7.7-24.4-7.6-8.2-19.6-8.2-13.4 0-21.4 10.1-7.9 10-7.9 27.2 0 9.5 2.5 16.7 2.6 7.1 6.9 11.6 4.4 4.6 10 6.8 5.6 2.2 11.8 2.2 5.8 0 10.3-1.4 4.5-1.4 7.7-3.7 3.2-2.4 5.4-5.1 2.2-2.9 4.2-6.5zm-12.1-27.2h-36.4q0.6-10.2 5.5-16.2 4.9-5.9 13.8-5.9 8 0 12.5 6.1 4.6 5.9 4.6 16zm8.5 27.2l-7.7-4q-3.2 5.6-8.3 9-5.1 3.1-11.6 3.1-9 0-15.2-7.4-6.1-7.6-6.1-19.4h46.7v-6.6q0-16.3-7.7-24.4-7.6-8.2-19.6-8.2-13.4 0-21.4 10.1-7.9 10-7.9 27.2 0 9.5 2.5 16.7 2.6 7.1 6.9 11.6 4.4 4.6 9.9 6.8 5.7 2.2 11.9 2.2 5.8 0 10.2-1.4 4.6-1.4 7.7-3.7 3.2-2.4 5.4-5.1 2.2-2.9 4.3-6.5zm-12.1-27.2h-36.5q0.7-10.2 5.5-16.2 5-5.9 13.8-5.9 8 0 12.6 6.1 4.6 5.9 4.6 16zm76.4-29.3h-10.5l-16.9 54.8h-0.3l-19.3-54.8h-10.5l25 72.6q-1.2 5.6-3.4 9.1-2.1 3.5-4.7 5.3-2.7 1.7-5.3 2.2-2.5 0.6-5.4 0.6-1.8 0-4.4-0.3-0.8-0.2-0.9-0.2v8.2q0.6 0.1 1.5 0.3 3.1 0.5 5.6 0.5 8 0 14.3-4.4 6.3-4.6 9.9-15.7zm-3.6 0h-10.5l-16.9 54.8h-0.3l-19.3-54.8h-10.5l25 72.6q-1.2 5.5-3.4 9.1-2.1 3.4-4.7 5.2-2.7 1.7-5.3 2.2-2.5 0.6-5.4 0.6-1.8 0-4.4-0.3-0.8-0.1-1-0.1v8.1q0.7 0.2 1.6 0.3 3.1 0.6 5.6 0.6 8 0 14.2-4.5 6.4-4.5 10-15.7z"/></svg>