<svg width="1495" height="303" viewBox="0 0 1495 303" fill="none" xmlns="http://www.w3.org/2000/svg">
<path d="M69.7125 43.5703L0 0V164.029L69.7125 128.661V43.5703Z" fill="url(#paint0_linear_535_157)"/>
<path d="M345.999 204.012L172.23 104.056L2.5625 204.012V281.413L172.23 178.895L345.999 281.413V204.012Z" fill="url(#paint1_linear_535_157)"/>
<path d="M346 155.315V3.0755L237.331 94.3169L346 155.315Z" fill="url(#paint2_linear_535_157)"/>
<path d="M236.817 260.685L171.718 222.753L104.056 260.685L171.718 302.205L236.817 260.685Z" fill="url(#paint3_linear_535_157)"/>
<path d="M418.002 173V21.1557H440.778V173H418.002ZM490.311 173C485.39 173 480.82 171.805 476.602 169.415C472.385 166.884 469.01 163.58 466.479 159.503C464.089 155.285 462.894 150.645 462.894 145.584V136.726H485.671V144.951C485.671 146.357 486.163 147.622 487.147 148.747C488.272 149.731 489.537 150.223 490.943 150.223H586.69C588.096 150.223 589.291 149.731 590.275 148.747C591.259 147.622 591.751 146.357 591.751 144.951V113.739C591.751 112.192 591.259 110.927 590.275 109.942C589.291 108.958 588.096 108.466 586.69 108.466H490.311C485.39 108.466 480.82 107.271 476.602 104.881C472.385 102.35 469.01 99.0462 466.479 94.9689C464.089 90.751 462.894 86.1113 462.894 81.0498V48.572C462.894 43.5105 464.089 38.9411 466.479 34.8638C469.01 30.6459 472.385 27.3419 476.602 24.9518C480.82 22.421 485.39 21.1557 490.311 21.1557H587.322C592.243 21.1557 596.813 22.421 601.03 24.9518C605.248 27.3419 608.552 30.6459 610.942 34.8638C613.473 38.9411 614.739 43.5105 614.739 48.572V57.4296H591.751V49.2047C591.751 47.7987 591.259 46.6037 590.275 45.6195C589.291 44.4947 588.096 43.9323 586.69 43.9323H490.943C489.537 43.9323 488.272 44.4947 487.147 45.6195C486.163 46.6037 485.671 47.7987 485.671 49.2047V80.4171C485.671 81.9637 486.163 83.2291 487.147 84.2132C488.272 85.1974 489.537 85.6895 490.943 85.6895H587.322C592.243 85.6895 596.813 86.9549 601.03 89.4856C605.248 91.8758 608.552 95.1798 610.942 99.3977C613.473 103.475 614.739 108.044 614.739 113.106V145.584C614.739 150.645 613.473 155.285 610.942 159.503C608.552 163.58 605.248 166.884 601.03 169.415C596.813 171.805 592.243 173 587.322 173H490.311ZM637.983 173V21.1557H777.174V43.9323H660.971V85.6895H754.397V108.466H660.971V150.223H777.174V173H637.983ZM882.542 173L794.599 21.1557H821.172L893.93 147.271L966.267 21.1557H992.84L905.108 173H882.542ZM1010.96 173V21.1557H1150.15V43.9323H1033.95V85.6895H1127.38V108.466H1033.95V150.223H1150.15V173H1010.96ZM1198.58 173C1193.66 173 1189.09 171.805 1184.87 169.415C1180.65 166.884 1177.28 163.58 1174.75 159.503C1172.36 155.285 1171.16 150.645 1171.16 145.584V136.726H1193.94V144.951C1193.94 146.357 1194.43 147.622 1195.42 148.747C1196.54 149.731 1197.81 150.223 1199.21 150.223H1294.96C1296.36 150.223 1297.56 149.731 1298.54 148.747C1299.53 147.622 1300.02 146.357 1300.02 144.951V113.739C1300.02 112.192 1299.53 110.927 1298.54 109.942C1297.56 108.958 1296.36 108.466 1294.96 108.466H1198.58C1193.66 108.466 1189.09 107.271 1184.87 104.881C1180.65 102.35 1177.28 99.0462 1174.75 94.9689C1172.36 90.751 1171.16 86.1113 1171.16 81.0498V48.572C1171.16 43.5105 1172.36 38.9411 1174.75 34.8638C1177.28 30.6459 1180.65 27.3419 1184.87 24.9518C1189.09 22.421 1193.66 21.1557 1198.58 21.1557H1295.59C1300.51 21.1557 1305.08 22.421 1309.3 24.9518C1313.52 27.3419 1316.82 30.6459 1319.21 34.8638C1321.74 38.9411 1323.01 43.5105 1323.01 48.572V57.4296H1300.02V49.2047C1300.02 47.7987 1299.53 46.6037 1298.54 45.6195C1297.56 44.4947 1296.36 43.9323 1294.96 43.9323H1199.21C1197.81 43.9323 1196.54 44.4947 1195.42 45.6195C1194.43 46.6037 1193.94 47.7987 1193.94 49.2047V80.4171C1193.94 81.9637 1194.43 83.2291 1195.42 84.2132C1196.54 85.1974 1197.81 85.6895 1199.21 85.6895H1295.59C1300.51 85.6895 1305.08 86.9549 1309.3 89.4856C1313.52 91.8758 1316.82 95.1798 1319.21 99.3977C1321.74 103.475 1323.01 108.044 1323.01 113.106V145.584C1323.01 150.645 1321.74 155.285 1319.21 159.503C1316.82 163.58 1313.52 166.884 1309.3 169.415C1305.08 171.805 1300.51 173 1295.59 173H1198.58ZM1402.77 173V43.9323H1338.24V21.1557H1490.08V43.9323H1425.55V173H1402.77Z" fill="black"/>
<path d="M405.656 296C403.324 296 401.169 295.435 399.19 294.304C397.282 293.173 395.763 291.654 394.632 289.746C393.501 287.767 392.936 285.612 392.936 283.28V232.4C392.936 230.068 393.501 227.948 394.632 226.04C395.763 224.061 397.282 222.507 399.19 221.376C401.169 220.245 403.324 219.68 405.656 219.68H469.044V228.266H405.656C404.525 228.266 403.536 228.69 402.688 229.538C401.911 230.315 401.522 231.269 401.522 232.4V283.28C401.522 284.411 401.911 285.4 402.688 286.248C403.536 287.025 404.525 287.414 405.656 287.414H469.044V296H405.656ZM573.588 296V232.4C573.588 230.068 574.153 227.948 575.284 226.04C576.415 224.061 577.934 222.507 579.842 221.376C581.821 220.245 583.976 219.68 586.308 219.68H637.188C639.52 219.68 641.64 220.245 643.548 221.376C645.527 222.507 647.081 224.061 648.212 226.04C649.343 227.948 649.908 230.068 649.908 232.4V296H641.322V268.122H582.174V296H573.588ZM582.174 259.536H641.322V232.4C641.322 231.269 640.898 230.315 640.05 229.538C639.273 228.69 638.319 228.266 637.188 228.266H586.308C585.177 228.266 584.188 228.69 583.34 229.538C582.563 230.315 582.174 231.269 582.174 232.4V259.536ZM755.266 296V219.786H818.866C821.198 219.786 823.318 220.387 825.226 221.588C827.204 222.719 828.759 224.238 829.89 226.146C831.02 228.054 831.586 230.174 831.586 232.506V254.872C831.586 257.204 831.02 259.324 829.89 261.232C828.759 263.14 827.204 264.695 825.226 265.896C823.318 267.027 821.198 267.592 818.866 267.592H763.852V296H755.266ZM767.986 258.9H818.866C819.996 258.9 820.95 258.511 821.728 257.734C822.576 256.957 823 256.003 823 254.872V232.506C823 231.375 822.576 230.421 821.728 229.644C820.95 228.796 819.996 228.372 818.866 228.372H767.986C766.855 228.372 765.866 228.796 765.018 229.644C764.24 230.421 763.852 231.375 763.852 232.506V254.872C763.852 256.003 764.24 256.957 765.018 257.734C765.866 258.511 766.855 258.9 767.986 258.9ZM933.453 296V219.68H942.145V296H933.453ZM1078.45 296V228.266H1044.53V219.68H1120.85V228.266H1087.03V296H1078.45ZM1222.27 296V232.4C1222.27 230.068 1222.83 227.948 1223.96 226.04C1225.09 224.061 1226.61 222.507 1228.52 221.376C1230.5 220.245 1232.65 219.68 1234.99 219.68H1285.87C1288.2 219.68 1290.32 220.245 1292.23 221.376C1294.21 222.507 1295.76 224.061 1296.89 226.04C1298.02 227.948 1298.59 230.068 1298.59 232.4V296H1290V268.122H1230.85V296H1222.27ZM1230.85 259.536H1290V232.4C1290 231.269 1289.58 230.315 1288.73 229.538C1287.95 228.69 1287 228.266 1285.87 228.266H1234.99C1233.86 228.266 1232.87 228.69 1232.02 229.538C1231.24 230.315 1230.85 231.269 1230.85 232.4V259.536ZM1404.05 296V219.574H1412.64V287.414H1480.37V296H1404.05Z" fill="black"/>
<defs>
<linearGradient id="paint0_linear_535_157" x1="11.8533" y1="-8.06668" x2="118.727" y2="88.5187" gradientUnits="userSpaceOnUse">
<stop offset="0.229167" stop-color="#20C9FF"/>
<stop offset="0.752002" stop-color="#063EBA"/>
</linearGradient>
<linearGradient id="paint1_linear_535_157" x1="60.9575" y1="95.334" x2="114.231" y2="314.696" gradientUnits="userSpaceOnUse">
<stop offset="0.229167" stop-color="#20C9FF"/>
<stop offset="0.752002" stop-color="#063EBA"/>
</linearGradient>
<linearGradient id="paint2_linear_535_157" x1="255.808" y1="-4.41139" x2="347.416" y2="134.637" gradientUnits="userSpaceOnUse">
<stop offset="0.229167" stop-color="#20C9FF"/>
<stop offset="0.752002" stop-color="#063EBA"/>
</linearGradient>
<linearGradient id="paint3_linear_535_157" x1="126.63" y1="218.846" x2="153.768" y2="315.273" gradientUnits="userSpaceOnUse">
<stop offset="0.229167" stop-color="#20C9FF"/>
<stop offset="0.752002" stop-color="#063EBA"/>
</linearGradient>
</defs>
</svg>
