<svg width="1424" height="324" viewBox="0 0 1424 324" fill="none" xmlns="http://www.w3.org/2000/svg">
<path fill-rule="evenodd" clip-rule="evenodd" d="M0 62.5978V107.274C100.58 107.274 201.159 107.274 301.741 107.274H270.651C304.992 107.274 329.17 86.8272 329.17 57.9759L331 13.2997C238.345 13.2997 145.69 13.2997 53.0329 13.2997C38.1878 13.2997 25.6601 20.0922 15.9661 28.2895C5.64397 37.0197 0 45.7666 0 62.5978Z" fill="url(#paint0_linear_518_167)"/>
<path fill-rule="evenodd" clip-rule="evenodd" d="M0.972656 213.572H220.42C247.91 213.572 271.624 192.247 271.624 168.896V121.139H0.973068V213.572H0.972656Z" fill="url(#paint1_linear_518_167)"/>
<path fill-rule="evenodd" clip-rule="evenodd" d="M0 278.277C0 291.705 10.0609 303.575 20.5196 311.83C39.1059 326.501 81.6353 322.953 111.552 322.953V273.655C111.552 249.771 86.8708 228.979 58.5193 228.979H0V278.277V278.277Z" fill="url(#paint2_linear_518_167)"/>
<path d="M360.056 168V16.1557H499.247V38.9323H383.044V80.6895H476.47V103.466H383.044V168H360.056ZM511.406 168V16.1557H534.183V168H511.406ZM557.564 168V16.1557H681.781C686.843 16.1557 691.482 17.421 695.7 19.9518C699.918 22.3419 703.222 25.6459 705.612 29.8638C708.143 33.9411 709.408 38.5105 709.408 43.572V140.584C709.408 145.645 708.143 150.285 705.612 154.503C703.222 158.58 699.918 161.884 695.7 164.415C691.482 166.805 686.843 168 681.781 168H557.564ZM585.402 145.223H681.359C682.765 145.223 683.96 144.731 684.945 143.747C685.929 142.622 686.421 141.357 686.421 139.951V44.2047C686.421 42.7987 685.929 41.6037 684.945 40.6195C683.96 39.4947 682.765 38.9323 681.359 38.9323H585.402C583.996 38.9323 582.801 39.4947 581.817 40.6195C580.833 41.6037 580.341 42.7987 580.341 44.2047V139.951C580.341 141.357 580.833 142.622 581.817 143.747C582.801 144.731 583.996 145.223 585.402 145.223ZM733.447 168V16.1557H872.638V38.9323H756.435V80.6895H849.861V103.466H756.435V145.223H872.638V168H733.447ZM894.703 168V15.9448H917.479V145.223H1046.55V168H894.703ZM1058.21 168V16.1557H1080.99V168H1058.21ZM1162.33 168V38.9323H1097.79V16.1557H1249.64V38.9323H1185.1V168H1162.33ZM1327.2 168V111.058L1257.19 16.1557H1283.97L1338.59 85.1183L1393 16.1557H1420L1349.98 111.058V168H1327.2Z" fill="white"/>
<path d="M351.474 313C348.54 313 345.828 312.289 343.338 310.866C340.938 309.443 339.026 307.532 337.603 305.131C336.18 302.641 335.469 299.929 335.469 296.995V232.973C335.469 230.039 336.18 227.372 337.603 224.971C339.026 222.481 340.938 220.525 343.338 219.102C345.828 217.68 348.54 216.968 351.474 216.968H431.234V227.772H351.474C350.052 227.772 348.807 228.305 347.74 229.372C346.762 230.35 346.273 231.551 346.273 232.973V296.995C346.273 298.417 346.762 299.662 347.74 300.729C348.807 301.707 350.052 302.196 351.474 302.196H431.234V313H351.474ZM529.569 313L498.225 275.654H512.363L543.84 312.867V313H529.569ZM448.475 313V217.102H528.502C531.436 217.102 534.104 217.857 536.505 219.369C538.994 220.792 540.95 222.703 542.373 225.104C543.796 227.505 544.507 230.173 544.507 233.107V261.25C544.507 264.184 543.796 266.851 542.373 269.252C540.95 271.653 538.994 273.609 536.505 275.121C534.104 276.543 531.436 277.255 528.502 277.255H459.279V313H448.475ZM464.481 266.318H528.502C529.925 266.318 531.125 265.829 532.103 264.851C533.17 263.873 533.704 262.672 533.704 261.25V233.107C533.704 231.684 533.17 230.484 532.103 229.506C531.125 228.439 529.925 227.905 528.502 227.905H464.481C463.058 227.905 461.813 228.439 460.746 229.506C459.768 230.484 459.279 231.684 459.279 233.107V261.25C459.279 262.672 459.768 263.873 460.746 264.851C461.813 265.829 463.058 266.318 464.481 266.318ZM602.819 313V276.855L558.671 216.968H571.075L608.288 263.917L645.1 216.968H657.771L613.623 276.855V313H602.819ZM672.664 313V217.102H752.691C755.625 217.102 758.293 217.857 760.693 219.369C763.183 220.792 765.139 222.703 766.562 225.104C767.985 227.505 768.696 230.173 768.696 233.107V261.25C768.696 264.184 767.985 266.851 766.562 269.252C765.139 271.653 763.183 273.609 760.693 275.121C758.293 276.543 755.625 277.255 752.691 277.255H683.468V313H672.664ZM688.67 266.318H752.691C754.114 266.318 755.314 265.829 756.292 264.851C757.359 263.873 757.893 262.672 757.893 261.25V233.107C757.893 231.684 757.359 230.484 756.292 229.506C755.314 228.439 754.114 227.905 752.691 227.905H688.67C687.247 227.905 686.002 228.439 684.935 229.506C683.957 230.484 683.468 231.684 683.468 233.107V261.25C683.468 262.672 683.957 263.873 684.935 264.851C686.002 265.829 687.247 266.318 688.67 266.318ZM819.382 313V227.772H776.701V216.968H872.733V227.772H830.185V313H819.382ZM901.781 313C898.847 313 896.134 312.289 893.645 310.866C891.244 309.443 889.332 307.532 887.91 305.131C886.487 302.641 885.776 299.929 885.776 296.995V232.973C885.776 230.039 886.487 227.372 887.91 224.971C889.332 222.481 891.244 220.525 893.645 219.102C896.134 217.68 898.847 216.968 901.781 216.968H965.802C968.736 216.968 971.404 217.68 973.805 219.102C976.294 220.525 978.251 222.481 979.673 224.971C981.096 227.372 981.807 230.039 981.807 232.973V296.995C981.807 299.929 981.096 302.641 979.673 305.131C978.251 307.532 976.294 309.443 973.805 310.866C971.404 312.289 968.736 313 965.802 313H901.781ZM901.781 302.196H965.802C967.225 302.196 968.425 301.707 969.403 300.729C970.47 299.662 971.004 298.417 971.004 296.995V232.973C971.004 231.551 970.47 230.35 969.403 229.372C968.425 228.305 967.225 227.772 965.802 227.772H901.781C900.358 227.772 899.113 228.305 898.046 229.372C897.068 230.35 896.579 231.551 896.579 232.973V296.995C896.579 298.417 897.068 299.662 898.046 300.729C899.113 301.707 900.358 302.196 901.781 302.196ZM1039.5 313V217.102H1119.53C1122.47 217.102 1125.13 217.857 1127.53 219.369C1130.02 220.792 1131.98 222.703 1133.4 225.104C1134.83 227.505 1135.54 230.173 1135.54 233.107V261.25C1135.54 264.184 1134.83 266.851 1133.4 269.252C1131.98 271.653 1130.02 273.609 1127.53 275.121C1125.13 276.543 1122.47 277.255 1119.53 277.255H1050.31V313H1039.5ZM1055.51 266.318H1119.53C1120.95 266.318 1122.15 265.829 1123.13 264.851C1124.2 263.873 1124.73 262.672 1124.73 261.25V233.107C1124.73 231.684 1124.2 230.484 1123.13 229.506C1122.15 228.439 1120.95 227.905 1119.53 227.905H1055.51C1054.09 227.905 1052.84 228.439 1051.78 229.506C1050.8 230.484 1050.31 231.684 1050.31 233.107V261.25C1050.31 262.672 1050.8 263.873 1051.78 264.851C1052.84 265.829 1054.09 266.318 1055.51 266.318ZM1229.44 313L1198.09 275.654H1212.23L1243.71 312.867V313H1229.44ZM1148.34 313V217.102H1228.37C1231.3 217.102 1233.97 217.857 1236.37 219.369C1238.86 220.792 1240.82 222.703 1242.24 225.104C1243.66 227.505 1244.37 230.173 1244.37 233.107V261.25C1244.37 264.184 1243.66 266.851 1242.24 269.252C1240.82 271.653 1238.86 273.609 1236.37 275.121C1233.97 276.543 1231.3 277.255 1228.37 277.255H1159.15V313H1148.34ZM1164.35 266.318H1228.37C1229.79 266.318 1230.99 265.829 1231.97 264.851C1233.04 263.873 1233.57 262.672 1233.57 261.25V233.107C1233.57 231.684 1233.04 230.484 1231.97 229.506C1230.99 228.439 1229.79 227.905 1228.37 227.905H1164.35C1162.93 227.905 1161.68 228.439 1160.61 229.506C1159.64 230.484 1159.15 231.684 1159.15 233.107V261.25C1159.15 262.672 1159.64 263.873 1160.61 264.851C1161.68 265.829 1162.93 266.318 1164.35 266.318ZM1277.48 313C1274.54 313 1271.83 312.289 1269.34 310.866C1266.94 309.443 1265.03 307.532 1263.61 305.131C1262.18 302.641 1261.47 299.929 1261.47 296.995V232.973C1261.47 230.039 1262.18 227.372 1263.61 224.971C1265.03 222.481 1266.94 220.525 1269.34 219.102C1271.83 217.68 1274.54 216.968 1277.48 216.968H1341.5C1344.43 216.968 1347.1 217.68 1349.5 219.102C1351.99 220.525 1353.95 222.481 1355.37 224.971C1356.79 227.372 1357.5 230.039 1357.5 232.973V296.995C1357.5 299.929 1356.79 302.641 1355.37 305.131C1353.95 307.532 1351.99 309.443 1349.5 310.866C1347.1 312.289 1344.43 313 1341.5 313H1277.48ZM1277.48 302.196H1341.5C1342.92 302.196 1344.12 301.707 1345.1 300.729C1346.17 299.662 1346.7 298.417 1346.7 296.995V232.973C1346.7 231.551 1346.17 230.35 1345.1 229.372C1344.12 228.305 1342.92 227.772 1341.5 227.772H1277.48C1276.06 227.772 1274.81 228.305 1273.74 229.372C1272.77 230.35 1272.28 231.551 1272.28 232.973V296.995C1272.28 298.417 1272.77 299.662 1273.74 300.729C1274.81 301.707 1276.06 302.196 1277.48 302.196Z" fill="white"/>
<defs>
<linearGradient id="paint0_linear_518_167" x1="56.2804" y1="8.67819" x2="72.4265" y2="129.609" gradientUnits="userSpaceOnUse">
<stop offset="0.229167" stop-color="#20C9FF"/>
<stop offset="0.752002" stop-color="#063EBA"/>
</linearGradient>
<linearGradient id="paint1_linear_518_167" x1="46.9919" y1="116.594" x2="65.9473" y2="234.617" gradientUnits="userSpaceOnUse">
<stop offset="0.229167" stop-color="#20C9FF"/>
<stop offset="0.752002" stop-color="#063EBA"/>
</linearGradient>
<linearGradient id="paint2_linear_518_167" x1="18.9674" y1="224.339" x2="61.4079" y2="331.038" gradientUnits="userSpaceOnUse">
<stop offset="0.229167" stop-color="#20C9FF"/>
<stop offset="0.752002" stop-color="#063EBA"/>
</linearGradient>
</defs>
</svg>
