<svg version="1.2" xmlns="http://www.w3.org/2000/svg" viewBox="0 0 322 322" width="322" height="322"><style>.a{fill:#020201}</style><path class="a" d="m297.8 254.6c-3.8-11.2-10.6-22.6-20.6-29.2-19.3-12.8-41.7-19.6-63.5-26.9-5.2-1.8-10.5-3.8-15.3-6.7-4.3-2.5-5.9-7.7-6.9-12.3-0.4-2.4-0.7-4.9-0.9-7.4 15.8-21.5 26.3-56.7 26.3-85.5 0-45.1-25.5-57.6-56.8-57.6-31.4 0-56.9 12.5-56.9 57.5 0 29.9 11.3 66.6 28 87.8q-0.3 2.6-0.7 5.1c-1 4.6-2.6 9.7-6.9 12.2-4.8 2.9-10.1 4.7-15.3 6.5-21.8 7.3-44.2 13.8-63.5 26.6-10 6.6-16.8 18.7-20.6 29.9-3.8 11.7-5.4 26.2-5.2 37.9h142 142c0.2-11.7-1.4-26.2-5.2-37.9z"/></svg>