<svg version="1.2" xmlns="http://www.w3.org/2000/svg" viewBox="0 0 436 436" width="436" height="436"><defs><linearGradient id="P" gradientUnits="userSpaceOnUse"/><linearGradient id="g1" x1="253.1" y1="335.5" x2="192.1" y2="21.8" href="#P"><stop stop-color="#6d29e5"/><stop offset="1" stop-color="#cfb6fa"/></linearGradient></defs><style>.a{opacity:.9;fill:url(#g1)}.b{fill:#7e57c2}.c{fill:#263238}.d{fill:#455a64}.e{fill:#e0e0e0}.f{fill:#ffbe9d}.g{fill:#eb996e}.h{fill:#fff}</style><path class="a" d="m373.9 63.7c0 0-12.6-57.3-86.9-38-74.2 19.3-113.4 33.5-118.7 102-5.4 68.5-24 79.7-49.3 87-25.4 7.4-23.7-4.5-61.1 6.1-37.3 10.6-59.6 56.5-20 85.3 39.6 28.9 71.7 29.2 129.7 29.4 58.1 0.3 144.9-18.6 210.9-56.5 66-37.9 53.7-111.6 34.3-153.5-19.3-41.9-38.9-61.8-38.9-61.8z"/><path class="b" d="m62.3 278.8c5.2-2.7 11.4-3 17.2-2.1 3.1 0.6 6.3 1.5 8.5 3.8 2.1 2.4 2.5 6.5 0 8.5-1.4 1.2-3.4 1.4-5.3 1.4-4.6-0.1-9.6-0.9-13.2 1.9-2.1 1.5-3.5 4.1-6 4.9-2.4 0.8-5.1-0.7-6.4-2.9q-0.4-0.8-0.7-1.7-0.3-1-0.4-1.9-0.1-1 0-1.9 0.1-1 0.4-1.9 0.2-1.3 0.7-2.5 0.5-1.2 1.3-2.2 0.7-1.1 1.7-1.9 1-0.9 2.2-1.5z"/><path class="b" d="m50.3 255.7c3.2 4.6 9.4 3 12.3 0.3 2.9-2.8 4.1-6.9 5.2-10.7 2.5-8.8 5.1-18 3.2-27q-0.2-1-0.5-2-0.3-1-0.7-1.9-0.5-1-1-1.8-0.6-0.9-1.3-1.7-0.6-0.7-1.5-1.3-0.9-0.6-1.8-0.9-1-0.3-2.1-0.4-1-0.1-2 0.1c-3.1 0.9-5.1 3.9-6.5 6.9q-1.5 3.2-2.7 6.6-1.2 3.4-2 6.8-0.8 3.5-1.2 7.1-0.4 3.5-0.5 7.1c0 4.5 0.6 9.1 3 12.8"/><path class="b" d="m41.5 262.2c3.5-4.1 4.1-10.1 2.6-15.3-1.6-5.1-5-9.5-9.1-13.1q-1.8-1.6-3.7-3-1.9-1.4-3.9-2.6-2.1-1.2-4.2-2.2-2.2-1-4.4-1.8-0.9-0.3-1.8-0.6-0.9-0.2-1.8-0.4-0.9-0.2-1.9-0.2-0.9-0.1-1.8 0-1 0-1.8 0.3-0.9 0.3-1.7 0.8-0.8 0.5-1.5 1.1-0.7 0.7-1.2 1.5c-1.7 3.2 0 7.2 1.7 10.4q1.2 2.1 2.5 4.2 1.2 2.1 2.6 4.1 1.3 2.1 2.7 4.1 1.4 1.9 2.9 3.8c3.2 4.2 6.9 8.2 11.7 10 4.9 1.9 10 1.7 12.6-1.6"/><path class="c" d="m50.1 324.6q0-0.2 0.1-0.5 0-0.2 0.1-0.5 0-0.3 0-0.5 0-0.3 0-0.5 0.3-2.3 0.6-5.7 0.1-1.1 0.2-2.1 0.2-1 0.3-2.1 0.2-1 0.4-2.1 0.2-1 0.4-2 0.2-1.3 0.6-2.5 0.3-1.3 0.7-2.5 0.4-1.2 0.8-2.4 0.4-1.2 0.9-2.4 0.4-1.2 1-2.4 0.5-1.1 1.2-2.3 0.6-1.1 1.3-2.1 0.7-1.1 1.5-2.1 0.6-0.8 1.3-1.6 0.7-0.7 1.5-1.4 0.8-0.7 1.7-1.2 0.9-0.6 1.8-1.1 0.6-0.3 1.3-0.5 0.7-0.3 1.3-0.5 0.7-0.2 1.4-0.4 0.7-0.1 1.4-0.2 0.2 0 0.5 0 0.3-0.1 0.5-0.1 0.3 0 0.5-0.1 0.3 0 0.5-0.1-0.2 0-0.5 0-0.2-0.1-0.5-0.1-0.3 0-0.5 0.1-0.3 0-0.6 0-0.7 0.1-1.4 0.2-0.7 0.1-1.4 0.3-0.7 0.2-1.4 0.4-0.7 0.2-1.3 0.5-1 0.5-1.9 1.1-0.9 0.5-1.8 1.2-0.8 0.7-1.6 1.4-0.7 0.8-1.4 1.6-0.8 1.1-1.6 2.2-0.7 1.1-1.3 2.2-0.7 1.1-1.3 2.3-0.5 1.2-1 2.4-0.5 1.2-0.9 2.5-0.4 1.2-0.8 2.4-0.4 1.3-0.7 2.6-0.3 1.2-0.6 2.5-0.2 1.1-0.4 2.1-0.1 1.1-0.3 2.1-0.1 1.1-0.2 2.1-0.1 1.1-0.2 2.1c-0.2 2.4-0.3 4.4-0.3 5.7q0 0.3 0 0.5 0 0.3 0 0.5 0 0.3 0 0.5 0 0.3 0.1 0.5z"/><path class="c" d="m50.4 320.3q0.1-0.2 0.1-0.3 0-0.1 0-0.2 0-0.2 0-0.3 0-0.1-0.1-0.2v-2.8c0-2.4 0-5.8 0.2-10.1 0.2-8.6 1-17.8 2.3-30.7 1.4-12.2 3.2-26.4 5.1-35.6 0.4-2.1 0.8-4 1.2-5.7 0.4-1.6 0.7-3.1 1-4.2 0.3-1.2 0.5-2 0.6-2.7q0.1-0.1 0.1-0.2 0-0.2 0.1-0.3 0-0.1 0-0.2 0-0.2 0-0.3 0 0.1-0.1 0.2 0 0.1-0.1 0.2 0 0.2-0.1 0.3 0 0.1 0 0.2-0.3 1-0.8 2.6c-0.4 1.1-0.7 2.6-1.2 4.3-0.4 1.6-0.8 3.5-1.3 5.6q-0.9 4.1-1.6 8.2-0.8 4.1-1.5 8.2-0.7 4.1-1.2 8.3-0.6 4.1-1 8.3c-1.4 13-2.1 24.8-2.1 33.4 0 4.3 0 7.7 0.1 10.1 0.1 1.1 0.1 2 0.2 2.8q0 0.1 0 0.2 0 0.2 0 0.3 0.1 0.2 0.1 0.3 0 0.1 0 0.3z"/><path class="c" d="m50.5 297.4q0-0.3 0-0.7 0.1-0.3 0.1-0.7 0-0.4-0.1-0.7 0-0.4 0-0.7-0.1-1-0.1-2-0.1-1-0.2-1.9-0.2-1-0.3-2-0.1-1-0.3-1.9-0.2-1.5-0.5-2.9-0.3-1.4-0.6-2.8-0.3-1.5-0.7-2.9-0.3-1.4-0.7-2.8-0.5-1.7-1-3.4-0.5-1.7-1.1-3.4-0.6-1.7-1.3-3.3-0.7-1.7-1.4-3.3-1.2-3-2.7-5.9-1.5-2.9-3.3-5.6-1.8-2.7-3.8-5.3-2-2.6-4.2-4.9-0.4-0.4-0.8-0.8-0.4-0.4-0.8-0.8-0.4-0.4-0.8-0.8-0.4-0.3-0.9-0.7c-0.5-0.4-0.9-0.8-1.4-1.2l-1.3-0.8q-0.2-0.3-0.5-0.5-0.3-0.2-0.6-0.4-0.3-0.2-0.6-0.4-0.3-0.2-0.6-0.3c-0.1 0.1 3.4 2.3 7.9 7q2.2 2.4 4.1 5 1.9 2.6 3.7 5.3 1.7 2.7 3.1 5.6 1.5 2.8 2.7 5.8 0.7 1.6 1.4 3.3 0.6 1.6 1.2 3.3 0.6 1.6 1.2 3.3 0.5 1.7 1 3.4c1.2 4.2 2.1 8 2.7 11.3 0.6 3.2 0.9 5.9 1.1 7.7q0.1 0.4 0.1 0.7 0 0.4 0.1 0.7 0 0.4 0.1 0.7 0 0.4 0.1 0.7z"/><path class="c" d="m28.4 337.7l2.3 31.3h40.3l2.3-31.3h-44.9z"/><path class="c" d="m24.6 325.4h53.5v12.3h-53.5z"/><path class="d" d="m24.6 367.8v3.5h2.5 50.1v-3.5h-52.6z"/><path class="d" d="m29.5 377.3l-2.4-6h48.2l-2.9 6h-42.9z"/><path class="e" d="m72.5 348q0 0 0 0.1 0 0-0.1 0 0 0.1 0 0.1 0 0-0.1 0.1-0.2 0.3-0.6 0.8l-2.3 3-0.1 0.1-0.1-0.1-5.8-8h0.3l-5.6 8-0.2 0.2-0.2-0.2-6.7-8h0.4q-0.2 0.2-0.4 0.5l-6 7.5-0.2 0.2-0.2-0.2-5.7-8h0.4c-2.8 3.2-5.2 5.9-7 8l-0.2 0.1v-0.1q-1.4-2.4-2.2-3.7-0.4-0.6-0.6-1 0 0 0-0.1-0.1 0-0.1-0.1 0 0 0-0.1-0.1 0-0.1-0.1c0 0 0.1 0.1 0.3 0.4l0.6 0.9 2.3 3.6h-0.2l6.8-8.1 0.2-0.2 0.2 0.3 5.7 8h-0.4l6-7.6 0.4-0.4 0.2-0.3 0.2 0.2c2.3 2.9 4.6 5.6 6.7 8h-0.4l5.7-8 0.2-0.2 0.1 0.2 5.7 8.1h-0.2l2.4-2.9 0.7-0.8q0.2-0.3 0.2-0.2z"/><path class="d" d="m73.8 337.5c0 0.1-10.1 0.2-22.5 0.2-12.4 0-22.5-0.1-22.5-0.2 0-0.1 10.1-0.3 22.5-0.3 12.5 0 22.5 0.2 22.5 0.3z"/><path class="c" d="m75.9 371.6c0 0.1-11 0.2-24.5 0.2-13.5 0-24.5-0.1-24.5-0.2 0-0.1 11-0.3 24.5-0.3 13.5 0 24.5 0.2 24.5 0.3z"/><path class="d" d="m322.1 245.1h93.5c2 0 4 0.4 5.8 1.2 1.9 0.7 3.5 1.8 4.9 3.2 1.4 1.4 2.5 3.1 3.3 4.9 0.8 1.9 1.2 3.9 1.2 5.8v117.7h-123.8v-117.7c0-1.9 0.4-3.9 1.1-5.7 0.8-1.9 1.9-3.5 3.3-4.9 1.4-1.5 3.1-2.6 4.9-3.3 1.9-0.8 3.8-1.2 5.8-1.2z"/><path class="c" d="m420.3 245.8c0.2 0 0.3 29.5 0.3 66 0 36.4-0.1 66-0.3 66-0.1 0-0.2-29.6-0.2-66 0-36.5 0.1-66 0.2-66z"/><path class="c" d="m364.4 101q4.2 6.1 7.6 12.7 3.3 6.6 5.7 13.6 2.4 7.1 3.8 14.3 1.3 7.3 1.7 14.7c0.6 13.3-1.2 27.5 5.1 39.2 9 16.8 28.6 16.3 34.6 34.4 2.6 7.9-2.2 25.2-3.5 33.5-1.4 9.3 4.3 17.1 2.8 26.4-1.4 8.6-7.8 14.7-15.4 18.7-6.9 3.5-13.2 3.6-20.3 0.7-13.6-5.7-24.9-11.6-34.5-22.6-13.6-15.5-17.7-37-20-57.4q-1.9-17-2.7-34-0.7-17-0.4-34 0.4-17 2-34 1.5-17 4.2-33.8"/><path class="d" d="m393.3 311.1q0.1 0 0.2-0.1 0 0 0.1 0 0 0 0.1 0 0 0 0.1 0c0.3-0.1 0.7-0.2 1.3-0.4q1.5-0.4 3-1 1.5-0.7 2.9-1.6 1.4-0.8 2.6-1.9 1.3-1 2.3-2.3 0.4-0.5 0.8-1 0.3-0.5 0.6-1 0.4-0.5 0.6-1.1 0.3-0.6 0.4-1.2 0.2-0.6 0.4-1.3 0.1-0.7 0.2-1.4 0.1-0.7 0.2-1.4 0.1-0.7 0.1-1.4 0-1.6 0-3.2-0.1-1.6-0.3-3.2-0.1-1.6-0.4-3.1-0.2-1.6-0.6-3.2c-0.9-4.5-2-9.4-2.3-14.6q-0.1-1-0.1-2 0-1 0.1-2 0.1-1.1 0.2-2 0.1-1 0.3-2 0.3-1.1 0.5-2.1 0.3-1 0.6-2 0.4-1 0.7-2 0.4-1 0.8-1.9 0.4-1 0.8-2 0.3-1 0.7-2.1 0.4-1 0.7-2 0.3-1 0.6-2.1 0.3-1 0.6-2.1 0.2-1.1 0.2-2.2 0.1-1.1 0.1-2.2 0-1.1-0.2-2.2-0.1-1-0.4-2.1-0.3-1.1-0.7-2.1-0.5-1-1-2-0.5-0.9-1.1-1.8-0.6-0.9-1.3-1.8-0.7-0.8-1.4-1.6-0.7-0.8-1.4-1.6-0.8-0.7-1.6-1.5c-4.1-3.8-8.6-7-12.4-10.6q-2.6-2.3-4.9-4.9-2.3-2.6-4.3-5.4-2-2.9-3.8-5.9-1.7-3-3.2-6.1-0.6-1.2-1.1-2.5-0.5-1.2-0.9-2.4-0.5-1.3-0.9-2.6-0.4-1.2-0.8-2.5c-0.5-1.5-0.8-3-1.1-4.3-0.4-1.3-0.5-2.5-0.7-3.6-0.3-2.1-0.6-3.8-0.6-5 0-0.5-0.1-1-0.1-1.3-0.1-0.3 0-0.4 0-0.4 0 0 0 0.1 0 0.4 0.1 0.3 0.1 0.8 0.2 1.3 0.1 1.2 0.4 2.9 0.7 5q0.3 1.7 0.7 3.6 0.4 2 1.2 4.2 0.4 1.3 0.8 2.6 0.4 1.2 0.9 2.5 0.5 1.2 1 2.4 0.5 1.2 1.1 2.4 1.4 3.2 3.2 6.1 1.7 3 3.8 5.8 2 2.8 4.3 5.4 2.3 2.5 4.8 4.9c3.8 3.5 8.3 6.7 12.5 10.6q0.8 0.7 1.6 1.5 0.7 0.7 1.4 1.5 0.8 0.9 1.4 1.7 0.7 0.9 1.3 1.8 0.7 0.9 1.2 1.9 0.5 1 1 2 0.4 1.1 0.7 2.2 0.3 1.1 0.5 2.2 0.1 1.1 0.1 2.2 0.1 1.1 0 2.3-0.1 1.1-0.3 2.2-0.2 1.1-0.6 2.2c-0.7 2.8-1.8 5.5-2.8 8.1q-0.4 1-0.8 2-0.3 1-0.7 1.9-0.3 1-0.6 2-0.2 1-0.5 2-0.2 1-0.3 2-0.1 1-0.2 2-0.1 1-0.1 2 0 0.9 0.1 1.9c0.2 5.2 1.4 10 2.2 14.6q0.4 1.6 0.6 3.2 0.3 1.6 0.5 3.2 0.1 1.6 0.2 3.2 0 1.6 0 3.2 0 0.8-0.1 1.5-0.1 0.7-0.2 1.4-0.1 0.7-0.3 1.4-0.1 0.6-0.3 1.3-0.2 0.6-0.5 1.2-0.2 0.6-0.6 1.1-0.3 0.6-0.6 1.1-0.4 0.5-0.8 1-0.7 0.8-1.4 1.5-0.7 0.7-1.5 1.3-0.8 0.6-1.7 1.1-0.8 0.6-1.7 1-0.6 0.3-1.2 0.6-0.6 0.3-1.2 0.5-0.6 0.2-1.2 0.4-0.6 0.2-1.2 0.3-0.2 0.1-0.4 0.2-0.2 0-0.5 0-0.2 0.1-0.4 0.1-0.2 0-0.5 0.1z"/><path class="b" d="m207.2 346.8l48-22.8c0 0 18.6-90.7 22.2-97.6 3.5-6.8 18.3-12.7 18.3-12.7l-2.5 122.9-4.4 28.4-67.7 6.4z"/><path class="f" d="m166.2 368.3c-0.3 0-1.6 0.8-0.5 2.9 1.1 2.1 9.3 9.1 11.7 6.7 2.3-2.5-1.3-5.4-1.3-5.4z"/><path class="f" d="m176.4 372.6c0 0 9.9 1.2 13.6 2.7 4.1 1.5 9.1 0.4 12.5-1.8q0.7-0.5 1.4-1 0.7-0.5 1.4-1.1 0.6-0.5 1.3-1.1 0.6-0.6 1.2-1.2l12.5-0.2q1.4-1.5 2.3-3.4 0.8-1.9 1.2-4 0.3-2 0-4.1-0.2-2.1-1-4-0.3-0.6-0.6-1.3-0.3-0.6-0.6-1.2-0.4-0.7-0.8-1.2-0.4-0.6-0.9-1.2c-1.5-1.6-3.8-2.9-7.9-3.6l-14.9 3.2c0 0-23-1.6-27.1 0.3 0 0-5.1 3.1-6.7 4.4-0.6 0.4-2.5 6.3 1.3 9.4 0 0-3.3 2.5-1.5 4.9l0.8 1c0 0-2.2 2.8-1 4.1 1.1 1.2 11 7 14.5 5.6 3.5-1.4 0.6-4.7-1-5.3"/><path class="g" d="m167.1 357.1q0.1 0 0.3 0.1 0.1 0 0.3 0.1 0.1 0 0.3 0.1 0.1 0.1 0.3 0.1c0.7 0.3 1.9 0.7 3.3 1.2q1.1 0.3 2.3 0.7c0.9 0.2 1.8 0.4 2.7 0.7q0.4 0.1 0.8 0.3 0.4 0.1 0.7 0.3 0.3 0.2 0.7 0.5 0.3 0.2 0.5 0.5 0.3 0.3 0.5 0.7 0.3 0.4 0.3 0.9 0.1 0.4 0.1 0.8 0 0.5-0.1 0.9-0.1 0.2-0.3 0.4-0.1 0.2-0.2 0.4-0.2 0.1-0.4 0.3-0.1 0.1-0.4 0.2-0.1 0.1-0.3 0.2-0.2 0.1-0.4 0.1-0.3 0.1-0.5 0.1-0.2 0.1-0.4 0.1-0.4 0-0.8 0-0.4 0-0.8 0-0.4 0-0.7-0.1-0.4 0-0.8-0.1-0.7-0.1-1.3-0.2-0.7-0.2-1.3-0.3-0.6-0.2-1.3-0.4-0.6-0.2-1.2-0.4c-1.4-0.5-2.5-1-3.3-1.3q-0.1-0.1-0.3-0.1-0.1-0.1-0.3-0.2-0.1 0-0.3-0.1-0.1-0.1-0.3-0.2 0.2 0.1 0.4 0.1 0.1 0.1 0.3 0.1 0.1 0.1 0.3 0.1 0.1 0.1 0.3 0.1c0.7 0.3 1.9 0.7 3.3 1.2q0.6 0.2 1.2 0.4 0.6 0.2 1.3 0.3 0.6 0.2 1.2 0.3 0.7 0.1 1.3 0.2 0.4 0.1 0.7 0.1 0.4 0.1 0.8 0.1 0.4 0 0.7 0 0.4 0 0.8 0 0.2 0 0.4-0.1 0.2 0 0.4-0.1 0.1 0 0.3-0.1 0.2-0.1 0.4-0.1 0.1-0.1 0.3-0.2 0.1-0.2 0.3-0.3 0.1-0.1 0.2-0.3 0.1-0.2 0.2-0.3 0.1-0.4 0.1-0.8 0-0.4 0-0.7-0.1-0.4-0.3-0.8-0.1-0.3-0.4-0.6-0.3-0.3-0.5-0.5-0.3-0.2-0.7-0.4-0.3-0.2-0.6-0.4-0.4-0.1-0.7-0.2c-0.9-0.3-1.9-0.5-2.7-0.8q-1.3-0.3-2.3-0.7c-1.4-0.5-2.6-1-3.3-1.3q-0.2-0.1-0.3-0.1-0.1-0.1-0.3-0.2-0.1-0.1-0.3-0.1-0.1-0.1-0.2-0.2z"/><path class="g" d="m167.9 350q0.2 0 0.3 0.1 0.2 0 0.4 0.1 0.1 0.1 0.3 0.1 0.1 0.1 0.2 0.1c0.8 0.3 1.9 0.8 3.3 1.2 1.4 0.5 3.1 1 5 1.5q0.4 0 0.8 0.1 0.4 0.1 0.8 0.3 0.3 0.1 0.7 0.3 0.3 0.2 0.7 0.4 0.1 0.2 0.3 0.4 0.1 0.1 0.2 0.3 0.1 0.2 0.2 0.4 0.1 0.2 0.1 0.4 0 0.3 0 0.5 0 0.2 0 0.4 0 0.3-0.1 0.5 0 0.2-0.1 0.4-0.2 0.4-0.5 0.7-0.3 0.4-0.6 0.7-0.3 0.2-0.7 0.4-0.4 0.3-0.8 0.4-0.4 0.1-0.8 0.2-0.4 0.1-0.8 0.1-0.4 0-0.8 0-0.3 0-0.7-0.1-0.7-0.1-1.3-0.3-0.6-0.1-1.3-0.3-0.6-0.2-1.2-0.4-0.6-0.2-1.2-0.4l-3.4-1.2q-0.1 0-0.3-0.1-0.1 0-0.3-0.1-0.1-0.1-0.3-0.1-0.1-0.1-0.3-0.2 0.2 0.1 0.4 0.1 0.1 0 0.3 0.1 0.1 0 0.3 0.1 0.1 0 0.3 0.1l3.3 1q0.7 0.2 1.3 0.4 0.6 0.2 1.2 0.3 0.6 0.2 1.3 0.4 0.6 0.1 1.2 0.2 0.4 0.1 0.8 0.1 0.4 0 0.7 0 0.4-0.1 0.8-0.1 0.3-0.1 0.7-0.2 0.4-0.2 0.7-0.3 0.4-0.2 0.7-0.5 0.3-0.3 0.5-0.6 0.3-0.3 0.4-0.6 0.2-0.4 0.3-0.8 0-0.3 0-0.7-0.1-0.4-0.3-0.7-0.2-0.4-0.5-0.6-0.3-0.2-0.6-0.4-0.3-0.2-0.7-0.3-0.3-0.2-0.7-0.3-0.3-0.1-0.7-0.1c-1.9-0.5-3.6-1-5-1.6-1.4-0.5-2.5-1-3.3-1.3q-0.1 0-0.3-0.1-0.1-0.1-0.3-0.1-0.1-0.1-0.3-0.2-0.1 0-0.3-0.1z"/><path class="g" d="m172.7 352q-0.1-0.2-0.2-0.5 0-0.2-0.1-0.5-0.1-0.2-0.1-0.5 0-0.2-0.1-0.5-0.1-0.2-0.1-0.5-0.1-0.2-0.2-0.5 0-0.2-0.1-0.5 0-0.2-0.1-0.5 0.2 0.2 0.4 0.4 0.1 0.2 0.2 0.5 0.1 0.2 0.2 0.5 0.1 0.2 0.1 0.5 0.1 0.2 0.2 0.5 0 0.3 0 0.5 0 0.3 0 0.6 0 0.2-0.1 0.5z"/><path class="f" d="m207.3 352.3l-8.8-3.3c0 0-24.2-11.3-24.7-10.7-0.4 0.6-1.7 0.5-1.4 3.5 0.3 2.9 14.4 8.9 14.9 10 0.4 1-0.3 6.2 4.9 9.9 5.3 3.7 9 3.8 9 3.8"/><path class="g" d="m201.2 365.4h-0.2-0.6q-0.3-0.1-0.6-0.1-0.3-0.1-0.5-0.2-0.3 0-0.6-0.1-0.3-0.1-0.6-0.2-1-0.3-2-0.8-1-0.4-1.9-1-0.9-0.5-1.8-1.1-0.9-0.7-1.7-1.4-0.5-0.5-1-1.1-0.5-0.5-0.9-1.2-0.3-0.6-0.6-1.3-0.3-0.7-0.5-1.5-0.1-0.4-0.2-0.8 0-0.4-0.1-0.8-0.1-0.4-0.1-0.8-0.1-0.4-0.1-0.8 0-0.1 0-0.1 0-0.1 0-0.1-0.1-0.1-0.1-0.1 0-0.1 0-0.1 0 0 0-0.1-0.1 0-0.1 0 0-0.1-0.1-0.1 0 0 0-0.1-0.1 0-0.2-0.1-0.1 0-0.2-0.1-0.1 0-0.2-0.1 0-0.1-0.1-0.1-0.8-0.4-1.6-0.9c-2.1-1.1-4.3-2.2-6.6-3.5q-0.4-0.3-0.9-0.5-0.4-0.3-0.8-0.5-0.4-0.3-0.8-0.6-0.5-0.3-0.9-0.6-0.2-0.1-0.4-0.3-0.2-0.1-0.4-0.3-0.2-0.1-0.4-0.3-0.2-0.2-0.3-0.4-0.1-0.1-0.2-0.2-0.1-0.1-0.2-0.2-0.1-0.1-0.2-0.2 0-0.1-0.1-0.2 0-0.1-0.1-0.1 0-0.1 0-0.2-0.1 0-0.1-0.1 0-0.1 0-0.2 0 0 0-0.1 0-0.1 0-0.1 0-0.1 0-0.2 0 0 0-0.1 0-0.3 0-0.5 0-0.3 0-0.6 0.1-0.2 0.2-0.5 0-0.3 0.2-0.5 0-0.1 0.1-0.2 0.1-0.1 0.2-0.2 0.1-0.1 0.2-0.2 0.1-0.1 0.2-0.2 0.1 0 0.1 0 0.1-0.1 0.1-0.1 0.1-0.1 0.1-0.1 0 0 0.1-0.1c0 0 0 0 0-0.1q0.1 0 0.1 0 0 0 0 0 0.1 0 0.1 0 0 0 0 0 0 0 0.1 0 0 0 0 0 0 0 0 0 0.1 0 0.1 0l0.3 0.1c1.3 0.4 2.5 0.9 3.7 1.4q3.6 1.5 6.9 3c4.3 2 8.2 3.8 11.5 5.3 0.8 0.4 1.6 0.8 2.3 1.1l2.2 0.8 3.4 1.4 2.2 0.9 0.5 0.2c0.1 0 0.2 0.1 0.2 0.1q0 0-0.2-0.1l-0.6-0.2-2.2-0.8-3.4-1.2-2.2-0.8c-0.7-0.3-1.5-0.7-2.3-1.1l-11.6-5.2q-3.3-1.5-6.9-3c-1.2-0.5-2.4-1-3.7-1.4l-0.2-0.1h-0.1c0 0 0 0 0-0.1 0.3 0.2 0.1 0.1 0.2 0.1q-0.1 0.1-0.1 0.1-0.1 0.1-0.1 0.1-0.1 0.1-0.1 0.1-0.1 0.1-0.2 0.1 0 0.1-0.1 0.2-0.1 0-0.2 0.1-0.1 0.1-0.2 0.2 0 0.1-0.1 0.2-0.1 0.2-0.2 0.4-0.1 0.3-0.1 0.5 0 0.2-0.1 0.5 0 0.2 0.1 0.5 0 0.1 0 0.2 0 0.1 0 0.2 0 0.1 0.1 0.2 0 0.2 0.1 0.3 0 0.1 0.1 0.2 0.1 0.1 0.2 0.2 0 0.1 0.1 0.1 0.1 0.1 0.2 0.2 0.2 0.2 0.3 0.4 0.2 0.1 0.4 0.3 0.2 0.1 0.4 0.3 0.2 0.1 0.4 0.3c1.1 0.8 2.2 1.4 3.3 2.1 2.3 1.3 4.5 2.4 6.6 3.6 0.6 0.3 1 0.5 1.6 0.8q0.1 0.1 0.2 0.2 0.1 0 0.2 0.1 0.1 0 0.1 0.1 0.1 0.1 0.2 0.1 0.1 0.1 0.1 0.1 0.1 0.1 0.1 0.1 0.1 0.1 0.1 0.1 0 0.1 0.1 0.1 0 0.1 0 0.1 0 0.1 0 0.1 0 0.1 0.1 0.2 0 0 0 0.1 0 0.4 0.1 0.8 0 0.4 0.1 0.8 0 0.4 0.1 0.8 0.1 0.4 0.2 0.8 0.1 0.7 0.4 1.4 0.3 0.7 0.6 1.3 0.4 0.6 0.8 1.2 0.5 0.6 1 1.1 0.8 0.7 1.7 1.3 0.8 0.7 1.8 1.2 0.9 0.6 1.8 1 1 0.5 2 0.8 0.3 0.1 0.5 0.2 0.3 0.1 0.6 0.2 0.3 0.1 0.6 0.1 0.2 0.1 0.5 0.1 0.4 0.1 0.6 0.1z"/><path class="g" d="m174.4 366.6q0.2 0 0.3 0 0.1 0 0.2 0.1 0.1 0 0.2 0 0.2 0.1 0.3 0.1 0.3 0.2 0.6 0.3 0.3 0.1 0.6 0.3 0.2 0.2 0.5 0.4 0.3 0.1 0.6 0.3 0.1 0.2 0.3 0.3 0.2 0.2 0.4 0.4 0.1 0.1 0.3 0.3 0.1 0.2 0.3 0.3 0.2 0.2 0.3 0.5 0.1 0.2 0.2 0.5 0.1 0.2 0.2 0.5 0 0.3 0 0.5-0.1 0.4-0.2 0.6-0.2 0.3-0.4 0.5-0.2 0.3-0.5 0.4-0.2 0.2-0.5 0.3-0.3 0.1-0.7 0.1-0.3 0.1-0.6 0-0.3 0-0.6 0-0.4-0.1-0.7-0.2-1-0.3-2-0.7-1.1-0.3-2.1-0.7-1-0.4-2-0.9-1-0.4-1.9-0.9-0.3-0.2-0.6-0.3-0.3-0.2-0.6-0.4-0.3-0.1-0.5-0.3-0.3-0.2-0.6-0.4-0.1 0-0.2-0.1-0.1-0.1-0.2-0.1-0.1-0.1-0.2-0.2-0.1-0.1-0.2-0.1 0.2 0 0.3 0.1 0.1 0 0.2 0.1 0.1 0 0.2 0.1 0.1 0 0.2 0.1c0.5 0.3 1.3 0.7 2.3 1.2q1 0.5 2 0.9 0.9 0.4 1.9 0.8 1 0.4 2.1 0.8 1 0.3 2 0.6 0.3 0.1 0.6 0.2 0.3 0 0.6 0 0.2 0 0.5 0 0.3 0 0.6-0.1 0.3-0.1 0.5-0.2 0.2-0.1 0.4-0.3 0.2-0.2 0.3-0.4 0.1-0.3 0.2-0.5 0-0.3 0-0.5-0.1-0.2-0.1-0.5-0.1-0.2-0.2-0.4-0.2-0.2-0.3-0.4-0.1-0.2-0.3-0.3-0.1-0.2-0.3-0.4-0.2-0.1-0.3-0.3-0.2-0.1-0.4-0.3-0.3-0.2-0.7-0.5-0.3-0.2-0.7-0.4-0.4-0.3-0.8-0.5-0.4-0.2-0.8-0.3z"/><g style="opacity:.3"><path  d="m288.5 365c-7.9-26.5-14.8-60.7-22.7-87.2-2.9 24.5 0.7 56.8 5.2 81 0.6 2.9 0.8 5.7 3 7.5z"/></g><path class="c" d="m275.6 346.8c-0.1 0-0.4-1.7-1.5-4.4q-0.2-0.6-0.5-1.1-0.3-0.6-0.5-1.2-0.3-0.5-0.6-1.1-0.3-0.5-0.7-1-0.4-0.7-0.8-1.3-0.4-0.6-0.9-1.3-0.5-0.6-0.9-1.1-0.5-0.6-1.1-1.2-0.5-0.6-1-1.1-0.6-0.5-1.1-1-0.6-0.5-1.2-1-0.6-0.5-1.2-1-0.5-0.3-1.1-0.7-0.5-0.3-1-0.6-0.6-0.4-1.1-0.7-0.5-0.3-1.1-0.5c-2.6-1.3-4.3-1.8-4.3-1.9q0.2 0.1 0.4 0.1 0.1 0 0.3 0.1 0.1 0 0.3 0 0.1 0.1 0.3 0.1 0.1 0.1 0.3 0.1 0.2 0.1 0.4 0.1 0.1 0.1 0.3 0.2 0.2 0 0.3 0.1 0.3 0.1 0.5 0.2 0.2 0.1 0.5 0.1 0.2 0.1 0.4 0.2 0.2 0.1 0.4 0.2 0.6 0.3 1.2 0.6 0.6 0.3 1.1 0.6 0.6 0.3 1.1 0.7 0.5 0.3 1 0.7 0.7 0.4 1.3 0.9 0.6 0.5 1.2 1 0.6 0.5 1.1 1 0.6 0.6 1.1 1.1 0.6 0.6 1.1 1.2 0.5 0.6 0.9 1.3 0.5 0.6 0.9 1.2 0.5 0.7 0.9 1.3 0.3 0.6 0.6 1.1 0.3 0.6 0.6 1.2 0.2 0.5 0.5 1.1 0.2 0.6 0.4 1.2c0.3 0.7 0.5 1.3 0.6 1.9q0.1 0.1 0.2 0.3 0 0.2 0.1 0.4 0 0.1 0 0.3 0.1 0.2 0.1 0.4 0 0.1 0.1 0.3 0 0.1 0 0.3 0.1 0.1 0.1 0.3 0 0.1 0 0.3z"/><path class="b" d="m290.6 212.5c0 0-25.1 56.2-25.1 66.5 0 10.3 18.8 81.9 18.8 81.9-0.2 2.9-0.9 17.1-0.9 17.1l105.6 0.4 1.6-22.7-8.3-21.6 8.3-61.2c0 0 5.5-35.5 6-45.4 0.6-12.4-41.5-26.8-40.3-28.5l-7.3-9.8-41.6 33.8-8.2-23.8-9.9 9.3z"/><path class="b" d="m359.7 227.4c-11.4 19.4-32.3 54.6-32.3 54.6l-37.5 42.7c0 0-2.4 21.7 2.5 28.4 4.9 6.7 13.3 11.2 13.3 11.2 0 0 9.9 0 22.4-10.5 12.6-10.5 47.3-53.9 47.3-53.9l11.9-14.4c0 0 14.2-34.9 11.5-52.6-1-6.9-3.9-9.7-7.8-12.9-9.8-7.8-24.9-3.4-31.3 7.4z"/><path class="c" d="m391.7 273.4q0 0.1 0 0.1-0.1 0.1-0.1 0.1 0 0.1 0 0.1-0.1 0.1-0.1 0.1-0.2 0.4-0.5 1.1c-0.5 1-1.3 2.5-2.3 4.3-2.1 3.7-5.3 8.9-9.5 15.2q-3.2 4.7-7.1 10.2c-2.6 3.6-5.5 7.3-7.9 11.7-2.4 4.4-4.6 9.1-7.3 13.9q-1 1.8-2.1 3.6-1.1 1.8-2.3 3.6-1.2 1.7-2.5 3.4-1.3 1.7-2.6 3.3-1.4 1.6-2.8 3.1-1.5 1.5-3.1 2.9-1.6 1.5-3.3 2.7-1.7 1.3-3.4 2.4-1.7 1.1-3.5 2-1.7 0.9-3.6 1.6-1.8 0.7-3.7 1.2-1.9 0.6-3.9 0.9-1.7 0.3-3.5 0.4-1.8 0.2-3.6 0.1-1.8-0.1-3.5-0.4-1.8-0.2-3.5-0.7-0.8-0.2-1.6-0.5-0.7-0.2-1.5-0.5-0.7-0.3-1.5-0.7-0.7-0.3-1.4-0.7-0.7-0.4-1.3-0.8-0.7-0.3-1.3-0.8-0.6-0.4-1.2-0.8-0.6-0.5-1.2-1-0.5-0.4-1-0.9-0.5-0.4-0.9-0.9-0.5-0.5-0.9-1-0.5-0.5-0.9-1.1-0.3-0.5-0.7-1-0.3-0.5-0.6-1-0.3-0.5-0.6-1.1-0.3-0.5-0.5-1.1-0.4-0.8-0.7-1.7-0.4-1-0.6-1.9-0.3-0.9-0.4-1.9-0.2-0.9-0.3-1.9-0.1-0.6-0.1-1.2-0.1-0.6-0.1-1.2 0-0.6 0-1.2 0-0.7 0-1.3c0-0.5 0-1 0.1-1.2q0-0.1 0-0.1 0-0.1 0-0.1 0-0.1 0-0.2 0 0 0-0.1 0 0.1 0 0.1 0 0.1 0 0.2 0 0 0 0.1 0 0 0 0.1 0 0.4 0 1.2 0 0.6 0 1.3 0 0.6 0 1.2 0.1 0.6 0.1 1.2 0.1 0.6 0.1 1.2 0.2 0.9 0.3 1.9 0.2 0.9 0.5 1.8 0.3 1 0.6 1.9 0.3 0.9 0.7 1.7 0.3 0.6 0.5 1.1 0.3 0.5 0.6 1 0.3 0.5 0.7 1 0.3 0.5 0.7 1 0.4 0.5 0.8 1.1 0.4 0.5 0.9 0.9 0.5 0.5 1 1 0.5 0.4 1 0.9 0.5 0.4 1.1 0.9 0.6 0.4 1.2 0.8 0.6 0.4 1.3 0.8 0.6 0.4 1.3 0.7 0.7 0.4 1.4 0.8 0.7 0.3 1.4 0.6 0.8 0.3 1.5 0.5 0.8 0.3 1.6 0.5 1.7 0.4 3.4 0.7 1.8 0.3 3.5 0.3 1.8 0.1 3.6 0 1.7-0.1 3.5-0.5 1.9-0.3 3.8-0.8 1.8-0.5 3.7-1.3 1.8-0.7 3.5-1.5 1.7-0.9 3.4-2 1.8-1.1 3.4-2.4 1.7-1.3 3.3-2.6 1.5-1.4 3-2.9 1.5-1.5 2.8-3.2 1.3-1.6 2.6-3.2 1.3-1.7 2.5-3.4 1.2-1.8 2.3-3.5 1.1-1.8 2.1-3.7c2.6-4.7 4.8-9.5 7.3-13.8q0.9-1.6 1.8-3.1 1-1.4 2-2.9 1-1.5 2.1-2.9 1-1.5 2.1-2.9c2.6-3.6 5-7 7.1-10.1 4.2-6.2 7.5-11.4 9.6-15.1q1.6-2.7 2.4-4.2l0.6-1.1q0-0.1 0-0.1 0-0.1 0.1-0.1 0-0.1 0-0.1 0.1-0.1 0.1-0.1z"/><path class="c" d="m288 322.8c0 0.1-0.5 0.4-1.2 1.2q-0.7 0.7-1.1 1.6-0.4 1-0.5 2-0.1 1 0.1 1.9 0.3 1 0.8 1.9c0.5 0.8 1 1.3 1 1.3 0 0.1-0.6-0.3-1.3-1.1q-0.6-0.9-0.9-2-0.3-1-0.2-2.1 0.1-1.1 0.6-2 0.4-1 1.2-1.8 0.2-0.1 0.4-0.3 0.1-0.1 0.3-0.2 0.2-0.1 0.4-0.2 0.2-0.1 0.4-0.2z"/><path class="c" d="m294.9 334.2q0.1 0 0.2 0 0.1 0 0.1 0 0.1 0 0.2 0.1 0 0 0.1 0l0.7 0.2 1 0.2q0.8 0.1 1.6 0.1 0.8 0 1.5-0.1 0.8 0 1.6-0.2 0.8-0.2 1.5-0.4 1.1-0.4 2.2-0.9 1-0.4 2-1 1.1-0.6 2-1.3 0.9-0.7 1.8-1.5 1-1 2-2 1-1 1.9-2.1 1-1.1 1.8-2.2 0.9-1.2 1.7-2.3 0.9-1.2 1.8-2.3 0.9-1.2 1.9-2.2 0.9-1.1 1.9-2.1 1.1-1.1 2.1-2c1.4-1.2 2.7-2.2 3.8-3.3q0.4-0.3 0.8-0.7 0.3-0.4 0.7-0.9 0.3-0.4 0.5-0.9 0.3-0.4 0.5-0.9 0.3-0.7 0.5-1.5 0.1-0.8 0-1.5-0.1-0.8-0.3-1.5-0.3-0.8-0.7-1.4-0.2-0.2-0.4-0.4-0.2-0.2-0.5-0.4-0.2-0.2-0.4-0.3-0.3-0.2-0.5-0.3 0 0.1 0.1 0.1 0.1 0 0.2 0 0 0 0.1 0.1 0.1 0 0.1 0 0.2 0.1 0.4 0.2 0.2 0.1 0.4 0.3 0.2 0.1 0.3 0.2 0.2 0.2 0.3 0.4 0.5 0.6 0.8 1.4 0.3 0.7 0.4 1.6 0.1 0.8 0 1.6-0.1 0.8-0.4 1.5-0.2 0.5-0.5 1-0.3 0.5-0.6 1-0.3 0.4-0.7 0.8-0.3 0.5-0.8 0.8c-1.1 1.2-2.4 2.2-3.8 3.3q-1 1-2 2-1 1-2 2.1-0.9 1.1-1.8 2.2-0.9 1.1-1.7 2.3-0.9 1.2-1.8 2.3-0.9 1.1-1.8 2.2-0.9 1.1-1.9 2.2-1 1-2.1 2-0.9 0.8-1.8 1.5-1 0.7-2 1.2-1.1 0.6-2.1 1.1-1.1 0.5-2.3 0.8-0.7 0.3-1.5 0.4-0.8 0.2-1.6 0.2-0.8 0.1-1.6 0.1-0.8-0.1-1.6-0.2l-1-0.3q-0.4-0.1-0.7-0.2 0 0-0.1 0-0.1-0.1-0.2-0.1-0.1 0-0.1-0.1-0.1 0-0.2 0z"/><path class="c" d="m364.8 221.5q0 0.1-0.1 0.2 0 0-0.1 0.1 0 0.1-0.1 0.2 0 0-0.1 0.1c-0.3 0.4-0.7 1-1.3 1.7-1.1 1.4-2.7 3.5-4.6 6.2q-1.8 2.6-3.6 5.2-1.7 2.7-3.4 5.4-1.7 2.7-3.3 5.5-1.5 2.7-3 5.5c-4.8 8.8-8.7 16.9-11.6 22.7-1.5 2.9-2.7 5.3-3.6 6.9l-1 1.8q0 0.1-0.1 0.2 0 0-0.1 0.1 0 0.1-0.1 0.2 0 0-0.1 0.1 0-0.1 0.1-0.2 0 0 0-0.1 0.1-0.1 0.1-0.2 0.1-0.1 0.1-0.2l0.9-1.8 3.5-7c2.9-5.8 6.7-14 11.4-22.7q1.5-2.8 3.1-5.6 1.6-2.8 3.3-5.5 1.7-2.7 3.5-5.3 1.8-2.7 3.6-5.3c2-2.6 3.6-4.7 4.8-6.1l1.4-1.6q0 0 0.1-0.1 0-0.1 0.1-0.1 0-0.1 0.1-0.2 0.1 0 0.1-0.1z"/><g style="opacity:.3"><path  d="m286.8 332.4c4.9 2.7 10.2 2.4 15.7 1.3q2-0.4 4-1.1 1.9-0.8 3.7-1.8 1.8-1.1 3.4-2.5 1.5-1.3 2.9-2.9-0.3 1.8-0.9 3.5-0.6 1.7-1.4 3.3-0.8 1.7-1.9 3.1-1 1.5-2.3 2.8c-3.5 3.4-8.5 5.4-13.2 4.5-4.8-0.9-9.6-5.3-10-10.2"/></g><g style="opacity:.3"><path  d="m332.9 303.6q1.1 1.8 1.9 3.7 0.8 2 1.2 4 0.4 2.1 0.4 4.2-0.1 2.1-0.5 4.2c4.1-6.3 5.1-14.3 4-21.8-1.1-7.5-4.2-14.5-7.5-21.3 0 0-3.8 6.3-3.8 7-0.2 3.7 1.2 10.5 1.9 14.1q0.7 0.7 1.2 1.5 0.5 0.8 0.8 1.7 0.3 1 0.4 1.9 0 1-0.2 1.9"/></g><g style="opacity:.3"><path  d="m303.3 358.6c10 7.7 24.7 8.1 35.6 1.7 10.4-6.1 16.9-17.1 22.9-27.7 9.2-16.3 20.5-36.5 27.2-54.1 0 0-18.6 25.3-24.2 36.2q-1.4 2.8-2.9 5.5-1.4 2.7-3 5.4-1.6 2.6-3.3 5.2-1.7 2.7-3.4 5.2c-2.7 3.8-5.8 7.3-9.3 10.3-3.6 3-7.5 5.6-11.6 7.6-4.2 2-8.6 3.5-13.2 4.4-4.5 1-9.2 1.3-13.8 1"/></g><path class="c" d="m283.4 378q0 0 0-0.1 0 0 0-0.1 0 0 0 0 0-0.1 0-0.1 0-0.4 0-0.9c0-0.9 0-2 0.1-3.5 0.1-3 0.3-7.3 0.6-12.4v0.1c-1.8-6-3.9-13.3-6.1-21.1-2.9-10.5-5.3-19.9-6.9-26.8-0.9-3.5-1.5-6.3-1.9-8.2q-0.3-1.4-0.4-2.2-0.1-0.1-0.1-0.2 0-0.1 0-0.2 0-0.1 0-0.2-0.1-0.1-0.1-0.2 0.1 0.1 0.1 0.2 0 0 0.1 0.1 0 0.1 0 0.2 0 0.1 0.1 0.2l0.5 2.2c0.5 2 1.2 4.8 2 8.2 1.7 6.8 4.2 16.3 7.1 26.7 2.2 7.9 4.2 15.2 6 21.2-0.3 5.2-0.6 9.4-0.8 12.5q-0.1 2.2-0.2 3.4c0 0.4-0.1 0.7-0.1 0.9q0 0.1 0 0.1 0 0 0 0.1 0 0 0 0 0 0.1 0 0.1z"/><path class="c" d="m389 219.5c0 0-1.1-0.3-2.8-0.8q-0.9-0.2-1.7-0.4-0.9-0.1-1.7-0.2-0.9-0.2-1.8-0.3-0.8 0-1.7-0.1-0.9 0-1.7 0-0.9 0-1.8 0.1-0.9 0.1-1.7 0.2-0.9 0.1-1.7 0.3c-1.8 0.3-2.9 0.6-2.9 0.5q0.1 0 0.2-0.1 0.1 0 0.2-0.1 0 0 0.1 0 0.1-0.1 0.2-0.1 0.3-0.1 0.5-0.2 0.3 0 0.5-0.1 0.3-0.1 0.6-0.2 0.2 0 0.5-0.1 0.8-0.2 1.7-0.3 0.9-0.2 1.8-0.3 0.8-0.1 1.7-0.1 0.9 0 1.8 0 0.9 0 1.8 0.1 0.8 0.1 1.7 0.2 0.9 0.2 1.8 0.4 0.8 0.2 1.7 0.4 0.2 0.1 0.5 0.2 0.2 0.1 0.5 0.2 0.2 0 0.5 0.1 0.2 0.1 0.5 0.2c0.5 0.3 0.7 0.4 0.7 0.5z"/><path class="c" d="m355.6 201q-0.1 0.1-0.1 0.1 0 0.1-0.1 0.2 0 0 0 0.1-0.1 0.1-0.1 0.1l-0.9 1.4c-0.7 1.3-1.8 3-3.2 5.2-2.9 4.4-6.9 10.3-11.7 16.6-3.8 5-7.6 9.6-10.6 13.1l-0.2 0.3-0.2-0.3c-1.4-3.2-2.6-5.8-3.5-7.7q-0.6-1.4-1-2.2 0-0.1 0-0.2-0.1-0.1-0.1-0.2-0.1-0.1-0.1-0.2 0-0.1 0-0.2 0 0.1 0.1 0.2 0 0.1 0.1 0.2 0 0.1 0.1 0.2 0 0.1 0.1 0.2 0.4 0.8 1 2.1c0.9 1.8 2.2 4.5 3.7 7.6h-0.3c3-3.6 6.6-8.2 10.5-13.3 4.8-6.2 8.9-12.1 11.8-16.4l3.4-5.1 0.9-1.3q0-0.1 0.1-0.2 0 0 0.1-0.1 0 0 0.1-0.1 0 0 0.1-0.1z"/><path class="c" d="m379.9 362.3c-0.2 0 0.3-5.2 1-11.6 0.7-6.4 1.4-11.6 1.5-11.6 0.2 0.1-0.3 5.2-1 11.6-0.7 6.4-1.4 11.6-1.5 11.6z"/><path class="c" d="m307.5 360.9q0.2 1.1 0.4 2.2 0.2 1.1 0.3 2.1 0.2 1.1 0.3 2.2 0.1 1.1 0.2 2.2 0.1 1.1 0.3 2.2 0.1 1.1 0.2 2.2 0 1.1 0.1 2.2 0 1.1 0.1 2.2-0.3-1.1-0.4-2.2-0.2-1.1-0.4-2.2-0.1-1-0.2-2.1-0.1-1.1-0.2-2.2-0.2-1.1-0.3-2.2-0.1-1.1-0.2-2.2-0.1-1.1-0.1-2.2-0.1-1.1-0.1-2.2z"/><path class="h" d="m360.9 246.7q-0.1-0.3-0.3-0.5-0.2-0.3-0.5-0.4-0.3-0.1-0.6-0.1-0.3 0.1-0.5 0.2l-0.1 0.1c-0.3 0.3-0.5 0.7-0.4 1.1 0.1 0.4 0.4 0.8 0.8 0.9 0.4 0.2 0.9 0.1 1.2-0.2 0.3-0.3 0.5-0.7 0.4-1.1z"/><path class="h" d="m350.5 221.3q-0.1-0.3-0.3-0.6-0.2-0.2-0.5-0.3-0.3-0.1-0.6-0.1-0.3 0-0.6 0.2v0.1c-0.3 0.2-0.5 0.7-0.4 1.1 0.1 0.4 0.4 0.8 0.8 0.9 0.4 0.1 0.8 0.1 1.2-0.2 0.3-0.3 0.4-0.7 0.4-1.1z"/><path class="h" d="m326.5 241.7q0-0.3-0.2-0.5-0.2-0.2-0.5-0.3-0.3-0.2-0.6-0.1-0.3 0-0.6 0.2h-0.1c-0.3 0.3-0.4 0.7-0.3 1.1 0 0.4 0.3 0.8 0.7 0.9 0.4 0.2 0.9 0.1 1.2-0.2 0.4-0.3 0.5-0.7 0.4-1.1z"/><path class="h" d="m300.7 231.5q-0.1-0.3-0.3-0.6-0.2-0.2-0.5-0.3-0.3-0.1-0.6-0.1-0.3 0-0.6 0.2c-0.3 0.3-0.5 0.8-0.4 1.2 0.1 0.4 0.4 0.8 0.8 0.9 0.4 0.1 0.8 0.1 1.2-0.2 0.3-0.3 0.4-0.7 0.4-1.1z"/><path class="h" d="m296.1 221.3q-0.1-0.3-0.3-0.5-0.2-0.2-0.5-0.4-0.3-0.1-0.6 0-0.3 0-0.5 0.2h-0.1c-0.3 0.3-0.5 0.7-0.4 1.2 0.1 0.4 0.4 0.7 0.8 0.9 0.4 0.1 0.9 0.1 1.2-0.2 0.3-0.3 0.5-0.7 0.4-1.2z"/><path class="h" d="m298.1 209.6q-0.1-0.3-0.3-0.5-0.2-0.2-0.5-0.4-0.3-0.1-0.6 0-0.3 0-0.5 0.2h-0.1c-0.3 0.3-0.5 0.7-0.4 1.1 0.1 0.5 0.4 0.8 0.8 1 0.4 0.1 0.8 0 1.2-0.3 0.3-0.2 0.5-0.6 0.4-1.1z"/><path class="h" d="m283.8 225.7q-0.1-0.3-0.3-0.5-0.2-0.2-0.5-0.4-0.3-0.1-0.6 0-0.3 0-0.6 0.2c-0.4 0.3-0.5 0.7-0.4 1.1 0.1 0.5 0.4 0.8 0.8 1 0.4 0.1 0.8 0 1.1-0.3 0.4-0.2 0.5-0.6 0.5-1.1z"/><path class="h" d="m317 230.4q-0.1-0.3-0.3-0.6-0.2-0.2-0.5-0.3-0.3-0.1-0.6-0.1-0.3 0-0.5 0.2l-0.1 0.1c-0.3 0.2-0.5 0.7-0.4 1.1 0.1 0.4 0.4 0.8 0.8 0.9 0.4 0.1 0.9 0.1 1.2-0.2 0.3-0.3 0.5-0.7 0.4-1.1z"/><path class="h" d="m288.9 251.2q-0.1-0.3-0.3-0.5-0.2-0.2-0.5-0.3-0.3-0.2-0.6-0.1-0.3 0-0.6 0.2h-0.1c-0.3 0.3-0.4 0.7-0.3 1.1 0 0.4 0.3 0.8 0.7 0.9 0.4 0.2 0.9 0.1 1.2-0.2 0.4-0.3 0.5-0.7 0.4-1.1z"/><path class="h" d="m263.1 311.3q0-0.3-0.2-0.6-0.2-0.2-0.5-0.3-0.3-0.1-0.6-0.1-0.3 0-0.6 0.2h-0.1c-0.3 0.3-0.4 0.8-0.3 1.2 0 0.4 0.3 0.7 0.7 0.9 0.4 0.1 0.9 0 1.2-0.2 0.3-0.3 0.5-0.7 0.4-1.1z"/><path class="h" d="m272.3 276.6q-0.1-0.3-0.3-0.5-0.2-0.2-0.5-0.3-0.2-0.2-0.5-0.1-0.4 0-0.6 0.2h-0.1c-0.3 0.3-0.5 0.7-0.4 1.2 0.1 0.4 0.4 0.7 0.8 0.9 0.4 0.1 0.9 0 1.2-0.2 0.3-0.3 0.5-0.7 0.4-1.2z"/><path class="h" d="m340 215.9q-0.1-0.3-0.3-0.6-0.2-0.2-0.5-0.3-0.3-0.1-0.6-0.1-0.3 0-0.5 0.2h-0.1c-0.3 0.3-0.5 0.8-0.4 1.2 0.1 0.4 0.4 0.7 0.8 0.9 0.4 0.1 0.8 0 1.2-0.2 0.3-0.3 0.5-0.7 0.4-1.1z"/><path class="h" d="m372.2 284.8q0-0.3-0.2-0.6-0.2-0.2-0.5-0.3-0.3-0.1-0.6-0.1-0.3 0-0.6 0.2l-0.1 0.1c-0.3 0.3-0.5 0.7-0.4 1.1 0.1 0.4 0.4 0.8 0.8 0.9 0.4 0.2 0.9 0.1 1.2-0.2 0.3-0.3 0.5-0.7 0.4-1.1z"/><path class="h" d="m384.8 225.5q-0.1-0.3-0.3-0.6-0.2-0.2-0.5-0.3-0.2-0.1-0.6-0.1-0.3 0-0.5 0.2h-0.1c-0.3 0.3-0.5 0.8-0.4 1.2 0.1 0.4 0.4 0.7 0.8 0.9 0.4 0.1 0.9 0.1 1.2-0.2 0.3-0.3 0.5-0.7 0.4-1.1z"/><path class="h" d="m379.9 264.3q-0.1-0.3-0.3-0.5-0.2-0.3-0.5-0.4-0.3-0.1-0.6-0.1-0.3 0.1-0.6 0.2v0.1c-0.4 0.3-0.5 0.7-0.4 1.1 0.1 0.5 0.4 0.8 0.8 1 0.4 0.1 0.8 0 1.2-0.2 0.3-0.3 0.4-0.8 0.4-1.2z"/><path class="h" d="m351.7 292.4q-0.1-0.3-0.3-0.6-0.2-0.2-0.5-0.3-0.3-0.1-0.6-0.1-0.3 0-0.6 0.2c-0.4 0.3-0.5 0.8-0.4 1.2 0.1 0.4 0.4 0.8 0.8 0.9 0.4 0.1 0.8 0.1 1.1-0.2 0.4-0.3 0.5-0.7 0.5-1.1z"/><path class="h" d="m352.9 269q-0.1-0.3-0.3-0.5-0.2-0.3-0.5-0.4-0.3-0.1-0.6-0.1-0.3 0.1-0.6 0.2l-0.1 0.1c-0.3 0.3-0.4 0.7-0.4 1.1 0.1 0.5 0.4 0.8 0.8 1 0.4 0.1 0.9 0 1.2-0.3 0.4-0.2 0.5-0.7 0.5-1.1z"/><path class="h" d="m369.9 225.7q-0.1-0.3-0.3-0.6-0.2-0.2-0.5-0.3-0.3-0.1-0.6-0.1-0.3 0-0.6 0.2v0.1c-0.3 0.2-0.5 0.7-0.4 1.1 0.1 0.4 0.4 0.8 0.8 0.9 0.4 0.1 0.8 0.1 1.2-0.2 0.3-0.3 0.4-0.7 0.4-1.1z"/><path class="h" d="m347 203q-0.1-0.3-0.3-0.5-0.2-0.2-0.5-0.3-0.3-0.2-0.6-0.1-0.3 0-0.5 0.2h-0.1c-0.3 0.3-0.5 0.7-0.4 1.2 0.1 0.4 0.4 0.7 0.8 0.9 0.4 0.1 0.8 0 1.2-0.2 0.3-0.3 0.5-0.7 0.4-1.2z"/><path class="h" d="m346.1 239.5q0-0.3-0.2-0.5-0.2-0.3-0.5-0.4-0.3-0.1-0.6-0.1-0.3 0.1-0.6 0.2l-0.1 0.1c-0.3 0.3-0.4 0.7-0.4 1.1 0.1 0.5 0.4 0.8 0.8 0.9 0.4 0.2 0.9 0.1 1.2-0.2 0.3-0.2 0.5-0.7 0.4-1.1z"/><path class="h" d="m316.9 350.8q-0.1-0.3-0.3-0.5-0.2-0.3-0.5-0.4-0.2-0.1-0.5-0.1-0.3 0-0.6 0.2h-0.1c-0.3 0.3-0.4 0.8-0.4 1.2 0.1 0.4 0.4 0.7 0.8 0.9 0.4 0.1 0.9 0.1 1.2-0.2 0.3-0.3 0.5-0.7 0.4-1.1z"/><path class="h" d="m283.3 332.5q0-0.3-0.2-0.6-0.2-0.2-0.5-0.3-0.3-0.1-0.6-0.1-0.3 0-0.6 0.2l-0.1 0.1c-0.3 0.2-0.4 0.7-0.4 1.1 0.1 0.4 0.4 0.8 0.8 0.9 0.4 0.1 0.9 0.1 1.2-0.2 0.3-0.3 0.5-0.7 0.4-1.1z"/><path class="h" d="m256.2 341.4q-0.1-0.3-0.3-0.5-0.2-0.2-0.5-0.3-0.3-0.2-0.6-0.1-0.3 0-0.5 0.2h-0.1c-0.3 0.3-0.5 0.7-0.4 1.2 0.1 0.4 0.4 0.7 0.8 0.9 0.4 0.1 0.9 0 1.2-0.2 0.3-0.3 0.5-0.7 0.4-1.2z"/><path class="h" d="m253.3 356.9q-0.1-0.3-0.3-0.5-0.2-0.3-0.5-0.4-0.3-0.1-0.6-0.1-0.3 0.1-0.5 0.2l-0.1 0.1c-0.3 0.3-0.5 0.7-0.4 1.1 0.1 0.4 0.4 0.8 0.8 0.9 0.4 0.2 0.8 0.1 1.2-0.2 0.3-0.3 0.5-0.7 0.4-1.1z"/><path class="h" d="m278.7 362.1q0-0.3-0.2-0.6-0.2-0.2-0.5-0.3-0.3-0.1-0.6-0.1-0.3 0-0.6 0.2h-0.1c-0.3 0.3-0.4 0.8-0.3 1.2 0 0.4 0.3 0.8 0.7 0.9 0.4 0.1 0.9 0.1 1.2-0.2 0.3-0.3 0.5-0.7 0.4-1.1z"/><path class="h" d="m270.2 327.5q0-0.3-0.2-0.6-0.2-0.2-0.5-0.3-0.3-0.1-0.6-0.1-0.3 0-0.6 0.2h-0.1c-0.3 0.3-0.5 0.8-0.4 1.2 0.1 0.4 0.4 0.8 0.8 0.9 0.4 0.2 0.9 0.1 1.2-0.2 0.3-0.3 0.5-0.7 0.4-1.1z"/><path class="h" d="m301.4 336.3q0-0.3-0.2-0.6-0.2-0.2-0.5-0.3-0.3-0.1-0.6-0.1-0.3 0-0.6 0.2h-0.1c-0.3 0.3-0.4 0.8-0.3 1.2 0 0.4 0.3 0.7 0.7 0.9 0.4 0.1 0.9 0 1.2-0.2 0.3-0.3 0.5-0.7 0.4-1.1z"/><path class="h" d="m375.6 327.4q-0.1-0.3-0.3-0.5-0.2-0.3-0.5-0.4-0.2-0.1-0.6-0.1-0.3 0.1-0.5 0.2l-0.1 0.1c-0.3 0.3-0.5 0.7-0.4 1.1 0.1 0.4 0.4 0.8 0.8 0.9 0.4 0.2 0.9 0.1 1.2-0.2 0.3-0.2 0.5-0.7 0.4-1.1z"/><path class="h" d="m329.7 371.4q-0.1-0.3-0.3-0.6-0.2-0.2-0.5-0.3-0.2-0.1-0.5-0.1-0.4 0-0.6 0.2l-0.1 0.1c-0.3 0.3-0.5 0.7-0.4 1.1 0.1 0.4 0.4 0.8 0.8 0.9 0.4 0.2 0.9 0.1 1.2-0.2 0.3-0.3 0.5-0.7 0.4-1.1z"/><path class="h" d="m349.3 346.9q-0.1-0.3-0.3-0.5-0.2-0.3-0.5-0.4-0.3-0.1-0.6-0.1-0.3 0.1-0.5 0.2l-0.1 0.1c-0.3 0.3-0.5 0.7-0.4 1.1 0.1 0.4 0.4 0.8 0.8 0.9 0.4 0.2 0.8 0.1 1.2-0.2 0.3-0.3 0.5-0.7 0.4-1.1z"/><path class="h" d="m360.9 366.8q0-0.3-0.2-0.5-0.2-0.3-0.5-0.4-0.3-0.1-0.6-0.1-0.3 0-0.6 0.2l-0.1 0.1c-0.3 0.2-0.4 0.7-0.3 1.1 0 0.4 0.3 0.8 0.7 0.9 0.4 0.1 0.9 0.1 1.2-0.2 0.3-0.3 0.5-0.7 0.4-1.1z"/><path class="h" d="m328.6 262.5q-0.1-0.3-0.3-0.5-0.2-0.2-0.5-0.3-0.3-0.1-0.6-0.1-0.3 0-0.6 0.2c-0.4 0.3-0.5 0.8-0.4 1.2 0.1 0.4 0.4 0.7 0.8 0.9 0.4 0.1 0.8 0 1.1-0.2 0.4-0.3 0.5-0.7 0.5-1.2z"/><path class="h" d="m354.9 313.4q-0.1-0.3-0.3-0.6-0.2-0.2-0.5-0.3-0.3-0.1-0.6-0.1-0.3 0-0.5 0.2l-0.1 0.1c-0.3 0.2-0.5 0.7-0.4 1.1 0.1 0.4 0.4 0.8 0.8 0.9 0.4 0.1 0.8 0.1 1.2-0.2 0.3-0.3 0.5-0.7 0.4-1.1z"/><path class="h" d="m346.4 332.6q-0.1-0.3-0.3-0.5-0.2-0.2-0.5-0.4-0.3-0.1-0.6 0-0.3 0-0.6 0.2h-0.1c-0.3 0.3-0.4 0.7-0.3 1.1 0 0.5 0.3 0.8 0.7 1 0.4 0.1 0.9 0 1.2-0.3 0.4-0.2 0.5-0.6 0.5-1.1z"/><path class="h" d="m374.4 348.1q0-0.3-0.2-0.5-0.3-0.3-0.5-0.4-0.3-0.1-0.6-0.1-0.3 0.1-0.6 0.2l-0.1 0.1c-0.3 0.3-0.4 0.7-0.4 1.1 0.1 0.4 0.4 0.8 0.8 0.9 0.4 0.2 0.9 0.1 1.2-0.2 0.3-0.3 0.5-0.7 0.4-1.1z"/><path class="h" d="m297.6 370.4q-0.1-0.3-0.3-0.5-0.2-0.3-0.4-0.4-0.3-0.1-0.6-0.1-0.4 0.1-0.6 0.2l-0.1 0.1c-0.3 0.3-0.5 0.7-0.4 1.1 0.1 0.5 0.4 0.8 0.8 0.9 0.4 0.2 0.9 0.1 1.2-0.2 0.3-0.2 0.5-0.7 0.4-1.1z"/><path class="h" d="m233.6 364.6q-0.1-0.3-0.3-0.6-0.2-0.2-0.5-0.3-0.2-0.1-0.5-0.1-0.4 0-0.6 0.2l-0.1 0.1c-0.3 0.2-0.5 0.7-0.4 1.1 0.1 0.4 0.4 0.8 0.8 0.9 0.4 0.2 0.9 0.1 1.2-0.2 0.3-0.3 0.5-0.7 0.4-1.1z"/><path class="h" d="m290 354.1q-0.1-0.3-0.3-0.6-0.2-0.2-0.5-0.3-0.3-0.1-0.6-0.1-0.3 0-0.5 0.2h-0.1c-0.3 0.3-0.5 0.8-0.4 1.2 0.1 0.4 0.4 0.8 0.8 0.9 0.4 0.2 0.8 0.1 1.2-0.2 0.3-0.3 0.5-0.7 0.4-1.1z"/><path class="h" d="m236 342.6q-0.1-0.3-0.3-0.5-0.2-0.2-0.5-0.4-0.3-0.1-0.6 0-0.3 0-0.5 0.2h-0.1c-0.3 0.3-0.5 0.7-0.4 1.1 0.1 0.5 0.4 0.8 0.8 1 0.4 0.1 0.8 0 1.2-0.3 0.3-0.2 0.5-0.6 0.4-1.1z"/><path class="h" d="m326.2 306.3q-0.1-0.3-0.3-0.5-0.2-0.2-0.5-0.4-0.3-0.1-0.6 0-0.3 0-0.5 0.2h-0.1c-0.3 0.3-0.5 0.7-0.4 1.1 0.1 0.5 0.4 0.8 0.8 1 0.4 0.1 0.8 0 1.2-0.3 0.3-0.2 0.5-0.6 0.4-1.1z"/><path class="h" d="m307.3 251.2q-0.1-0.3-0.3-0.5-0.2-0.2-0.5-0.3-0.2-0.2-0.5-0.1-0.4 0-0.6 0.2h-0.1c-0.3 0.3-0.5 0.7-0.4 1.1 0.1 0.4 0.4 0.8 0.8 0.9 0.4 0.2 0.9 0.1 1.2-0.2 0.3-0.3 0.5-0.7 0.4-1.1z"/><path class="h" d="m302.6 299q-0.1-0.3-0.3-0.5-0.2-0.3-0.5-0.4-0.3-0.1-0.6-0.1-0.3 0.1-0.5 0.2l-0.1 0.1c-0.3 0.3-0.5 0.7-0.4 1.1 0.1 0.4 0.4 0.8 0.8 0.9 0.4 0.2 0.9 0.1 1.2-0.2 0.3-0.3 0.5-0.7 0.4-1.1z"/><path class="h" d="m294.9 283.4q-0.1-0.3-0.3-0.5-0.2-0.2-0.5-0.4-0.2-0.1-0.5 0-0.4 0-0.6 0.2h-0.1c-0.3 0.2-0.4 0.7-0.4 1.1 0.1 0.4 0.4 0.8 0.8 0.9 0.4 0.1 0.9 0.1 1.2-0.2 0.3-0.3 0.5-0.7 0.4-1.1z"/><path class="h" d="m328.9 332.4q-0.1-0.3-0.3-0.5-0.2-0.3-0.5-0.4-0.3-0.1-0.6-0.1-0.3 0.1-0.6 0.2v0.1c-0.3 0.3-0.5 0.7-0.4 1.1 0.1 0.5 0.4 0.8 0.8 1 0.4 0.1 0.8 0 1.2-0.2 0.3-0.3 0.5-0.8 0.4-1.2z"/><path class="h" d="m304.9 322.8q0-0.3-0.2-0.6-0.2-0.2-0.5-0.3-0.3-0.1-0.6-0.1-0.3 0-0.6 0.2l-0.1 0.1c-0.3 0.2-0.4 0.7-0.4 1.1 0.1 0.4 0.4 0.8 0.8 0.9 0.4 0.1 0.9 0.1 1.2-0.2 0.3-0.3 0.5-0.7 0.4-1.1z"/><path class="h" d="m315.2 270q-0.1-0.3-0.3-0.5-0.2-0.2-0.5-0.3-0.3-0.2-0.6-0.1-0.3 0-0.5 0.2h-0.1c-0.3 0.3-0.5 0.7-0.4 1.2 0.1 0.4 0.4 0.7 0.8 0.9 0.4 0.1 0.8 0 1.2-0.2 0.3-0.3 0.5-0.7 0.4-1.2z"/><path class="h" d="m278.7 307.4q0-0.3-0.2-0.5-0.2-0.3-0.5-0.4-0.3-0.1-0.6-0.1-0.3 0.1-0.6 0.2l-0.1 0.1c-0.3 0.3-0.4 0.7-0.3 1.1 0 0.4 0.3 0.8 0.7 0.9 0.4 0.2 0.9 0.1 1.2-0.2 0.3-0.3 0.5-0.7 0.4-1.1z"/><path class="h" d="m335 290.3q-0.1-0.3-0.3-0.6-0.2-0.2-0.5-0.3-0.3-0.1-0.6-0.1-0.3 0-0.5 0.2h-0.1c-0.3 0.3-0.5 0.8-0.4 1.2 0.1 0.4 0.4 0.7 0.8 0.9 0.4 0.1 0.8 0 1.2-0.2 0.3-0.3 0.5-0.7 0.4-1.1z"/><path class="h" d="m387.2 245.5q-0.1-0.3-0.3-0.5-0.2-0.3-0.5-0.4-0.3-0.1-0.6-0.1-0.3 0.1-0.6 0.2v0.1c-0.3 0.3-0.5 0.7-0.4 1.1 0.1 0.4 0.4 0.8 0.8 0.9 0.4 0.2 0.8 0.1 1.2-0.2 0.3-0.3 0.4-0.7 0.4-1.1z"/><path class="h" d="m366 211.6q-0.1-0.3-0.3-0.5-0.2-0.3-0.5-0.4-0.3-0.1-0.6-0.1-0.3 0.1-0.5 0.2l-0.1 0.1c-0.3 0.3-0.5 0.7-0.4 1.1 0.1 0.5 0.4 0.8 0.8 0.9 0.4 0.2 0.8 0.1 1.2-0.2 0.3-0.2 0.5-0.7 0.4-1.1z"/><path class="h" d="m324.9 215.9q0-0.3-0.2-0.6-0.2-0.2-0.5-0.3-0.3-0.1-0.6-0.1-0.3 0-0.6 0.2h-0.1c-0.3 0.3-0.4 0.8-0.4 1.2 0.1 0.4 0.4 0.7 0.8 0.9 0.4 0.1 0.9 0 1.2-0.2 0.3-0.3 0.5-0.7 0.4-1.1z"/><path class="c" d="m283 94.2c-7.8 5-11 15.5-9.5 21.7 0.8 3.2 2.2 6.3 1.6 9.5-0.5 2.7-2.5 4.9-4 7.2-2.5 4-3.6 8.7-3.3 13.3 0.4 4.7 2.3 9.1 5.3 12.7 3.1 3.5 7.2 6 11.8 7 4.5 1 9.3 0.6 13.6-1.3"/><path class="c" d="m278.4 135.2c-19.2-42.1 26.4-63.3 51.3-56.3 23.3 6.6 33.3 18.2 37.2 33.9 3.8 15.6 3.6 32.5-2.5 47.4-3 7.4-8.5 14.8-16.4 15.8"/><path class="f" d="m300.8 238.1c-0.3-20.1-0.5-47.8-0.5-47.7 0 0.1-17.3-2.8-20.9-25.4-1.8-11.2-1.2-29.6-0.3-44.7 0.9-13.5 9.8-30.2 23.3-28.7l42.2 10.6q1.5 0.2 2.8 0.9 1.3 0.6 2.3 1.8 1 1.1 1.5 2.5 0.5 1.4 0.5 2.9l-2.8 87.1"/><path class="c" d="m286.6 134.1q0 0.5 0.2 1.1 0.2 0.5 0.6 0.9 0.4 0.4 0.9 0.6 0.5 0.3 1.1 0.3 0.5 0.1 1.1-0.1 0.5-0.2 0.9-0.5 0.4-0.4 0.7-0.9 0.2-0.5 0.3-1.1 0-0.5-0.2-1-0.2-0.6-0.6-1-0.4-0.4-0.9-0.6-0.5-0.3-1.1-0.3-0.5 0-1 0.1-0.6 0.2-1 0.6-0.4 0.3-0.7 0.8-0.2 0.5-0.3 1.1z"/><path class="c" d="m316.6 134.1q0 0.5 0.2 1.1 0.2 0.5 0.5 0.9 0.4 0.4 0.9 0.6 0.5 0.3 1.1 0.3 0.6 0.1 1.1-0.1 0.5-0.2 0.9-0.5 0.5-0.4 0.7-0.9 0.3-0.5 0.3-1.1 0-0.5-0.2-1-0.2-0.6-0.6-1-0.4-0.4-0.9-0.6-0.5-0.3-1-0.3-0.6 0-1.1 0.1-0.6 0.2-1 0.6-0.4 0.3-0.7 0.8-0.2 0.5-0.2 1.1z"/><path class="c" d="m283.5 128.8c0.4 0.4 2.6-1.1 5.7-1 3.1 0.2 5.4 1.8 5.7 1.4 0.2-0.2-0.2-0.9-1.1-1.6q-0.5-0.4-1-0.7-0.6-0.3-1.2-0.5-0.5-0.2-1.1-0.3-0.6-0.1-1.3-0.1-0.6 0-1.2 0.1-0.6 0-1.1 0.2-0.6 0.2-1.2 0.4-0.5 0.3-1 0.6c-1 0.7-1.4 1.3-1.2 1.5z"/><path class="c" d="m313.1 129.6c0.4 0.3 2.5-1.3 5.7-1.3 3.1 0 5.4 1.5 5.7 1.2 0.2-0.2-0.2-0.9-1.2-1.6q-0.5-0.4-1.1-0.6-0.5-0.3-1.1-0.5-0.6-0.1-1.2-0.2-0.6-0.1-1.2-0.1-0.6 0-1.2 0.1-0.6 0.1-1.2 0.3-0.5 0.2-1.1 0.4-0.5 0.3-1 0.7c-1 0.7-1.3 1.4-1.1 1.6z"/><path class="c" d="m302.4 153.6c0-0.2-1.9-0.6-5-1-0.8 0-1.6-0.2-1.7-0.7q0-0.3 0-0.7 0-0.3 0.1-0.6 0-0.3 0.1-0.5 0.2-0.3 0.3-0.6 1.1-2.9 2.4-6.1c3.2-8.6 5.6-15.7 5.2-15.8-0.3-0.1-3.2 6.7-6.5 15.4l-2.3 6.1q-0.1 0.3-0.3 0.7-0.1 0.4-0.1 0.8-0.1 0.4-0.1 0.8 0 0.4 0.1 0.8 0.1 0.2 0.2 0.4 0.2 0.2 0.4 0.3 0.1 0.2 0.3 0.3 0.2 0.1 0.4 0.2 0.2 0 0.4 0 0.1 0.1 0.3 0.1 0.2 0 0.3 0 0.2 0 0.4 0c3.1 0.2 5.1 0.2 5.1 0.1z"/><path class="g" d="m300.3 190.4q3.9 0.1 7.9-0.4 3.9-0.5 7.7-1.5 3.9-1 7.5-2.6 3.7-1.5 7.1-3.5c2.3-1.4-7.6 15.7-30.2 13.6z"/><path class="c" d="m312.3 125.1c0.3 0.9 3.4 0.5 7.1 0.9 3.6 0.5 6.6 1.4 7.1 0.7 0.2-0.4-0.3-1.2-1.5-2q-1.2-0.8-2.5-1.2-1.3-0.5-2.8-0.6-1.4-0.2-2.8 0-1.4 0.1-2.7 0.6c-1.3 0.6-2 1.2-1.9 1.6z"/><path class="c" d="m284.2 121c0.6 0.7 2.7 0 5.3-0.1 2.6 0 4.8 0.5 5.3-0.2 0.2-0.4-0.1-1.1-1.1-1.8q-0.5-0.3-1-0.5-0.5-0.2-1-0.4-0.6-0.1-1.2-0.2-0.5 0-1.1 0-0.5 0-1.1 0.1-0.6 0.1-1.1 0.3-0.5 0.1-1 0.4-0.5 0.3-1 0.6c-0.9 0.7-1.2 1.4-1 1.8z"/><path class="f" d="m347.8 140c0.3-0.2 12.1-5.4 12.2 8.2 0.2 13.5-13.4 10.8-13.5 10.4 0-0.4 1.3-18.6 1.3-18.6z"/><path class="g" d="m350.6 153.5c0.1 0 0.3 0.1 0.7 0.3q0.2 0.1 0.4 0.1 0.2 0.1 0.4 0.1 0.3 0 0.5-0.1 0.2 0 0.4-0.1c1.4-0.5 2.6-2.8 2.7-5.3q0-0.4-0.1-0.8 0-0.5-0.1-0.9-0.1-0.4-0.2-0.8-0.1-0.4-0.3-0.8-0.1-0.3-0.3-0.6-0.2-0.3-0.4-0.5-0.2-0.3-0.5-0.4-0.3-0.2-0.6-0.3-0.2-0.1-0.4 0-0.2 0-0.4 0.1-0.2 0.1-0.4 0.2-0.1 0.2-0.2 0.3c-0.2 0.4-0.1 0.7-0.2 0.7 0 0-0.3-0.2-0.2-0.8q0.1-0.1 0.1-0.2 0.1-0.1 0.1-0.2 0.1-0.1 0.2-0.2 0.1-0.1 0.2-0.2 0.1-0.1 0.3-0.2 0.1-0.1 0.3-0.1 0.2-0.1 0.3-0.1 0.2 0 0.4 0 0.4 0.1 0.8 0.3 0.4 0.2 0.7 0.4 0.3 0.3 0.6 0.7 0.2 0.3 0.3 0.7 0.3 0.4 0.4 0.9 0.2 0.5 0.3 0.9 0.1 0.5 0.2 1 0 0.5 0 1c-0.1 2.7-1.4 5.2-3.4 5.8q-0.2 0.1-0.5 0.1-0.3 0.1-0.6 0-0.3 0-0.5-0.1-0.3-0.1-0.5-0.3c-0.5-0.3-0.5-0.6-0.5-0.6z"/><path class="c" d="m297.9 84.9c-7.5 3.9-10.6 19.2-7.5 27.1 3.1 7.9 11.5 11.7 19.8 13.6 8.3 1.8 16.4 2 24.5-0.3 0.6 5.5 3.9 11.1 9.2 12.6 7 1.9 14.1-4.6 15.7-11.7 1.6-7.1-0.8-14.5-3.1-21.4"/><path class="c" d="m357.6 133.9c0 0-0.4 0.4-1.1 1q-0.3 0.3-0.7 0.6-0.4 0.4-0.8 0.6-0.4 0.3-0.8 0.6-0.4 0.3-0.8 0.6-0.6 0.4-1.2 0.8-0.7 0.3-1.3 0.7-0.7 0.3-1.4 0.5-0.6 0.3-1.3 0.5-0.9 0.3-1.8 0.4-0.9 0.2-1.8 0.2-0.9-0.1-1.8-0.2-0.9-0.2-1.8-0.5-0.9-0.3-1.6-0.8-0.8-0.5-1.5-1.1-0.7-0.6-1.3-1.3-0.6-0.7-1-1.5-0.4-0.6-0.7-1.3-0.3-0.6-0.6-1.3-0.2-0.7-0.4-1.4-0.2-0.8-0.3-1.5-0.1-0.5-0.1-1-0.1-0.5-0.1-0.9 0-0.5 0-1 0-0.5 0-1 0-0.2 0-0.4 0-0.1 0-0.3 0-0.2 0.1-0.4 0-0.2 0.1-0.3c0.1 0 0 2 0.5 5.2q0.2 0.7 0.4 1.4 0.2 0.7 0.4 1.3 0.3 0.7 0.6 1.3 0.3 0.6 0.6 1.2 0.5 0.8 1 1.4 0.6 0.7 1.2 1.2 0.7 0.6 1.4 1 0.8 0.5 1.5 0.8 0.8 0.3 1.7 0.4 0.8 0.2 1.7 0.2 0.8 0 1.7-0.1 0.8-0.1 1.6-0.4 0.7-0.2 1.4-0.4 0.7-0.3 1.3-0.5 0.7-0.3 1.3-0.7 0.6-0.3 1.2-0.7c2.8-1.7 4.4-3 4.5-2.9z"/><path class="g" d="m303.3 162.2q0.2 0.5 0.4 0.9 0.1 0.4 0.4 0.8 0.2 0.5 0.4 0.9 0.3 0.4 0.5 0.7 0.3 0.4 0.6 0.7 0.4 0.3 0.8 0.6 0.4 0.2 0.8 0.3 0.5 0.2 0.9 0.2 0.5 0 1-0.1 0.5-0.1 0.9-0.3 0.5-0.3 0.8-0.6 0.4-0.4 0.6-0.8 0.3-0.4 0.5-0.8 0.2-0.5 0.3-1 0.1-0.5 0.2-1 0-0.5 0-1c-0.1-1.1-0.6-2.6-1.8-2.7q-0.2 0-0.4 0-0.2 0-0.3 0.1-0.2 0-0.4 0.1-0.2 0-0.3 0.1l-6.3 2.5"/><path class="c" d="m305.8 167.3c0-0.1 1.4 0.4 3.3-0.4q0.4-0.1 0.8-0.3 0.4-0.3 0.7-0.6 0.3-0.3 0.6-0.6 0.3-0.3 0.4-0.7 0.3-0.5 0.4-1 0.1-0.5 0.1-1.1 0-0.5-0.1-1-0.1-0.5-0.3-1 0-0.1-0.1-0.2 0-0.2-0.1-0.3-0.1-0.1-0.2-0.2 0-0.1-0.1-0.2c-0.3-0.3-0.2-0.3-0.5-0.2-0.2 0-0.7 0.2-1 0.3l-1 0.5c-1.3 0.5-2.5 1-3.5 1.4-2 0.7-3.4 1.1-3.4 1-0.1-0.2 1.1-0.8 3.1-1.8q1.5-0.7 3.4-1.6l1-0.4c0.4-0.2 0.7-0.4 1.2-0.5q0.1 0 0.2-0.1 0.1 0 0.2 0 0.1 0 0.3 0 0.1 0.1 0.2 0.1 0.1 0 0.2 0.1 0.1 0 0.2 0.1 0 0.1 0.1 0.2 0.1 0 0.2 0.1 0.5 0.7 0.8 1.4 0.3 0.8 0.3 1.6 0.1 0.8-0.1 1.7-0.1 0.8-0.5 1.5-0.3 0.4-0.6 0.8-0.3 0.4-0.7 0.8-0.5 0.3-0.9 0.5-0.5 0.3-1 0.4-0.3 0.1-0.6 0.2-0.4 0.1-0.7 0.1-0.4 0-0.7 0-0.3-0.1-0.7-0.2c-0.6-0.1-0.9-0.3-0.9-0.4z"/><path class="d" d="m363 130.7c-1.4-0.1-12.6 1.4-11.7 22.1 0.8 19.4 14.4 15.1 18.8 7.8 4.1-6.9 6.4-28.9-7.1-29.9z"/><path class="d" d="m369.9 133.2q0-0.1-0.1-0.2 0 0 0-0.1 0-0.1 0-0.1 0-0.1 0-0.2c0-0.4 0-0.9 0-1.6 0-1.4-0.1-3.4-0.2-5.9-0.1-5.1-0.3-12.1-0.4-20.3l0.2 0.2h-5.7l0.2-0.2c0 1.5 0.1 3.1 0.2 4.8 0.2 7.8 0.3 15 0.5 21.1v0.2h-0.2q-0.9 0.2-1.7 0.5-0.8 0.4-1.6 0.9-0.7 0.5-1.4 1.1-0.7 0.6-1.2 1.3-0.4 0.6-0.8 1.2-0.3 0.6-0.6 1.2-0.3 0.6-0.6 1.3-0.2 0.6-0.4 1.3-0.1 0.4-0.2 0.9-0.1 0.4-0.2 0.9 0 0.4-0.1 0.9-0.1 0.4-0.1 0.9c0 0.4 0 0.7-0.1 0.9q0 0.3 0 0.3 0 0 0-0.1 0 0 0 0 0-0.1 0-0.1 0-0.1 0-0.1 0-0.3 0-1 0.1-0.4 0.1-0.9 0-0.4 0.1-0.9 0.1-0.4 0.2-0.9 0-0.4 0.1-0.9 0.2-0.6 0.4-1.3 0.3-0.7 0.6-1.3 0.2-0.7 0.6-1.3 0.4-0.6 0.8-1.2 0.5-0.8 1.2-1.4 0.7-0.6 1.5-1.1 0.8-0.6 1.6-0.9 0.9-0.4 1.8-0.6l-0.2 0.2c-0.2-6.1-0.4-13.3-0.6-21.1q-0.1-2.5-0.1-4.8v-0.3h6.3v0.2c0 8.2 0.1 15.3 0.2 20.4 0 2.5 0 4.5 0 5.9q0 1 0 1.6 0 0.1 0 0.1 0 0.1 0 0.2-0.1 0.1-0.1 0.1 0 0.1 0 0.2z"/><path class="d" d="m363 104.8c0 0-5.8-13.7-19.8-20.4q-1.9-1-4-1.9-2-0.9-4.1-1.7-2.1-0.7-4.2-1.4-2.2-0.7-4.3-1.2c-1.5-0.4 8.1-1.9 21.2 3.9 6 2.7 12 6.1 16 11.3 2.5 3.3 5.7 9.7 5.7 11.4z"/><path class="h" d="m327 270.2q0 0 0.2-0.2 0.3-0.3 0.8-0.8 0.4-0.4 0.7-0.8 0.4-0.4 0.7-0.8 0.3-0.4 0.7-0.8 0.3-0.4 0.6-0.8 0.5-0.7 1-1.4 0.5-0.6 0.9-1.3 0.5-0.7 0.9-1.5 0.4-0.7 0.8-1.4c1.3-2.3 2.7-5 4.2-7.9 2.9-6 6.3-13.3 9.9-21.6q2.6-6.2 5.3-13.2l1.4-3.5q0.1-0.5 0.3-0.9 0.2-0.5 0.4-0.9 0.2-0.4 0.4-0.9 0.2-0.4 0.5-0.8 0.2-0.5 0.6-0.9 0.3-0.4 0.6-0.7 0.4-0.4 0.8-0.7 0.4-0.3 0.9-0.5 0.2-0.1 0.5-0.2 0.2-0.1 0.5-0.2 0.2 0 0.5-0.1 0.2 0 0.5 0 0.1 0 0.3 0 0.1 0.1 0.2 0.1 0.2 0.1 0.3 0.1 0.1 0.1 0.2 0.2 0.2 0.1 0.3 0.2 0.1 0.1 0.1 0.2 0.1 0.1 0.2 0.2 0.1 0.1 0.1 0.3v0.1q0 0.2-0.1 0.4 0 0.1-0.1 0.3 0 0.2-0.1 0.3-0.1 0.2-0.2 0.3-0.1 0.2-0.3 0.3-0.1 0.2-0.3 0.3-0.1 0.1-0.3 0.2-0.2 0-0.4 0.1-0.3 0-0.7 0-0.4 0-0.7-0.1-0.4 0-0.7-0.1-0.3-0.2-0.7-0.3-0.6-0.4-1.2-0.9-0.5-0.5-0.8-1.1-0.4-0.7-0.5-1.4-0.1-0.8 0.1-1.5 0-0.4 0.2-0.7 0.1-0.4 0.3-0.7 0.3-0.3 0.5-0.6 0.3-0.2 0.6-0.4 0.3-0.2 0.6-0.4 0.4-0.2 0.8-0.3 0.3-0.1 0.7-0.1 0.4-0.1 0.7 0 0.4 0 0.8 0.1 0.4 0.1 0.7 0.3 0.4 0.1 0.7 0.4 0.2 0.3 0.5 0.6 0.1 0.2 0.1 0.4 0.1 0.2 0 0.4 0 0.3 0 0.5-0.1 0.2-0.2 0.3-0.2 0.2-0.3 0.3-0.2 0.2-0.3 0.3-0.2 0.1-0.3 0.2-0.2 0.1-0.4 0.2-0.6 0.2-1.3 0.2-0.7 0.1-1.3-0.1-0.7-0.2-1.2-0.6-0.6-0.4-1-0.9-0.2-0.3-0.3-0.6-0.2-0.3-0.3-0.6-0.1-0.3-0.1-0.7 0-0.3 0-0.6 0.1-0.3 0.2-0.7 0-0.3 0.2-0.6 0.1-0.3 0.3-0.6 0.1-0.2 0.3-0.5 0.3-0.2 0.5-0.4 0.3-0.2 0.6-0.4 0.2-0.2 0.6-0.3 0.3-0.1 0.6-0.1 0.3-0.1 0.7 0 0.3 0 0.6 0.1 0.3 0.1 0.6 0.3 0.3 0.2 0.5 0.4 0.1 0.1 0.2 0.3 0.1 0.1 0.2 0.3 0.1 0.2 0.1 0.3 0 0.2 0 0.4 0 0.2 0 0.3-0.1 0.2-0.1 0.4-0.1 0.1-0.2 0.3-0.1 0.1-0.3 0.2-0.2 0.2-0.5 0.4-0.3 0.2-0.6 0.2-0.3 0.1-0.7 0.1-0.3 0-0.6 0-0.3-0.1-0.6-0.2-0.3-0.2-0.6-0.4-0.2-0.2-0.4-0.4-0.2-0.3-0.4-0.6-0.1-0.2-0.2-0.5-0.1-0.3-0.2-0.6-0.1-0.3-0.2-0.6-0.1-0.3-0.1-0.6-0.1-0.6-0.1-1.2 0-0.6 0-1.2 0.1-0.6 0.3-1.1 0.1-0.6 0.3-1.2 0.2-0.2 0.3-0.5 0.2-0.2 0.4-0.4 0.3-0.3 0.5-0.4 0.3-0.2 0.5-0.3 0.3-0.1 0.6-0.2 0.3 0 0.6 0 0.3 0 0.6 0 0.3 0.1 0.6 0.2 0.3 0.1 0.6 0.3 0.2 0.2 0.4 0.5 0.2 0.2 0.3 0.5 0.2 0.3 0.2 0.6 0 0.3-0.1 0.6-0.1 0.3-0.2 0.6-0.2 0.3-0.4 0.5-0.3 0.2-0.6 0.3-0.2 0.1-0.5 0.2-0.3 0.1-0.6 0.1-0.3 0-0.6-0.1-0.3-0.1-0.6-0.2-0.2-0.2-0.5-0.3-0.2-0.2-0.4-0.5-0.1-0.2-0.3-0.4-0.1-0.3-0.2-0.6-0.1-0.2-0.1-0.5-0.1-0.3-0.1-0.6 0-0.2 0-0.5 0-0.3 0.1-0.6 0-0.2 0-0.5 0.1-0.2 0.1-0.5 0.1-0.3 0.2-0.5 0-0.3 0.1-0.5 0.1-0.3 0.2-0.5 0.1-0.3 0.3-0.5 0.2-0.2 0.3-0.4 0.2-0.2 0.4-0.4 0.2-0.2 0.5-0.3 0.2-0.2 0.4-0.3 0.3-0.1 0.5-0.2 0.3-0.1 0.5-0.1 0.2-0.1 0.3-0.1 0.1 0 0.3 0 0.1 0 0.2 0 0.2 0 0.3 0.1 0.1 0 0.3 0.1 0.1 0 0.2 0.1 0.1 0.1 0.2 0.2 0.1 0.1 0.2 0.1 0.1 0.1 0.2 0.2 0.1 0.1 0.2 0.3 0 0.1 0.1 0.2 0.1 0.1 0.1 0.2 0.1 0.2 0.1 0.3 0 0.1 0 0.3 0 0.1 0 0.3 0 0.1-0.1 0.2-0.1 0.3-0.3 0.5-0.2 0.2-0.4 0.3-0.3 0.2-0.5 0.2-0.3 0.1-0.6 0-0.2 0-0.5 0-0.2 0-0.5-0.1-0.2-0.1-0.4-0.2-0.2-0.1-0.5-0.3-0.3-0.3-0.7-0.6-0.3-0.4-0.5-0.8-0.3-0.4-0.5-0.8-0.2-0.5-0.3-0.9 0-0.5-0.1-1 0-0.5 0.1-0.9 0.1-0.5 0.2-0.9 0.2-0.5 0.4-0.9 0.1-0.2 0.2-0.4 0.1-0.2 0.3-0.3 0.1-0.2 0.3-0.4 0.2-0.1 0.3-0.3 0.2-0.1 0.4-0.2 0.2-0.1 0.4-0.2 0.2-0.1 0.4-0.2 0.2 0 0.4-0.1 0.2 0 0.5 0 0.2 0 0.4 0 0.2 0 0.4 0.1 0.2 0.1 0.4 0.2 0.2 0.1 0.4 0.2 0.1 0.2 0.3 0.4 0.1 0.2 0.2 0.4 0 0.2 0 0.4 0 0.4-0.1 0.8-0.1 0.4-0.4 0.7-0.2 0.3-0.6 0.6-0.3 0.2-0.7 0.3-0.4 0.1-0.8 0-0.4 0-0.7-0.1-0.4-0.2-0.7-0.4-0.3-0.2-0.6-0.5-0.2-0.3-0.4-0.6-0.1-0.3-0.3-0.6-0.1-0.3-0.2-0.7 0-0.3-0.1-0.7 0.1-0.6 0.2-1.2 0-0.6 0.2-1.2 0.1-0.6 0.3-1.2 0.1-0.6 0.3-1.2 0.7-2.1 1.2-3.9 1-3.5 1.5-5.4 0.3-0.9 0.4-1.4 0.2-0.5 0.2-0.5c0 0 0 0.1-0.1 0.5-0.1 0.3-0.2 0.8-0.4 1.4-0.3 1.3-0.8 3.1-1.5 5.5l-1 3.9c-0.4 1.5-1 3-1 4.7q0.1 0.3 0.2 0.7 0 0.3 0.2 0.6 0.1 0.3 0.3 0.6 0.1 0.2 0.3 0.5 0.3 0.3 0.5 0.5 0.3 0.2 0.6 0.3 0.3 0.1 0.7 0.1 0.3 0.1 0.6 0 0.4-0.1 0.7-0.3 0.3-0.2 0.5-0.4 0.2-0.3 0.3-0.6 0.2-0.4 0.2-0.7 0-0.2-0.1-0.4-0.1-0.1-0.2-0.3-0.1-0.1-0.2-0.2-0.1-0.2-0.3-0.2-0.1-0.1-0.3-0.2-0.2 0-0.4-0.1-0.2 0-0.4 0-0.1 0-0.3 0.1-0.2 0-0.4 0.1-0.2 0-0.4 0.1-0.2 0.1-0.3 0.2-0.2 0.1-0.4 0.2-0.1 0.1-0.3 0.3-0.1 0.1-0.2 0.3-0.2 0.1-0.3 0.3-0.1 0.2-0.2 0.3-0.2 0.4-0.3 0.8-0.1 0.4-0.1 0.9-0.1 0.4-0.1 0.8 0.1 0.4 0.2 0.8 0 0.5 0.2 0.9 0.2 0.4 0.4 0.8 0.3 0.3 0.6 0.7 0.3 0.3 0.6 0.5 0.2 0.2 0.4 0.3 0.2 0.1 0.4 0.1 0.2 0.1 0.4 0.1 0.2 0.1 0.5 0.1 0.2 0 0.4 0 0.2-0.1 0.4-0.2 0.1-0.1 0.3-0.2 0.1-0.2 0.2-0.3 0.1-0.2 0.1-0.5 0-0.2-0.1-0.4-0.1-0.2-0.2-0.4-0.1-0.1-0.3-0.3-0.1 0-0.2-0.1 0-0.1-0.1-0.1-0.1-0.1-0.2-0.1-0.1-0.1-0.2-0.1-0.1-0.1-0.2-0.1-0.1 0-0.3 0-0.1 0-0.2 0-0.1 0-0.2 0.1-0.5 0.1-0.9 0.3-0.4 0.2-0.8 0.5-0.4 0.3-0.6 0.7-0.3 0.4-0.5 0.9 0 0.2-0.1 0.5-0.1 0.2-0.1 0.5-0.1 0.2-0.1 0.5-0.1 0.2-0.1 0.5 0 0.2-0.1 0.5 0 0.3 0 0.5 0.1 0.3 0.1 0.5 0.1 0.3 0.1 0.5 0.1 0.2 0.2 0.5 0.1 0.2 0.3 0.4 0.1 0.1 0.3 0.3 0.2 0.2 0.4 0.3 0.2 0.1 0.5 0.2 0.2 0 0.5 0 0.2 0 0.4 0 0.3-0.1 0.5-0.2 0.2-0.1 0.4-0.2 0.2-0.2 0.3-0.4 0.2-0.2 0.2-0.4 0.1-0.3 0.1-0.5 0-0.2-0.1-0.5-0.1-0.2-0.3-0.4-0.1-0.2-0.3-0.3-0.2-0.1-0.5-0.2-0.2-0.1-0.5-0.2-0.2 0-0.5-0.1-0.2 0-0.5 0.1-0.2 0-0.5 0.1-0.2 0.1-0.4 0.3-0.2 0.1-0.4 0.3-0.2 0.2-0.4 0.4-0.1 0.2-0.2 0.4-0.2 0.6-0.4 1.1-0.1 0.5-0.2 1.1 0 0.6 0 1.1 0 0.6 0.1 1.1 0 0.3 0.1 0.6 0.1 0.2 0.1 0.5 0.1 0.3 0.2 0.5 0.1 0.3 0.3 0.5 0.1 0.3 0.3 0.5 0.1 0.2 0.3 0.4 0.3 0.1 0.5 0.3 0.2 0.1 0.5 0.2 0.3 0 0.5 0 0.3 0 0.6-0.1 0.2 0 0.5-0.2 0.2-0.1 0.4-0.3 0.2-0.1 0.3-0.4 0.1-0.2 0.1-0.5 0-0.2-0.1-0.4-0.1-0.3-0.2-0.5-0.2-0.2-0.5-0.3-0.2-0.1-0.5-0.2-0.2-0.1-0.5-0.1-0.3-0.1-0.5 0-0.3 0-0.6 0.1-0.3 0.1-0.5 0.2-0.2 0.2-0.5 0.4-0.2 0.1-0.4 0.3-0.4 0.5-0.6 1-0.2 0.5-0.3 1.1 0 0.6 0.1 1.1 0.2 0.6 0.5 1.1 0.3 0.4 0.8 0.8 0.5 0.3 1.1 0.5 0.5 0.1 1.1 0.1 0.6 0 1.2-0.2 0.1-0.1 0.2-0.2 0.2-0.1 0.3-0.2 0.1 0 0.2-0.2 0.2-0.1 0.3-0.2 0-0.1 0.1-0.2 0-0.2 0-0.3 0.1-0.2 0-0.3 0-0.1-0.1-0.3-0.2-0.2-0.4-0.5-0.2-0.2-0.5-0.3-0.3-0.2-0.6-0.3-0.3 0-0.7 0-0.6-0.1-1.3 0.1-0.6 0.2-1.2 0.6-0.5 0.3-0.9 0.9-0.3 0.5-0.5 1.2-0.1 0.6 0 1.2 0.1 0.7 0.3 1.3 0.3 0.5 0.8 1 0.4 0.4 1 0.7 0.3 0.2 0.6 0.3 0.3 0.1 0.6 0.1 0.3 0.1 0.6 0.1 0.3 0 0.6 0 0.3-0.1 0.6-0.3 0.2-0.1 0.4-0.4 0.2-0.2 0.3-0.5 0.1-0.3 0.1-0.6v0.2q0-0.2-0.2-0.4-0.1-0.2-0.3-0.3-0.1-0.1-0.3-0.2-0.2-0.1-0.5-0.1-0.2 0-0.4 0-0.3 0-0.5 0.1-0.2 0.1-0.4 0.1-0.2 0.1-0.4 0.2-0.5 0.3-0.8 0.5-0.4 0.3-0.8 0.6-0.3 0.4-0.6 0.7-0.3 0.4-0.5 0.8-0.3 0.4-0.5 0.9-0.2 0.4-0.4 0.8-0.2 0.4-0.4 0.9-0.2 0.4-0.3 0.9l-1.4 3.5c-1.8 4.6-3.6 9-5.4 13.2-3.5 8.3-7 15.5-10 21.5-1.5 3-2.8 5.6-4.2 7.9q-0.4 0.7-0.8 1.5-0.5 0.7-0.9 1.4-0.5 0.7-1 1.3-0.5 0.7-1 1.4-0.4 0.6-0.9 1.1-0.4 0.6-0.9 1.1-0.5 0.5-1 1-0.5 0.5-1 0.9z"/><path class="d" d="m375.1 121q-0.1-0.5-0.1-0.9-0.1-0.5-0.2-1-0.1-0.4-0.3-0.9-0.1-0.5-0.3-0.9-0.6-1.2-1.3-2.3-0.7-1-1.7-1.9-0.9-1-1.9-1.7-1.1-0.7-2.3-1.3-0.8-0.4-1.7-0.7-0.8-0.2-1.7-0.5-0.9-0.2-1.7-0.3-0.9-0.1-1.8-0.2-1.1 0-2.1 0-1 0-2 0.1-1.1 0-2.1 0.2-1 0.1-2 0.3c-5.8 1.1-11.8 3.6-18.5 4.6q-1.3 0.2-2.5 0.2-1.2 0.1-2.5 0.1-1.2 0-2.5-0.1-1.2 0-2.4-0.2-1.2-0.2-2.3-0.4-1.1-0.3-2.2-0.6-1.2-0.3-2.3-0.6-1-0.4-2.1-0.8-1.8-0.8-3.6-1.7-1.7-0.9-3.3-2-1.7-1-3.2-2.3-1.5-1.2-2.9-2.6-1-0.9-1.8-1.9-0.9-1-1.7-2.1-0.8-1-1.5-2.1-0.7-1.1-1.3-2.3-0.1-0.2-0.2-0.3-0.1-0.2-0.2-0.4-0.1-0.2-0.2-0.4-0.1-0.2-0.1-0.4l-0.5-1.1q-0.2-0.4-0.3-0.7 0 0 0 0 0 0-0.1-0.1 0 0 0 0 0-0.1 0-0.1 0 0 0 0.1 0.1 0 0.1 0 0 0 0 0.1 0 0 0 0l0.4 0.7 0.5 1.1q0.1 0.2 0.2 0.3 0.1 0.2 0.2 0.4 0.1 0.2 0.2 0.4 0.1 0.1 0.2 0.3 0.6 1.2 1.3 2.2 0.8 1.1 1.6 2.2 0.8 1 1.6 2 0.9 0.9 1.8 1.8 2.2 2.2 4.8 4 2.5 1.8 5.2 3.1 2.8 1.4 5.7 2.3 3 0.9 6 1.4 1.2 0.1 2.4 0.2 1.3 0.1 2.5 0.1 1.2 0 2.4-0.1 1.3-0.1 2.5-0.2c6.6-1 12.6-3.5 18.4-4.5q1.1-0.2 2.1-0.4 1-0.1 2.1-0.2 1 0 2.1-0.1 1 0 2.1 0.1 0.9 0.1 1.8 0.2 0.9 0.1 1.8 0.4 0.9 0.2 1.7 0.5 0.9 0.3 1.7 0.7 1.2 0.6 2.3 1.3 1.1 0.8 2 1.7 0.9 1 1.7 2.1 0.7 1.1 1.2 2.3 0.2 0.4 0.3 0.7 0.1 0.3 0.2 0.7 0.1 0.3 0.1 0.7 0.1 0.4 0.1 0.7v0.7q0 0.1 0 0.1 0.1 0 0.1 0.1 0 0 0 0 0 0.1 0 0.1z"/><path class="d" d="m360 99.4q-0.1 0.1-0.2 0.1-0.1 0-0.2 0 0 0-0.1 0.1-0.1 0-0.2 0-0.7 0.1-2.1 0.3c-1.8 0.3-4.3 0.9-7.5 1.6q-1.3 0.4-2.7 0.7-1.4 0.4-2.8 0.6-1.4 0.3-2.8 0.5-1.4 0.2-2.8 0.4-1.8 0.2-3.5 0.3-1.8 0-3.5 0-1.8-0.1-3.5-0.2-1.8-0.1-3.5-0.4-1.7-0.3-3.4-0.6-1.7-0.4-3.4-0.8-1.7-0.5-3.4-1-1.6-0.6-3.3-1.2-1.3-0.5-2.6-1.1-1.3-0.6-2.6-1.3-1.2-0.6-2.5-1.4-1.2-0.7-2.4-1.5-2-1.3-3.6-2.5-1.5-1.2-2.5-2.1l-1.5-1.5q-0.5-0.5-0.5-0.5 0.1 0.1 0.1 0.1 0.1 0.1 0.2 0.1 0 0.1 0.1 0.1 0.1 0.1 0.1 0.2l1.6 1.3c0.7 0.6 1.6 1.2 2.6 2 1 0.8 2.3 1.6 3.6 2.5q2.7 1.7 5.5 3.1 2.8 1.4 5.8 2.4 2.9 1.1 6 1.9 3 0.8 6.2 1.2 1.7 0.3 3.4 0.4 1.7 0.2 3.5 0.2 1.7 0.1 3.4 0 1.8 0 3.5-0.2 1.4-0.2 2.8-0.4 1.4-0.2 2.8-0.4 1.4-0.3 2.8-0.6 1.4-0.3 2.7-0.6c3.2-0.7 5.8-1.3 7.6-1.5q1.3-0.2 2-0.2 0.1 0 0.2 0 0.1-0.1 0.2-0.1 0.1 0 0.2 0 0.1 0 0.2 0z"/><path class="c" d="m361.5 166.4q-0.1 0-0.1 0-0.1 0-0.1 0-0.1 0-0.1 0-0.1 0-0.1-0.1-0.1 0-0.3-0.1-0.1 0-0.2-0.1-0.1-0.1-0.3-0.2-0.1 0-0.2-0.1-0.5-0.3-0.9-0.6-0.4-0.4-0.8-0.8-0.3-0.4-0.7-0.8-0.3-0.5-0.5-0.9-0.4-0.7-0.7-1.5-0.3-0.7-0.6-1.5-0.2-0.7-0.3-1.5-0.2-0.8-0.2-1.6-0.1-1-0.2-1.9 0-1 0-2 0-1 0-1.9 0.1-1 0.2-2 0-0.9 0.2-1.9 0.1-1 0.2-1.9 0.2-1 0.4-1.9 0.2-1 0.4-1.9 0.2-0.8 0.4-1.6 0.3-0.7 0.5-1.5 0.3-0.7 0.7-1.4 0.3-0.8 0.7-1.5 0.2-0.4 0.6-0.9 0.3-0.4 0.7-0.8 0.4-0.4 0.8-0.7 0.4-0.4 0.9-0.7 0.1 0 0.2-0.1 0.1-0.1 0.3-0.1 0.1-0.1 0.2-0.2 0.1 0 0.3-0.1 0.4-0.1 0.4-0.1c0 0-0.6 0.2-1.4 0.8q-0.4 0.3-0.8 0.7-0.4 0.3-0.7 0.7-0.3 0.4-0.6 0.8-0.3 0.5-0.6 0.9-0.4 0.7-0.7 1.4-0.3 0.8-0.5 1.5-0.3 0.7-0.5 1.5-0.2 0.7-0.4 1.5-0.2 0.9-0.4 1.9-0.2 0.9-0.3 1.9-0.2 0.9-0.3 1.9-0.1 0.9-0.2 1.9-0.1 0.9-0.1 1.9-0.1 1-0.1 1.9 0 1 0.1 1.9 0 1 0.1 1.9 0 0.8 0.2 1.6 0.1 0.8 0.3 1.5 0.2 0.8 0.5 1.5 0.3 0.7 0.6 1.4 0.3 0.5 0.6 0.9 0.3 0.5 0.6 0.9 0.3 0.4 0.7 0.7 0.4 0.4 0.8 0.7c0.8 0.5 1.3 0.7 1.3 0.7z"/><path class="d" d="m304 168.7c-0.3-1.5 0.7-3 2.2-3.3l10.3-2c1.5-0.3 3 0.7 3.3 2.2l0.1 0.4c0.3 1.5-0.7 3-2.2 3.3l-10.3 2.1c-1.5 0.3-3-0.8-3.3-2.3z"/><path class="d" d="m318.5 164.9l47.4-14.9q0.4-0.1 0.9-0.1 0.4 0 0.8 0.2 0.4 0.3 0.7 0.6 0.3 0.3 0.4 0.7 0.2 0.5 0.1 0.9 0 0.5-0.2 0.9-0.3 0.4-0.6 0.7-0.4 0.3-0.8 0.4l-48.6 13.1z"/><path class="c" d="m353.5 158.3q0.2 0 0.4-0.1 0.2-0.1 0.4-0.2 0.2 0 0.4-0.1 0.2-0.1 0.4-0.1l4.3-1.3c1.9-0.6 4.1-1.2 6.5-2q0.2 0 0.4-0.1 0.2-0.1 0.4-0.3 0.2-0.1 0.4-0.2 0.2-0.2 0.3-0.4 0.2-0.1 0.3-0.3 0.1-0.2 0.2-0.4 0.1-0.2 0.1-0.5 0.1-0.2 0.1-0.4 0-0.2-0.1-0.5-0.1-0.2-0.2-0.4-0.1-0.1-0.3-0.3-0.2-0.1-0.4-0.2-0.3 0-0.5-0.1-0.3 0-0.5 0-0.3 0-0.5 0.1-0.3 0-0.5 0.1l-14.2 4.6-4.4 1.3q-0.2 0.1-0.3 0.2-0.2 0-0.4 0.1-0.2 0-0.4 0.1-0.2 0.1-0.4 0.1 0.2-0.1 0.4-0.2 0.2-0.1 0.4-0.1 0.2-0.1 0.4-0.2 0.2 0 0.3-0.1l4.3-1.5c3.7-1.2 8.6-3 14.2-4.7q0.3-0.1 0.6-0.2 0.3 0 0.6 0 0.3 0 0.6 0 0.2 0.1 0.5 0.2 0.3 0.1 0.5 0.2 0.3 0.2 0.5 0.5 0.1 0.2 0.2 0.5 0.1 0.3 0.1 0.6 0 0.3 0 0.6-0.1 0.2-0.2 0.5-0.1 0.2-0.2 0.5-0.2 0.2-0.4 0.4-0.2 0.2-0.4 0.3-0.2 0.2-0.4 0.3-0.3 0.1-0.5 0.2-0.2 0.1-0.5 0.2c-2.5 0.8-4.6 1.3-6.5 1.8l-4.3 1.2q-0.2 0.1-0.4 0.1-0.2 0.1-0.4 0.1-0.2 0.1-0.4 0.1-0.3 0-0.5 0z"/><path class="c" d="m276 122c1.6 5.7-4.2 10.6-6.2 16.2-2 5.3-0.3 11.4 2.1 16.6 2.4 5.2 5.6 10.1 6.9 15.7 3.1 13.8-9.4 28.6-7 42.6 0.8 5.1 2.9 10.4 4.7 15.2q0.6 1.7 0.9 3.5 0.4 1.7 0.4 3.6 0 1.8-0.4 3.5-0.3 1.8-0.9 3.5c-2.7 8-7.3 11.8-10.5 19.5-1.7 4-1.6 8.5-1.5 12.8 0.1 4.3 0.1 8.8-1.8 12.6-2 3.9-6.3 6.9-10.5 5.8 1.1 1.2 2.4 2.3 3.9 3.1 1.5 0.8 3 1.4 4.7 1.7 1.6 0.3 3.3 0.4 5 0.1 1.6-0.2 3.2-0.7 4.7-1.4 5.5-3 8.6-8.9 11.2-14.5 12.7-27.2 19.4-29.5 19-59.5 0-2-0.4-32-0.4-32q-1-0.3-1.9-0.6-1-0.4-2-0.8-0.9-0.3-1.8-0.8-0.9-0.5-1.8-1c-14.2-9.8-14.7-27.2-14.6-40.7"/><path class="f" d="m304.3 213.1v11.3c0 0-8.7 44.5-11.3 69.1-2.7 24.7-3.1 31.3-3.1 31.3 0 0 6.3 9.7 19.3-6.9 13.1-16.5 15.4-19.1 20.7-19.4 0 0-6.4-69.4-6.1-72q0.1-0.7 0.3-1.3 0.2-0.7 0.5-1.3 0.3-0.7 0.7-1.2 0.3-0.6 0.8-1.2z"/><path class="f" d="m321.4 187.5c0 0-14.2 18.9-15.4 21.5-1.1 2.6-1.7 4.1-1.7 4.1l21.8 8.4 21.2-23.3 7.8-20.6-2.3-24.4c0 0-4.6-0.3-5.5 3.8q-0.2 1-0.3 1.9-0.2 1-0.2 2-0.1 1-0.1 2 0 1 0 1.9l-6.5-5.2-10.5-3.2c0 0-2.5 4.1 1.6 6.1 4.1 2.1 5.2 2 5.2 2l3.7 6.4-1.6 7.2-7.4-7q-0.5-0.5-1.2-0.8-0.7-0.3-1.4-0.4-0.8 0-1.5 0.2-0.7 0.2-1.3 0.6l-4.8 3.5-4.5-2-8.7 7.8-3.5 3.2c0 0 2.3 4.3 7 2.3l4.6-2z"/><path class="g" d="m304.3 216.9q0-0.1 0-0.1 0-0.1 0-0.2 0-0.1 0-0.1 0-0.1 0-0.2 0-0.6 0.1-1.8 0.1-0.3 0.1-0.7 0.1-0.3 0.2-0.7 0-0.4 0.1-0.7 0.1-0.4 0.2-0.7 0.1-0.5 0.3-1 0.1-0.5 0.3-0.9 0.2-0.5 0.4-0.9 0.2-0.5 0.5-0.9c3.3-5 8.4-12 14.8-20.6v0.3l-5.5-4.1h0.2l-2.9 1.3q-0.4 0.2-0.7 0.3-0.4 0.2-0.8 0.3-0.4 0.2-0.8 0.3-0.4 0.2-0.8 0.3-0.4 0.1-0.8 0.1-0.5 0-0.9 0-0.4-0.1-0.8-0.2-0.5-0.1-0.9-0.3-0.4-0.2-0.7-0.5-0.4-0.2-0.7-0.6-0.3-0.3-0.6-0.6-0.3-0.4-0.5-0.8l-0.1-0.1 0.1-0.1c3.8-3.5 7.9-7.1 12.2-10.9l0.1-0.1 0.2 0.1 3.9 2.3h-0.3l4.5-3c0.8-0.5 1.5-1 2.4-1.6q0.3-0.1 0.7-0.2 0.4-0.1 0.8 0 0.4 0 0.7 0.1 0.4 0.2 0.7 0.4l8.8 7.4-0.4 0.2c0.5-2.2 1-4.5 1.5-6.8v0.1l-3.6-6.4 0.2 0.2q-0.2-0.1-0.5-0.1-0.2 0-0.4-0.1-0.3-0.1-0.5-0.1-0.2-0.1-0.4-0.2-0.9-0.3-1.7-0.7-0.9-0.4-1.7-0.8c-0.3-0.2-0.6-0.3-0.9-0.5q-0.1-0.1-0.2-0.2-0.1 0-0.2-0.1-0.1-0.1-0.2-0.2 0-0.1-0.1-0.2-0.3-0.2-0.5-0.5-0.2-0.4-0.3-0.7-0.1-0.3-0.2-0.7 0-0.4 0-0.7 0-0.4 0-0.7 0.1-0.4 0.2-0.7 0.1-0.4 0.2-0.7 0.2-0.3 0.3-0.7l0.1-0.1h0.2l10.5 3.2h0.1l6.5 5.3-0.4 0.2q-0.1-1-0.1-2 0-0.9 0.1-1.9 0.1-1 0.2-1.9 0.1-1 0.3-1.9 0.1-0.5 0.3-1 0.2-0.5 0.4-0.9 0.3-0.4 0.7-0.7 0.3-0.4 0.7-0.7 0.4-0.2 0.9-0.4 0.4-0.2 0.9-0.3 0.5-0.1 1-0.2 0.4 0 0.9 0h0.3v0.2c0.8 8.7 1.6 16.9 2.3 24.4v0.1c-2.9 7.6-5.5 14.5-7.9 20.6l-16.4 18.1-4.5 4.8q-0.7 0.8-1.1 1.3l-0.4 0.4q0 0 0.3-0.5l1.2-1.2 4.4-4.9 16.3-18 7.8-20.6v0.1c-0.7-7.6-1.5-15.7-2.4-24.4l0.3 0.2q-0.5 0-0.9 0-0.5 0.1-0.9 0.2-0.4 0.1-0.8 0.3-0.4 0.2-0.8 0.4-0.4 0.2-0.7 0.5-0.3 0.4-0.6 0.7-0.2 0.4-0.4 0.8-0.1 0.4-0.2 0.9-0.2 0.9-0.3 1.9-0.2 0.9-0.2 1.9-0.1 0.9-0.1 1.9 0 0.9 0 1.9v0.5l-0.4-0.3-6.6-5.3h0.1l-10.5-3.2 0.3-0.1q-0.2 0.3-0.3 0.6-0.1 0.3-0.2 0.6-0.1 0.3-0.1 0.6-0.1 0.4-0.1 0.7 0 0.3 0 0.6 0.1 0.3 0.2 0.6 0.1 0.3 0.3 0.6 0.2 0.3 0.4 0.5 0 0.1 0.1 0.1 0.1 0.1 0.2 0.2 0.1 0.1 0.2 0.1 0.1 0.1 0.1 0.2c0.3 0.1 0.5 0.3 0.8 0.4q0.9 0.4 1.7 0.8 0.4 0.2 0.8 0.4 0.4 0.1 0.8 0.3 0.4 0.1 0.9 0.2 0.4 0.2 0.8 0.3h0.2v0.1l3.7 6.3v0.1 0.1c-0.5 2.4-1 4.7-1.5 6.9l-0.1 0.4-0.3-0.3-8.8-7.4q-0.2-0.2-0.5-0.3-0.3-0.1-0.7-0.2-0.3 0-0.6 0.1-0.3 0-0.6 0.2c-0.7 0.4-1.5 1-2.3 1.4l-4.5 3-0.1 0.1h-0.2l-3.8-2.3h0.2c-4.2 3.7-8.4 7.3-12.2 10.8l0.1-0.3q0.2 0.4 0.4 0.7 0.3 0.3 0.6 0.6 0.3 0.3 0.6 0.6 0.4 0.2 0.7 0.4 0.4 0.2 0.8 0.3 0.4 0.1 0.8 0.2 0.4 0 0.8 0 0.4-0.1 0.8-0.2 0.3-0.1 0.7-0.2 0.4-0.1 0.8-0.3 0.4-0.1 0.7-0.3 0.4-0.1 0.8-0.3l2.8-1.3h0.1l0.1 0.1 5.5 4.1 0.2 0.1-0.1 0.1c-6.5 8.6-11.6 15.6-14.9 20.5q-0.3 0.5-0.5 0.9-0.2 0.4-0.4 0.9-0.2 0.4-0.4 0.9-0.2 0.5-0.3 0.9-0.1 0.4-0.2 0.7 0 0.4-0.1 0.7-0.1 0.4-0.2 0.7 0 0.4-0.1 0.7-0.1 1.2-0.2 1.8 0 0.6 0 0.6z"/><path class="g" d="m331.3 191.9c-0.1 0 0.2-1.6 0.4-4q0-0.5 0-1.1 0-0.5-0.1-1-0.1-0.6-0.2-1.1-0.2-0.5-0.4-1-0.3-0.6-0.7-1.1-0.3-0.6-0.8-1.1-0.4-0.5-0.9-0.9-0.5-0.4-1.1-0.8-0.9-0.8-1.9-1.5-1-0.7-2-1.4-1-0.7-2-1.3-1.1-0.7-2.1-1.3l-2.6-1.5q-0.1-0.1-0.2-0.1-0.1-0.1-0.2-0.2-0.2 0-0.3-0.1-0.1-0.1-0.2-0.2 0.1 0 0.3 0.1 0.1 0 0.2 0.1 0.2 0 0.3 0.1 0.1 0.1 0.2 0.1c0.6 0.3 1.6 0.8 2.7 1.4q1 0.6 2.1 1.2 1 0.7 2.1 1.3 1 0.7 2 1.4 1 0.7 2 1.5 0.5 0.4 1 0.8 0.6 0.5 1 1 0.5 0.5 0.8 1.1 0.4 0.6 0.7 1.2 0.3 0.5 0.4 1.1 0.1 0.5 0.2 1.1 0.1 0.5 0.1 1.1 0 0.5 0 1.1-0.1 0.4-0.1 0.8-0.1 0.3-0.1 0.7-0.1 0.4-0.2 0.7 0 0.4-0.1 0.7-0.1 0.2-0.1 0.3 0 0.2 0 0.3-0.1 0.1-0.1 0.2-0.1 0.2-0.1 0.3z"/><path class="g" d="m346.5 182.8q0-0.3 0.1-0.6 0-0.4 0.1-0.7 0-0.3 0.1-0.6 0-0.4 0.1-0.7 0.1-0.8 0.2-1.6 0.1-0.7 0.1-1.5 0.1-0.8 0.1-1.6 0-0.8 0-1.6 0-0.8 0-1.6-0.1-0.8-0.1-1.6-0.1-0.7-0.2-1.5-0.1-0.8-0.2-1.6-0.1-0.3-0.2-0.6 0-0.4-0.1-0.7 0-0.3-0.1-0.6 0-0.4 0-0.7 0.1 0.3 0.2 0.6 0.1 0.3 0.2 0.6 0.1 0.4 0.2 0.7 0.1 0.3 0.1 0.6 0.4 1.6 0.6 3.2 0.1 1.6 0.2 3.2 0 1.6-0.2 3.2-0.1 1.6-0.5 3.2 0 0.3-0.1 0.6 0 0.4-0.1 0.7-0.1 0.3-0.2 0.6-0.2 0.3-0.3 0.6z"/><path class="c" d="m448 378.1c0 0.2-101.7 0.3-227 0.3-125.3 0-227-0.1-227-0.3 0-0.1 101.6-0.2 227-0.2 125.5 0 227 0.1 227 0.2z"/><path class="d" d="m307.5 378.4q1.8-2.7 4.2-4.9 2.3-2.2 5.1-3.7 2.8-1.6 5.9-2.5 3-0.9 6.2-1c14.6-0.5 21.9 12.1 21.9 12.1z"/><path class="c" d="m362.5 378q0-0.3-0.1-0.5 0-0.3-0.1-0.6-0.1-0.3-0.1-0.5 0-0.3-0.1-0.6-0.3-1.3-0.8-2.5-0.5-1.2-1.3-2.3-0.7-1.1-1.6-2-1-1-2.1-1.7-0.2-0.1-0.5-0.3-0.2-0.1-0.4-0.3-0.3-0.1-0.5-0.3-0.2-0.1-0.4-0.3 0.2 0 0.5 0.1 0.3 0.1 0.6 0.2 0.2 0.1 0.5 0.2 0.2 0.2 0.5 0.3 1.2 0.7 2.2 1.7 1 0.9 1.8 2.1 0.7 1.1 1.3 2.4 0.5 1.3 0.7 2.6 0 0.3 0.1 0.6 0 0.3 0 0.6 0 0.3-0.1 0.5 0 0.3-0.1 0.6z"/><path class="d" d="m300.5 377.9v-0.1q0-1.1-0.4-2.2-0.5-1-1.3-1.7-0.8-0.8-1.8-1.2-1-0.5-2.1-0.5h-124.3q-1.2 0.1-2.2 0.5-1 0.4-1.8 1.2-0.8 0.8-1.2 1.8-0.4 1-0.5 2.2z"/><path class="c" d="m87.5 160c0 2.6 2 158.8 2 158.8l116 27.9h9.5l-6.1-218h-8.7z"/><path class="c" d="m112 312.3l-36 65.9h32.9c-5.9-0.6 52 0 52 0l-52-13.8 16.3-37-1.4-15.1z"/><path class="c" d="m112.8 324.4l-3.9-122.8 35.3-3.3 4.4 131.1-12.6 0.6-23.2-5.6z"/><path class="d" d="m153.5 334.2q0 0 0-0.5 0-0.6 0-1.7 0-2.3 0-6.5c0-5.7 0-14-0.1-24.5 0-20.8 0-50.2-0.1-84.3l0.3 0.3h-41.8l0.3-0.3v5.7c0 33.2 0 64.1 0 89.9-10.9 19.9-19.8 36.3-26.1 47.8-3.2 5.8-5.6 10.3-7.3 13.3q-1.3 2.3-1.9 3.5c-0.5 0.8-0.7 1.2-0.7 1.2q0 0 0.6-1.2c0.4-0.8 1.1-2 1.9-3.5 1.6-3.1 4.1-7.6 7.2-13.4l25.9-47.9v0.1c0-25.7 0-56.6 0-89.9v-5.9h42.1v0.3c0 34 0 63.4 0 84.3 0 10.4-0.1 18.7-0.1 24.4q0 4.2 0 6.5 0 1.1 0 1.7c0 0.4-0.2 0.6-0.2 0.6z"/><path class="d" d="m125.2 327.4c0.1 0.1-4.9 11.6-11.2 25.8-6.3 14.2-11.5 25.7-11.6 25.7-0.2-0.1 4.8-11.7 11.1-25.9 6.3-14.2 11.5-25.6 11.7-25.6z"/><path class="d" d="m205.4 346.7q0 0 0-0.5 0-0.6 0-1.7c0-1.5 0-3.6-0.1-6.3 0-5.5-0.1-13.5-0.3-23.3-0.4-19.7-1.3-46.9-2.4-76.9-1.1-30-1.9-57.2-2.2-76.9-0.1-9.8-0.2-17.8-0.2-23.3q0-4.1 0-6.3 0-1.1 0-1.7c0-0.4 0-0.5 0-0.5q0 0 0 0.5 0 0.6 0 1.7c0 1.4 0 3.6 0.1 6.3 0 5.5 0.2 13.5 0.4 23.3 0.4 19.7 1.3 46.9 2.4 76.9 1.1 30 1.9 57.2 2.2 76.9 0.1 9.8 0.2 17.8 0.2 23.3q0 4.1 0 6.3 0 1.1 0 1.7c0 0.4-0.1 0.5-0.1 0.5z"/><path class="d" d="m147.2 332.5c-0.2 0-0.3-26.1-0.3-58.3 0-32.3 0.1-58.4 0.3-58.4 0.1 0 0.2 26.1 0.2 58.4 0 32.2-0.1 58.3-0.2 58.3z"/><path class="d" d="m84.7 367.9q-0.1-0.1-0.1-0.2-0.1-0.1-0.2-0.1 0-0.1-0.1-0.2 0-0.1-0.1-0.2-0.3-0.4-0.6-0.9-0.1-0.1-0.2-0.3-0.1-0.1-0.2-0.3 0-0.1-0.1-0.3-0.1-0.1-0.2-0.3-0.5-1-1-2-0.5-1-0.9-2.1-0.4-1.1-0.7-2.1-0.3-1.1-0.6-2.2-0.3-1.7-0.5-3.4-0.2-1.6-0.3-3.3-0.1-1.7 0-3.4 0-1.6 0.2-3.3 0.2-2.1 0.6-4.1 0.4-2 1-4 0.5-2 1.2-3.9 0.7-1.9 1.5-3.8 0.5-1 1-1.9 0.5-1 1.1-1.9 0.5-0.9 1.2-1.7 0.6-0.9 1.3-1.7 0.1-0.2 0.3-0.4 0.2-0.2 0.3-0.4 0.2-0.2 0.4-0.4 0.1-0.2 0.3-0.4 0.7-0.7 1.4-1.5c1-0.9 1.8-1.8 2.8-2.6q0.7-0.6 1.4-1.1 0.7-0.6 1.5-1.1 0.7-0.5 1.4-1 0.8-0.5 1.5-1c1-0.6 1.9-1.1 2.9-1.6 0.9-0.4 1.8-0.9 2.7-1.2q1.1-0.5 2.1-0.8 1.1-0.4 2.2-0.7 1.1-0.3 2.2-0.5 1.1-0.2 2.2-0.3 0.3-0.1 0.6-0.1 0.4 0 0.7-0.1 0.3 0 0.6 0 0.3 0 0.6 0 0.1 0 0.2 0 0.1 0 0.2 0 0.1 0 0.2 0 0.1 0 0.2 0-0.1 0-0.2 0-0.1 0.1-0.2 0.1-0.1 0-0.2 0-0.1 0-0.2 0-0.3 0-0.6 0-0.3 0.1-0.6 0.1-0.3 0-0.6 0.1-0.3 0-0.6 0-1.1 0.2-2.2 0.4-1.1 0.3-2.2 0.6-1.1 0.3-2.2 0.7-1 0.4-2 0.8c-0.9 0.3-1.8 0.8-2.7 1.3-1 0.4-1.9 1-2.8 1.5q-0.8 0.5-1.5 1-0.8 0.5-1.5 1-0.7 0.6-1.4 1.1-0.7 0.6-1.4 1.2c-1 0.7-1.8 1.7-2.8 2.6-0.4 0.4-0.9 1-1.3 1.4q-0.2 0.2-0.4 0.4-0.1 0.2-0.3 0.4-0.2 0.2-0.3 0.4-0.2 0.2-0.3 0.4-0.7 0.8-1.3 1.6-0.6 0.9-1.2 1.8-0.5 0.9-1 1.8-0.5 0.9-1 1.9-0.8 1.8-1.5 3.8-0.7 1.9-1.2 3.8-0.6 2-1 4-0.4 2-0.6 4-0.2 1.7-0.3 3.3 0 1.7 0 3.4 0.1 1.6 0.3 3.3 0.2 1.6 0.5 3.3 0.2 1.1 0.5 2.2 0.3 1 0.7 2.1 0.4 1 0.8 2.1 0.5 1 1 2 0.1 0.2 0.1 0.3 0.1 0.2 0.2 0.3 0.1 0.2 0.2 0.3 0.1 0.2 0.2 0.3l0.5 0.9q0.1 0.1 0.1 0.2 0.1 0.1 0.1 0.2 0.1 0.1 0.1 0.2 0.1 0.1 0.1 0.2z"/></svg>