<svg version="1.2" xmlns="http://www.w3.org/2000/svg" viewBox="0 0 313 424" width="313" height="424"><defs><linearGradient id="P" gradientUnits="userSpaceOnUse"/><linearGradient id="g1" x1="273" y1="133" x2="296.4" y2="133" href="#P"><stop stop-color="#1b3840"/><stop offset="1" stop-color="#204954"/></linearGradient><radialGradient id="g2" cx="156.2" cy="360.8" r="44.1" href="#P"><stop stop-color="#b3fff2"/><stop offset="1" stop-color="#00ffd4"/></radialGradient><linearGradient id="g3" x1="203.5" y1="287.1" x2="208.7" y2="287.1" href="#P"><stop stop-color="#335d94"/><stop offset="1" stop-color="#204270"/></linearGradient><linearGradient id="g4" x1="198.4" y1="287.1" x2="203.5" y2="287.1" href="#P"><stop stop-color="#4e76a6"/><stop offset="1" stop-color="#87b5f5"/></linearGradient><linearGradient id="g5" x1="108.9" y1="287.1" x2="114.1" y2="287.1" href="#P"><stop stop-color="#335d94"/><stop offset="1" stop-color="#204270"/></linearGradient><linearGradient id="g6" x1="103.8" y1="287.1" x2="108.9" y2="287.1" href="#P"><stop stop-color="#4e76a6"/><stop offset="1" stop-color="#87b5f5"/></linearGradient><linearGradient id="g7" x1="103.8" y1="349.8" x2="156.2" y2="349.8" href="#P"><stop stop-color="#2f5382"/><stop offset="1" stop-color="#446da3"/></linearGradient><linearGradient id="g8" x1="108.9" y1="346.2" x2="156.2" y2="346.2" href="#P"><stop stop-color="#4e76a6"/><stop offset="1" stop-color="#87b5f5"/></linearGradient><linearGradient id="g9" x1="156.2" y1="349.8" x2="208.7" y2="349.8" href="#P"><stop stop-color="#204270"/><stop offset="1" stop-color="#335d94"/></linearGradient><linearGradient id="g10" x1="156.2" y1="346.2" x2="203.5" y2="346.2" href="#P"><stop stop-color="#77a5d6"/><stop offset="1" stop-color="#99c5ff"/></linearGradient><radialGradient id="g11" cx="156.7" cy="299.6" r="114.2" href="#P"><stop offset=".2" stop-color="#0ff"/><stop offset=".95"/></radialGradient><linearGradient id="g12" x1="16.1" y1="133" x2="39.4" y2="133" href="#P"><stop stop-color="#204954"/><stop offset="1" stop-color="#1b3840"/></linearGradient><linearGradient id="g13" x1="39.4" y1="192.1" x2="156.2" y2="192.1" href="#P"><stop stop-color="#4e76a6"/><stop offset="1" stop-color="#87b5f5"/></linearGradient><linearGradient id="g14" x1="156.2" y1="192.1" x2="273" y2="192.1" href="#P"><stop stop-color="#77a5d6"/><stop offset="1" stop-color="#99c5ff"/></linearGradient><linearGradient id="g15" x1="39.4" y1="27.3" x2="44.1" y2="27.3" href="#P"><stop stop-color="#335d94"/><stop offset="1" stop-color="#204270"/></linearGradient><linearGradient id="g16" x1="234.5" y1="327.2" x2="66.8" y2="427" href="#P"><stop stop-color="#87b5f5"/><stop offset="1" stop-color="#6a94c4"/></linearGradient><linearGradient id="g17" x1="197.3" y1="121.9" x2="362.5" y2="220.3" href="#P"><stop stop-color="#335d94"/><stop offset="1" stop-color="#42689c"/></linearGradient><linearGradient id="g18" x1="34.8" y1="304.5" x2="156.2" y2="304.5" href="#P"><stop stop-color="#2f5382"/><stop offset="1" stop-color="#446da3"/></linearGradient><linearGradient id="g19" x1="156.2" y1="304.5" x2="277.7" y2="304.5" href="#P"><stop stop-color="#204270"/><stop offset="1" stop-color="#335d94"/></linearGradient><linearGradient id="g20" x1="16.1" y1="23.7" x2="39.4" y2="23.7" href="#P"><stop stop-color="#4e76a6"/><stop offset="1" stop-color="#87b5f5"/></linearGradient><radialGradient id="g21" cx="156.2" cy="15.5" r="216.2" href="#P"><stop stop-color="#0056bf"/><stop offset=".51" stop-color="#05226b"/><stop offset="1" stop-color="#0a1c4a"/></radialGradient><radialGradient id="g22" cx="112.6" cy="-27.3" r="286" href="#P"><stop stop-color="#284580"/><stop offset="1"/></radialGradient><radialGradient id="g23" cx="58.9" cy="41.7" r="289.7" href="#P"><stop stop-color="#67dbff"/><stop offset="1" stop-color="#0068de"/></radialGradient><linearGradient id="g24" x1="34.8" y1="6" x2="156.2" y2="6" href="#P"><stop stop-color="#7996b5"/><stop offset="1" stop-color="#cce2ff"/></linearGradient><linearGradient id="g25" x1="39.4" y1="10.7" x2="156.2" y2="10.7" href="#P"><stop stop-color="#204270"/><stop offset="1" stop-color="#335d94"/></linearGradient><linearGradient id="g26" x1="268.4" y1="27.3" x2="273" y2="27.3" href="#P"><stop stop-color="#4e76a6"/><stop offset="1" stop-color="#87b5f5"/></linearGradient><linearGradient id="g27" x1="156.2" y1="6" x2="277.7" y2="6" href="#P"><stop stop-color="#87b5f5"/><stop offset="1" stop-color="#4e76a6"/></linearGradient><linearGradient id="g28" x1="156.2" y1="10.7" x2="273" y2="10.7" href="#P"><stop stop-color="#2f5382"/><stop offset="1" stop-color="#446da3"/></linearGradient><radialGradient id="g29" cx="156.2" cy="211.7" r="21.7" href="#P"><stop stop-color="#0062b7"/><stop offset="1"/></radialGradient><linearGradient id="g30" x1="150.5" y1="295.5" x2="150.5" y2="250.3" href="#P"><stop stop-color="#c2d6f2"/><stop offset="1" stop-color="#e6f5ff"/></linearGradient><linearGradient id="g31" x1="51.4" y1="265" x2="51.4" y2="262.2" href="#P"><stop stop-color="#2b3336"/><stop offset=".61" stop-color="#40d4ff"/></linearGradient><linearGradient id="g32" x1="51.5" y1="262.8" x2="51.5" y2="260.4" href="#P"><stop/><stop offset="1" stop-color="#78faff"/></linearGradient><linearGradient id="g33" x1="51.4" y1="276.4" x2="51.4" y2="273.6" href="#P"><stop stop-color="#2b3336"/><stop offset=".61" stop-color="#00c8ff"/></linearGradient><linearGradient id="g34" x1="51.5" y1="274.2" x2="51.5" y2="271.8" href="#P"><stop/><stop offset="1" stop-color="#78faff"/></linearGradient><linearGradient id="g35" x1="51.4" y1="287.7" x2="51.4" y2="284.8" href="#P"><stop stop-color="#2b3336"/><stop offset=".61" stop-color="#40d4ff"/></linearGradient><linearGradient id="g36" x1="51.5" y1="285.4" x2="51.5" y2="283" href="#P"><stop/><stop offset="1" stop-color="#78faff"/></linearGradient><linearGradient id="g37" x1="50.8" y1="264.4" x2="50.8" y2="260" href="#P"><stop stop-color="#17acff"/><stop offset="1" stop-color="#78faff"/></linearGradient><linearGradient id="g38" x1="50.8" y1="275.8" x2="50.8" y2="271.3" href="#P"><stop stop-color="#17acff"/><stop offset="1" stop-color="#78faff"/></linearGradient><linearGradient id="g39" x1="50.8" y1="287.1" x2="50.8" y2="282.6" href="#P"><stop stop-color="#17acff"/><stop offset="1" stop-color="#78faff"/></linearGradient><linearGradient id="g40" x1="260.2" y1="265" x2="260.2" y2="262.2" href="#P"><stop stop-color="#2b3336"/><stop offset=".61" stop-color="#40d4ff"/></linearGradient><linearGradient id="g41" x1="260.3" y1="262.8" x2="260.3" y2="260.4" href="#P"><stop/><stop offset="1" stop-color="#78faff"/></linearGradient><linearGradient id="g42" x1="260.2" y1="276.4" x2="260.2" y2="273.6" href="#P"><stop stop-color="#2b3336"/><stop offset=".61" stop-color="#40d4ff"/></linearGradient><linearGradient id="g43" x1="260.3" y1="274.2" x2="260.3" y2="271.8" href="#P"><stop/><stop offset="1" stop-color="#78faff"/></linearGradient><linearGradient id="g44" x1="260.2" y1="287.7" x2="260.2" y2="284.8" href="#P"><stop stop-color="#2b3336"/><stop offset=".61" stop-color="#40d4ff"/></linearGradient><linearGradient id="g45" x1="260.3" y1="285.4" x2="260.3" y2="283" href="#P"><stop/><stop offset="1" stop-color="#78faff"/></linearGradient><linearGradient id="g46" x1="259.6" y1="264.4" x2="259.6" y2="260" href="#P"><stop stop-color="#17acff"/><stop offset="1" stop-color="#78faff"/></linearGradient><linearGradient id="g47" x1="259.6" y1="275.8" x2="259.6" y2="271.3" href="#P"><stop stop-color="#17acff"/><stop offset="1" stop-color="#78faff"/></linearGradient><linearGradient id="g48" x1="259.6" y1="287.1" x2="259.6" y2="282.6" href="#P"><stop stop-color="#17acff"/><stop offset="1" stop-color="#78faff"/></linearGradient><radialGradient id="g49" cx="54.4" cy="103.5" r="30.4" href="#P"><stop stop-color="#cccc14"/><stop offset="1"/></radialGradient><radialGradient id="g50" cx="39.4" cy="66.7" r="24.3" href="#P"><stop stop-color="#fff"/><stop offset="1"/></radialGradient><radialGradient id="g51" cx="51.8" cy="273.8" r="22.3" href="#P"><stop stop-color="#00b3ff"/><stop offset="1"/></radialGradient><radialGradient id="g52" cx="260.6" cy="273.8" r="22.3" href="#P"><stop stop-color="#00b3ff"/><stop offset="1"/></radialGradient><radialGradient id="g53" cx="258.1" cy="69.9" r="29.6" href="#P"><stop stop-color="#cccc14"/><stop offset="1"/></radialGradient><linearGradient id="g54" x1="273" y1="23.7" x2="296.4" y2="23.7" href="#P"><stop stop-color="#335d94"/><stop offset="1" stop-color="#204270"/></linearGradient><radialGradient id="g55" cx="156.2" cy="235.8" r="12.9" href="#P"><stop stop-color="#199fcf"/><stop offset="1"/></radialGradient><linearGradient id="g56" x1="-89.9" y1="170.7" x2="-89.9" y2="223.8" href="#P"><stop stop-color="#6287c9"/><stop offset="1" stop-color="#3b597d"/></linearGradient><radialGradient id="g57" cx="27.5" cy="197.2" r="15.3" href="#P"><stop stop-color="#f8fc86"/><stop offset="1" stop-color="#edce20"/></radialGradient><linearGradient id="g58" x1="25.7" y1="216.3" x2="25.7" y2="223.8" href="#P"><stop stop-color="#99b2bf"/><stop offset="1" stop-color="#9bbd67"/></linearGradient><linearGradient id="g59" x1="24.3" y1="170.7" x2="24.3" y2="179.3" href="#P"><stop stop-color="#94885c"/><stop offset="1" stop-color="#2c507a"/></linearGradient><linearGradient id="g60" x1="-138.5" y1="177.7" x2="-138.5" y2="218" href="#P"><stop stop-color="#739cb0"/><stop offset="1" stop-color="#476b96"/></linearGradient><linearGradient id="g61" x1="-441.2" y1="170.7" x2="-441.2" y2="223.8" href="#P"><stop stop-color="#739cb0"/><stop offset="1" stop-color="#476b96"/></linearGradient><linearGradient id="g62" x1="402.4" y1="170.7" x2="402.4" y2="223.8" href="#P"><stop stop-color="#6287c9"/><stop offset="1" stop-color="#3b597d"/></linearGradient><radialGradient id="g63" cx="285" cy="197.2" r="15.3" href="#P"><stop stop-color="#f8fc86"/><stop offset="1" stop-color="#edce20"/></radialGradient><linearGradient id="g64" x1="286.8" y1="216.3" x2="286.8" y2="223.8" href="#P"><stop stop-color="#99b2bf"/><stop offset="1" stop-color="#9bbd67"/></linearGradient><linearGradient id="g65" x1="288.1" y1="170.7" x2="288.1" y2="179.3" href="#P"><stop stop-color="#94885c"/><stop offset="1" stop-color="#2c507a"/></linearGradient><linearGradient id="g66" x1="451" y1="177.7" x2="451" y2="218" href="#P"><stop stop-color="#739cb0"/><stop offset="1" stop-color="#476b96"/></linearGradient><linearGradient id="g67" x1="753.5" y1="170.7" x2="753.5" y2="223.8" href="#P"><stop stop-color="#739cb0"/><stop offset="1" stop-color="#476b96"/></linearGradient><radialGradient id="g68" cx="27.5" cy="197.2" r="44.9" href="#P"><stop stop-color="#cccc14"/><stop offset="1"/></radialGradient><radialGradient id="g69" cx="285" cy="197.2" r="44.9" href="#P"><stop stop-color="#cccc14"/><stop offset="1"/></radialGradient><radialGradient id="g70" cx="29.9" cy="197.2" r="91.4" href="#P"><stop stop-color="#ffed00"/><stop offset="1"/></radialGradient><radialGradient id="g71" cx="25.6" cy="197.2" r="45.8" href="#P"><stop stop-color="#ffed00"/><stop offset="1"/></radialGradient><radialGradient id="g72" cx="282.5" cy="197.2" r="91.4" href="#P"><stop stop-color="#ffed00"/><stop offset="1"/></radialGradient><radialGradient id="g73" cx="287" cy="197.2" r="45.8" href="#P"><stop stop-color="#ffed00"/><stop offset="1"/></radialGradient></defs><style>.a{fill:url(#g1)}.b{fill:#9b9b9b}.c{fill:url(#g2)}.d{fill:url(#g3)}.e{fill:url(#g4)}.f{fill:url(#g5)}.g{fill:url(#g6)}.h{fill:url(#g7)}.i{fill:url(#g8)}.j{fill:url(#g9)}.k{fill:url(#g10)}.l{mix-blend-mode:screen;fill:url(#g11)}.m{fill:url(#g12)}.n{fill:url(#g13)}.o{fill:url(#g14)}.p{fill:url(#g15)}.q{fill:url(#g16)}.r{fill:url(#g17)}.s{fill:url(#g18)}.t{fill:url(#g19)}.u{fill:url(#g20)}.v{fill:#808080}.w{fill:url(#g21)}.x{mix-blend-mode:screen;fill:url(#g22)}.y{fill:url(#g23)}.z{fill:url(#g24)}.A{fill:url(#g25)}.B{fill:url(#g26)}.C{fill:url(#g27)}.D{fill:url(#g28)}.E{fill:#cccc14}.F{mix-blend-mode:screen;fill:url(#g29)}.G{fill:#fff}.H{opacity:.5;mix-blend-mode:multiply;fill:#4d5e6e}.I{fill:url(#g30)}.J{mix-blend-mode:screen;fill:url(#g31)}.K{mix-blend-mode:screen;fill:url(#g32)}.L{mix-blend-mode:screen;fill:url(#g33)}.M{mix-blend-mode:screen;fill:url(#g34)}.N{mix-blend-mode:screen;fill:url(#g35)}.O{mix-blend-mode:screen;fill:url(#g36)}.P{fill:url(#g37)}.Q{fill:url(#g38)}.R{fill:url(#g39)}.S{mix-blend-mode:screen;fill:url(#g40)}.T{mix-blend-mode:screen;fill:url(#g41)}.U{mix-blend-mode:screen;fill:url(#g42)}.V{mix-blend-mode:screen;fill:url(#g43)}.W{mix-blend-mode:screen;fill:url(#g44)}.X{mix-blend-mode:screen;fill:url(#g45)}.Y{fill:url(#g46)}.Z{fill:url(#g47)}.a0{fill:url(#g48)}.a1{mix-blend-mode:screen;fill:url(#g49)}.a2{mix-blend-mode:screen;fill:url(#g50)}.a3{mix-blend-mode:screen;fill:url(#g51)}.a4{mix-blend-mode:screen;fill:url(#g52)}.a5{mix-blend-mode:screen;fill:url(#g53)}.a6{fill:url(#g54)}.a7{mix-blend-mode:screen;fill:url(#g55)}.a8{fill:url(#g56)}.a9{fill:url(#g57)}.aa{fill:url(#g58)}.ab{fill:url(#g59)}.ac{fill:url(#g60)}.ad{fill:url(#g61)}.ae{fill:url(#g62)}.af{fill:url(#g63)}.ag{fill:url(#g64)}.ah{fill:url(#g65)}.ai{fill:url(#g66)}.aj{fill:url(#g67)}.ak{mix-blend-mode:screen;fill:url(#g68)}.al{mix-blend-mode:screen;fill:url(#g69)}.am{opacity:.7;mix-blend-mode:screen;fill:url(#g70)}.an{opacity:.7;mix-blend-mode:screen;fill:url(#g71)}.ao{opacity:.7;mix-blend-mode:screen;fill:url(#g72)}.ap{opacity:.7;mix-blend-mode:screen;fill:url(#g73)}</style><path class="a" d="m273 248.8v-115.8l23.4 27-4.4 82.2z"/><path class="b" d="m108.9 287.1v62.7l47.3 16.4 47.3-16.4v-62.7z"/><path class="c" d="m114.1 287.1v59.1l42.1 14.6 42.2-14.6v-59.1z"/><path class="d" d="m203.5 287.1v62.7l5.2 3.7v-66.4z"/><path class="e" d="m203.5 349.8v-62.7h-5.1v59.1z"/><path class="f" d="m114.1 346.2v-59.1h-5.2v62.7z"/><path class="g" d="m108.9 349.8v-62.7h-5.1v66.4z"/><path class="h" d="m121.4 354.2l34.8 12v5.5l-34.8-12.1-17.6-6.1 5.1-3.7z"/><path class="i" d="m156.2 366.2l-34.8-12-12.5-4.4 5.2-3.6 7.3 2.5 34.8 12.1z"/><path class="j" d="m156.2 366.2l34.8-12 12.5-4.4 5.2 3.7-17.7 6.1-34.8 12.1z"/><path class="k" d="m203.5 349.8l-12.5 4.4-34.8 12v-5.4l34.8-12.1 7.4-2.5z"/><path class="l" d="m114.1 331.9h84.3v84.3h-84.3z"/><path class="m" d="m39.4 248.8v-115.8l-23.3 27 4.4 82.2z"/><path class="n" d="m39.4 195.2l4.7-3.1 112.1 38.7v5z"/><path class="o" d="m273 195.2l-4.6-3.1-112.2 38.7v5z"/><path class="p" d="m39.4 27.3l4.7 4.5v160.3l-4.7 3.1z"/><path class="q" d="m156.2 350v-114.2l-116.8-40.6-4.6-1.6v114.3z"/><path class="r" d="m156.2 235.8v114.2l121.5-42.1v-114.3l-4.7 1.6z"/><path class="s" d="m156.2 345.1l-116.8-40.6-4.6 3.4 121.4 42.1z"/><path class="t" d="m273 304.5l-116.8 40.6v4.9l121.5-42.1z"/><path class="u" d="m34.8 23.7v123.6l-18.7 12.7 4.4 82.2 14.3 5v60.7l4.6-3.4v-55.7-52.3-52.3-116.9z"/><path class="v" d="m291 177.7l-12-7v53.1l9.9-5.8z"/><path class="w" d="m44.1 31.8v160.1l112.1 38.9 112.2-38.9v-160.1l-112.2-16.4z"/><path class="x" d="m86.6 206.8l157.4-178.6 24.4 3.6v160.3l-112.2 38.7z"/><path fill-rule="evenodd" class="y" d="m54.4 71.3v-30.6l101.8-14.9 66.6 9.7v6.3l29.1 4.2v50.3l4.1 4.1 1.9 1.9 0.2 0.2v82.1l-101.9 35.3-101.8-35.3v-49l6.2-6.2v-51.9zm101.8-39.2l64.5 9.4v-4.2l-64.5-9.4-99.8 14.6v27.9l4.2 4.2v-28.6zm-99.8 104.4v46.7l75.6 26.2v-4.4l-71.5-24.8v-47.8zm77.7 73.6l22.1 7.7 22.1-7.7v-4.4l-22.1 7.7-22.1-7.7zm46.3-0.7l75.6-26.2v-79.8l-4.2-4.1v80.9l-71.4 24.8zm-117.8-161.5v130.9l93.6 32.5 93.6-32.5v-130.9l-93.6-13.6z"/><path class="z" d="m39.4 27.3l116.8-16.6v-4.7l-121.4 17.7z"/><path class="A" d="m156.2 10.7l-116.8 16.6 4.7 4.5 112.1-16.4z"/><path class="B" d="m273 27.3l-4.6 4.5v160.3l4.6 3.1z"/><path class="C" d="m273 27.3l-116.8-16.6v-4.7l121.5 17.7z"/><path class="D" d="m156.2 10.7l116.8 16.6-4.6 4.5-112.2-16.4z"/><path class="E" d="m258.1 99.6v-58.9l-33.2-4.9v4.2l29.1 4.3v51.1z"/><path class="E" d="m54.4 74.2v58.5l4.1-4.1v-50.2z"/><path class="F" d="m156.2 213.4l-22.1-7.7v4.4l22.1 7.6 22.1-7.6v-4.4z"/><path class="G" d="m156.2 258.2l-2.2-20.8-94.5-35.2 96.7 33.6z"/><path class="G" d="m39.4 120.9l-1.7-93-2.4-3.8 4.5 1.8 37.1-4-37.5 5.4z"/><path class="G" d="m90.2 20.1l64.8-10.9 1.2-2.8v4.3z"/><path class="H" d="m214.6 299.2h29.9v-9h-20.3v-35h-9.6zm-35.9 0h30.5v-8.9h-20.9v-9.5h18.3v-9h-18.3v-7.5h20.9v-9h-30.5zm-17.7 0l14-42.2v-3.7l-8.9 0.8-8.9 27-0.8 4.6h-0.3l-0.8-4.6-9-27-8.8-0.8v3.7l14 42.2zm-57.8 0h30.5v-9h-20.9v-9.4h18.3v-9h-18.3v-7.5h20.9v-9h-30.5zm-35.3 0h29.9v-9h-20.3v-34.9h-9.6z"/><path class="I" d="m214.6 295.5h29.9v-9h-20.3v-35h-9.6zm-35.9 0h30.5v-8.9h-20.9v-9.5h18.3v-9h-18.3v-7.5h20.9v-9h-30.5zm-17.7 0l14-42.2-8.9-2.9-8.9 27-0.8 4.6h-0.3l-0.8-4.6-9-27-8.8 2.9 14 42.2zm-57.8 0h30.5v-8.9h-20.9v-9.5h18.3v-9h-18.3v-7.5h20.9v-9h-30.5zm-35.3 0h29.9v-9h-20.3v-34.9h-9.6z"/><path class="J" d="m46.9 262.2v0.6c0 1.2 1 2.2 2.2 2.2h5.4c1.3 0 2.3-1 2.3-2.2v-0.6c-3.8 0-6.2 0-9.9 0z"/><path class="K" d="m54.7 260.4h-5.8c-0.6 0-1.2 0.5-1.2 1.2 0 0.7 0.6 1.2 1.2 1.2h5.8c0.7 0 1.2-0.5 1.2-1.2 0-0.7-0.5-1.2-1.2-1.2z"/><path class="L" d="m46.9 273.6v0.6c0 1.2 1 2.2 2.2 2.2h5.4c1.3 0 2.3-1 2.3-2.2v-0.6c-3.8 0-6.2 0-9.9 0z"/><path class="M" d="m54.7 271.8h-5.8c-0.6 0-1.2 0.5-1.2 1.2 0 0.7 0.6 1.2 1.2 1.2h5.8c0.7 0 1.2-0.5 1.2-1.2 0-0.7-0.5-1.2-1.2-1.2z"/><path class="N" d="m46.9 284.8v0.6c0 1.3 1 2.3 2.2 2.3h5.4c1.3 0 2.3-1 2.3-2.3v-0.6c-3.8 0-6.2 0-9.9 0z"/><path class="O" d="m54.7 283h-5.8c-0.6 0-1.2 0.6-1.2 1.2 0 0.7 0.6 1.2 1.2 1.2h5.8c0.7 0 1.2-0.5 1.2-1.2 0-0.6-0.5-1.2-1.2-1.2z"/><path class="P" d="m54.5 260h-5.4c-1.2 0-2.2 1-2.2 2.2 0 1.2 1 2.2 2.2 2.2h5.4c1.3 0 2.3-1 2.3-2.2 0-1.2-1-2.2-2.3-2.2z"/><path class="Q" d="m54.5 271.3h-5.4c-1.2 0-2.2 1-2.2 2.3 0 1.2 1 2.2 2.2 2.2h5.4c1.3 0 2.3-1 2.3-2.2 0-1.3-1-2.3-2.3-2.3z"/><path class="R" d="m54.5 282.6h-5.4c-1.2 0-2.2 1-2.2 2.2 0 1.3 1 2.3 2.2 2.3h5.4c1.3 0 2.3-1 2.3-2.3 0-1.2-1-2.2-2.3-2.2z"/><path class="S" d="m255.7 262.2v0.6c0 1.2 1 2.2 2.2 2.2h5.5c1.2 0 2.2-1 2.2-2.2v-0.6c-3.7 0-6.2 0-9.9 0z"/><path class="T" d="m263.5 260.4h-5.7c-0.7 0-1.3 0.5-1.3 1.2 0 0.7 0.6 1.2 1.3 1.2h5.7c0.7 0 1.2-0.5 1.2-1.2 0-0.7-0.5-1.2-1.2-1.2z"/><path class="U" d="m255.7 273.6v0.6c0 1.2 1 2.2 2.2 2.2h5.5c1.2 0 2.2-1 2.2-2.2v-0.6c-3.7 0-6.2 0-9.9 0z"/><path class="V" d="m263.5 271.8h-5.7c-0.7 0-1.3 0.5-1.3 1.2 0 0.7 0.6 1.2 1.3 1.2h5.7c0.7 0 1.2-0.5 1.2-1.2 0-0.7-0.5-1.2-1.2-1.2z"/><path class="W" d="m255.7 284.8v0.6c0 1.3 1 2.3 2.2 2.3h5.5c1.2 0 2.2-1 2.2-2.3v-0.6c-3.7 0-6.2 0-9.9 0z"/><path class="X" d="m263.5 283h-5.7c-0.7 0-1.3 0.6-1.3 1.2 0 0.7 0.6 1.2 1.3 1.2h5.7c0.7 0 1.2-0.5 1.2-1.2 0-0.6-0.5-1.2-1.2-1.2z"/><path class="Y" d="m263.4 260h-5.5c-1.2 0-2.2 1-2.2 2.2 0 1.2 1 2.2 2.2 2.2h5.5c1.2 0 2.2-1 2.2-2.2 0-1.2-1-2.2-2.2-2.2z"/><path class="Z" d="m263.4 271.3h-5.5c-1.2 0-2.2 1-2.2 2.3 0 1.2 1 2.2 2.2 2.2h5.5c1.2 0 2.2-1 2.2-2.2 0-1.3-1-2.3-2.2-2.3z"/><path class="a0" d="m263.4 282.6h-5.5c-1.2 0-2.2 1-2.2 2.2 0 1.3 1 2.3 2.2 2.3h5.5c1.2 0 2.2-1 2.2-2.3 0-1.2-1-2.2-2.2-2.2z"/><path class="a1" d="m54.4 133.9c-3 0-5.5-13.6-5.5-30.4 0-16.8 2.5-30.4 5.5-30.4 3 0 5.5 13.6 5.5 30.4 0 16.8-2.5 30.4-5.5 30.4z"/><path class="a2" d="m39.4 91c-2.4 0-4.4-10.8-4.4-24.3 0-13.4 2-24.3 4.4-24.3 2.5 0 4.4 10.9 4.4 24.3 0 13.5-1.9 24.3-4.4 24.3z"/><path class="a3" d="m51.8 296.1c-6.2 0-11.2-10-11.2-22.3 0-12.3 5-22.3 11.2-22.3 6.2 0 11.2 10 11.2 22.3 0 12.3-5 22.3-11.2 22.3z"/><path class="a4" d="m260.6 296.1c-6.1 0-11.2-10-11.2-22.3 0-12.3 5.1-22.3 11.2-22.3 6.2 0 11.2 10 11.2 22.3 0 12.3-5 22.3-11.2 22.3z"/><path class="a5" d="m258.1 99.6c-1.9 0-3.5-13.3-3.5-29.7 0-16.4 1.6-29.6 3.5-29.6 1.9 0 3.4 13.2 3.4 29.6 0 16.4-1.5 29.7-3.4 29.7z"/><path class="a6" d="m296.4 160l-18.7-12.7v-123.6l-4.7 3.6v116.9 52.3 52.3 55.7l4.7 3.4v-60.7l14.3-5z"/><path class="a7" d="m156.2 248.7c-7.1 0-12.9-5.8-12.9-12.9 0-7.2 5.8-12.9 12.9-12.9 7.2 0 12.9 5.7 12.9 12.9 0 7.1-5.7 12.9-12.9 12.9z"/><path class="a8" d="m21.5 177.7l12-7v53.1l-9.9-5.8z"/><path class="a9" d="m24.5 179.3l6-3.4v42.7l-4-2.3z"/><path class="aa" d="m23.6 218l2.9-1.7 4 2.3 3 5.2z"/><path class="ab" d="m24.5 179.3l-3-1.6 12-7-3 5.2z"/><path class="ac" d="m21.5 177.7l3 1.6 2 37-2.9 1.7z"/><path class="ad" d="m30.5 218.6v-42.7l3-5.2v53.1z"/><path class="ae" d="m291 177.7l-12-7v53.1l9.9-5.8z"/><path class="af" d="m287.9 179.3l-5.9-3.4v42.7l4-2.3z"/><path class="ag" d="m288.9 218l-2.9-1.7-4 2.3-3 5.2z"/><path class="ah" d="m287.9 179.3l3.1-1.6-12-7 3 5.2z"/><path class="ai" d="m291 177.7l-3.1 1.6-1.9 37 2.9 1.7z"/><path class="aj" d="m282 218.6v-42.7l-3-5.2v53.1z"/><path class="ak" d="m27.5 242.1c-10.2 0-18.5-20.1-18.5-44.9 0-24.8 8.3-44.9 18.5-44.9 10.2 0 18.4 20.1 18.4 44.9 0 24.8-8.2 44.9-18.4 44.9z"/><path class="al" d="m285 242.1c-10.2 0-18.5-20.1-18.5-44.9 0-24.8 8.3-44.9 18.5-44.9 10.2 0 18.5 20.1 18.5 44.9 0 24.8-8.3 44.9-18.5 44.9z"/><path class="am" d="m29.9 288.6c-2.1 0-3.8-40.8-3.8-91.4 0-50.5 1.7-91.4 3.8-91.4 2.1 0 3.9 40.9 3.9 91.4 0 50.6-1.8 91.4-3.9 91.4z"/><path class="an" d="m25.6 243c-0.9 0-1.6-20.5-1.6-45.8 0-25.3 0.7-45.7 1.6-45.7 0.8 0 1.6 20.4 1.6 45.7 0 25.3-0.8 45.8-1.6 45.8z"/><path class="ao" d="m282.5 288.6c-2.1 0-3.8-40.8-3.8-91.4 0-50.5 1.7-91.4 3.8-91.4 2.2 0 3.9 40.9 3.9 91.4 0 50.6-1.7 91.4-3.9 91.4z"/><path class="ap" d="m287 243c-0.9 0-1.6-20.5-1.6-45.8 0-25.3 0.7-45.7 1.6-45.7 0.9 0 1.6 20.4 1.6 45.7 0 25.3-0.7 45.8-1.6 45.8z"/></svg>